<svg width="337" height="337" viewBox="0 0 337 337" fill="none" xmlns="http://www.w3.org/2000/svg">
    <g clip-path="url(#clip0_352_320)">
        <path d="M0 138.307C0.17668 138.111 0.412252 137.947 0.530039 137.725C1.21058 136.416 2.32955 135.899 3.74299 135.893C6.13144 135.886 8.51334 135.893 10.9018 135.893H19.0094C19.5983 135.893 20.1742 135.912 20.7369 136.128C21.941 136.586 22.6673 137.417 22.7851 138.72C22.8309 139.21 22.8178 139.708 22.8178 140.205V181.535C22.8178 182.111 22.7393 182.7 22.9095 183.204C23.0076 183.282 23.0338 183.315 23.073 183.334C23.1123 183.354 23.1581 183.374 23.2039 183.374C37.8356 183.387 52.4738 183.393 67.1055 183.406C67.4196 183.406 67.7337 183.406 68.0478 183.393C68.1329 183.393 68.2245 183.367 68.3096 183.334C68.3488 183.321 68.375 183.282 68.4993 183.171C68.519 182.909 68.5648 182.556 68.5648 182.209C68.5713 180.815 68.5648 179.415 68.5648 178.021V140.336C68.5648 139.884 68.5844 139.433 68.5648 138.988C68.5124 137.398 69.7034 136.174 71.4047 135.932C71.7581 135.88 72.1245 135.899 72.4844 135.899H87.2077C87.8425 135.899 88.4641 135.899 89.0661 136.148C90.2571 136.632 90.9507 137.489 91.0685 138.785C91.1012 139.145 91.0816 139.505 91.0816 139.865V252.37C91.1012 253.646 90.5777 254.621 89.5046 255.315C89.2821 255.459 89.0858 255.655 88.8829 255.825H70.7831C70.4559 255.59 70.1222 255.361 69.8081 255.106C69.0359 254.477 68.5648 253.692 68.5713 252.671V204.876C68.5713 204.346 68.6302 203.81 68.4863 203.286C68.3096 203.234 68.1852 203.162 68.0609 203.162H23.361C23.2366 203.162 23.1123 203.234 22.9553 203.286C22.7917 203.855 22.8571 204.444 22.8571 205.02V251.192C22.8571 251.644 22.8767 252.095 22.844 252.54C22.7655 253.679 22.3271 254.621 21.339 255.263C21.1296 255.4 20.9856 255.629 20.8089 255.819H2.43425C1.62283 255.158 0.752524 254.562 0.346815 253.529C0.314097 253.45 0.12433 253.43 0.00654369 253.385V138.314L0 138.307Z" fill="white"/>
        <path d="M111.853 255.812C111.578 255.59 111.303 255.367 111.022 255.145C110.158 254.464 109.674 253.594 109.693 252.475C109.7 252.115 109.693 251.755 109.693 251.395V142.286C109.693 141.789 109.674 141.291 109.706 140.8C109.824 139.184 110.596 137.98 112.088 137.319C112.743 137.031 113.443 136.809 114.143 136.704C116.185 136.383 118.233 136.109 120.288 135.867C122.611 135.598 124.94 135.369 127.263 135.153C128.696 135.022 130.136 134.931 131.569 134.852C138.132 134.505 144.702 134.381 151.272 134.558C153.831 134.63 156.383 134.918 158.922 135.278C162.579 135.801 166.165 136.586 169.666 137.771C173.52 139.079 177.146 140.84 180.418 143.287C186.307 147.698 189.998 153.554 191.797 160.647C192.707 164.247 193.047 167.911 193.112 171.608C193.165 174.494 193.021 177.367 192.628 180.226C191.732 186.737 189.454 192.666 185.129 197.704C182.027 201.317 178.238 204.006 173.952 206.028C170.033 207.88 165.904 209.09 161.644 209.902C155.466 211.08 149.23 211.374 142.968 211.178C140.632 211.106 138.296 210.883 135.966 210.753C134.801 210.687 133.637 210.674 132.406 210.635C132.335 210.962 132.256 211.211 132.236 211.459C132.21 211.865 132.223 212.271 132.223 212.676V251.297C132.223 251.749 132.23 252.2 132.21 252.645C132.158 253.745 131.726 254.641 130.803 255.282C130.587 255.433 130.411 255.636 130.214 255.812H111.84H111.853ZM132.413 192.168C132.629 192.221 132.753 192.28 132.884 192.286C135.266 192.384 137.648 192.496 140.03 192.561C142.052 192.62 144.08 192.607 146.102 192.646C149.073 192.698 152.038 192.587 154.969 192.064C157.011 191.704 159.013 191.207 160.917 190.389C164.15 189.001 166.78 186.907 168.462 183.747C169.62 181.574 170.216 179.238 170.491 176.804C170.7 174.965 170.733 173.126 170.687 171.281C170.635 169.298 170.432 167.335 169.915 165.411C168.75 161.079 166.205 157.866 162.141 155.923C160.97 155.367 159.739 154.902 158.496 154.536C155.244 153.58 151.887 153.22 148.511 153.175C145.723 153.135 142.935 153.103 140.148 153.319C137.818 153.495 135.482 153.574 133.146 153.705C132.891 153.718 132.636 153.803 132.38 153.862C132.341 154.091 132.282 154.267 132.282 154.444C132.282 166.864 132.282 179.284 132.295 191.704C132.295 191.835 132.361 191.966 132.413 192.175V192.168Z" fill="white"/>
        <path d="M0.000684314 3.51387C0.177364 3.3241 0.406393 3.16051 0.517636 2.93802C1.13929 1.67509 2.14701 1.07961 3.54736 1.08616C5.93581 1.09924 8.31771 1.07307 10.7062 1.0927C12.7412 1.10579 13.9453 2.31637 14.0107 4.37109C14.0238 4.73099 14.0107 5.09089 14.0107 5.4508V44.4774C14.0107 45.0074 14.0369 45.5374 14.0565 46.146C14.4884 46.1656 14.8418 46.1918 15.1886 46.1918C31.5871 46.3292 63.252 46.2442 64.5476 46.0544C64.5673 45.5963 64.6 45.1121 64.6 44.6279V5.18905C64.6 4.73754 64.5804 4.28602 64.6458 3.84105C64.8879 2.13315 66.0396 1.11888 67.7606 1.08616C68.9777 1.05998 70.1948 1.08616 71.4054 1.08616C72.6684 1.08616 73.9247 1.06653 75.1877 1.08616C77.0788 1.11888 78.2763 2.32946 78.3352 4.22713C78.3483 4.54122 78.3352 4.85532 78.3352 5.16942V105.242C78.3352 105.648 78.3548 106.053 78.3221 106.459C78.2109 108.128 77.0199 109.325 75.3513 109.351C72.7861 109.391 70.221 109.384 67.6493 109.351C66.0461 109.332 64.9403 108.337 64.672 106.76C64.5804 106.23 64.5934 105.687 64.5934 105.144V58.2453C64.2466 58.1929 63.9914 58.1275 63.7362 58.1144C63.4221 58.0948 63.108 58.1144 62.7939 58.1144H15.7906C15.2606 58.1144 14.724 58.1406 14.1089 58.1537C14.0696 58.4743 14.0173 58.723 14.0042 58.9782C13.9911 59.3839 14.0042 59.7896 14.0042 60.1953V105.164C14.0042 105.615 14.0304 106.067 13.9845 106.512C13.821 108.18 12.6365 109.338 10.9548 109.371C8.4355 109.417 5.90964 109.397 3.39032 109.378C2.1143 109.371 1.14583 108.789 0.569985 107.637C0.432568 107.356 0.380218 107.028 -0.00585938 106.963C0.000684314 72.4844 0.000684314 37.9991 0.000684314 3.51387Z" fill="white"/>
        <path d="M336.64 108.318C336.195 109.103 335.515 109.378 334.625 109.378C330.751 109.358 326.884 109.371 323.01 109.365C321.662 109.365 320.576 108.822 319.718 107.794C318.442 106.276 317.166 104.764 315.89 103.253C308.424 94.3599 300.958 85.4671 293.491 76.5807C288.714 70.8943 283.944 65.2078 279.167 59.5213C278.879 59.1811 278.585 58.8473 278.303 58.5332C277.95 58.651 278.029 58.9062 278.022 59.1091C278.009 59.5148 278.022 59.9205 278.022 60.3262V105.294C278.022 105.746 278.042 106.197 278.009 106.642C277.885 108.285 276.746 109.352 275.084 109.365C272.473 109.384 269.862 109.384 267.251 109.365C265.628 109.352 264.549 108.35 264.378 106.734C264.326 106.243 264.352 105.746 264.352 105.249V5.18909C264.352 4.82919 264.346 4.46929 264.352 4.10939C264.411 2.19863 265.497 1.11238 267.408 1.09929C269.927 1.07966 272.453 1.11238 274.973 1.0862C275.941 1.07311 276.726 1.40684 277.361 2.1201C277.767 2.57162 278.015 3.08857 278.015 3.70368C278.015 4.10939 278.022 4.51509 278.022 4.9208V50.2489C278.447 50.4387 278.565 50.1181 278.722 49.9414C280.371 48.0961 282.014 46.2442 283.65 44.3858C290.141 37.0372 296.632 29.6821 303.13 22.327C308.758 15.9535 314.385 9.57991 320.019 3.20636C320.137 3.06894 320.275 2.95115 320.386 2.80719C321.341 1.58352 322.558 1.05348 324.135 1.07966C327.466 1.14509 330.797 1.09929 334.128 1.09929C334.717 1.09929 335.299 1.09929 335.829 1.40684C336.163 1.59661 336.366 1.85181 336.411 2.25098C336.509 3.13438 336.392 3.8869 335.744 4.60671C327.878 13.264 320.039 21.9475 312.193 30.6244C305.525 37.9992 298.851 45.3673 292.183 52.7421C291.914 53.0366 291.679 53.3572 291.371 53.7236C291.764 54.2013 292.124 54.6594 292.497 55.0978C298.837 62.5249 305.178 69.952 311.519 77.3791C318.154 85.1464 324.79 92.9138 331.425 100.675C332.623 102.075 333.833 103.475 335.011 104.889C335.574 105.563 336.097 106.283 336.634 106.983V108.331L336.64 108.318Z" fill="white"/>
        <path d="M135.357 -6.10352e-05C135.75 0.0850069 136.136 0.19625 136.529 0.242055C142.385 0.902968 146.482 3.90652 148.576 9.44903C149.322 11.4187 149.845 13.4799 150.434 15.5019C154.727 30.3103 159.013 45.1121 163.305 59.9205C167.709 75.1149 172.107 90.3159 176.504 105.51C176.642 105.982 176.74 106.479 176.746 106.963C176.759 108.285 175.974 109.162 174.665 109.345C174.358 109.384 174.037 109.365 173.723 109.365C171.158 109.365 168.586 109.306 166.021 109.384C164.091 109.45 163.168 108.488 162.71 106.871C161.925 104.103 161.12 101.342 160.322 98.5806C157.874 90.1196 155.381 81.6652 152.986 73.1911C150.585 64.6712 148.275 56.1186 145.932 47.5856C142.941 36.71 139.951 25.8279 136.954 14.9523C136.81 14.4353 136.64 13.9184 136.431 13.4276C135.992 12.3806 135.181 11.7328 134.055 11.7197C132.825 11.7066 131.915 12.3479 131.431 13.4996C131.254 13.9118 131.13 14.3437 131.012 14.7756C128.892 22.255 126.772 29.7345 124.652 37.2204C122.414 45.1383 120.143 53.0431 117.964 60.974C116.858 65.0049 115.936 69.0817 114.889 73.1322C114.28 75.4814 113.6 77.8109 112.939 80.1405C110.432 88.9614 107.926 97.7823 105.413 106.597C105.302 106.983 105.211 107.388 105.021 107.742C104.465 108.769 103.607 109.365 102.416 109.371C99.5372 109.384 96.6514 109.391 93.7722 109.371C92.2279 109.358 91.1875 108.455 91.1286 107.055C91.1089 106.531 91.2725 105.988 91.4165 105.478C92.0839 103.142 92.7776 100.819 93.4581 98.489C96.442 88.2154 99.4194 77.9418 102.397 67.6682C106.375 53.9396 110.354 40.2109 114.332 26.4822C115.798 21.4305 117.264 16.3788 118.736 11.3336C119.142 9.94635 119.646 8.60489 120.359 7.34196C122.401 3.71675 125.516 1.53771 129.514 0.582327C130.207 0.418735 130.934 0.372929 131.641 0.255143C131.987 0.19625 132.328 0.0980943 132.668 0.0130263C133.558 -6.10352e-05 134.461 -6.10352e-05 135.357 -6.10352e-05Z" fill="white"/>
        <path d="M207.494 255.812C207.245 255.623 207.003 255.42 206.748 255.243C205.786 254.582 205.276 253.692 205.289 252.514V140.035C205.289 139.721 205.315 139.4 205.289 139.093C205.158 137.529 206.395 136.089 208.292 135.912C208.561 135.886 208.829 135.899 209.104 135.899H223.958C224.593 135.899 225.221 135.912 225.816 136.168C226.988 136.665 227.721 137.496 227.786 138.818C227.806 139.178 227.793 139.538 227.793 139.897V251.978C227.917 253.516 227.361 254.7 225.993 255.472C225.842 255.557 225.725 255.708 225.594 255.825H207.494V255.812Z" fill="white"/>
        <path d="M225.869 -5.74328e-05C226.125 0.0588358 226.373 0.163535 226.629 0.176622C229.096 0.320583 231.569 0.392564 234.036 0.588875C236.051 0.752467 238.06 1.02076 240.063 1.28905C242.733 1.64241 245.402 2.04157 248.072 2.42111C248.203 2.44074 248.347 2.43419 248.478 2.46037C249.937 2.78755 250.376 3.44847 250.356 4.66559C250.317 6.96243 250.356 9.25926 250.343 11.5496C250.33 12.963 249.878 13.4145 248.498 13.4603C248.229 13.4669 247.954 13.4799 247.686 13.4538C246.076 13.3098 244.467 13.1462 242.85 13.0153C241.326 12.891 239.801 12.7798 238.276 12.7012C235.449 12.5573 232.616 12.4133 229.783 12.3152C227.263 12.2236 224.75 12.1516 222.231 12.1516C219.797 12.1516 217.395 12.5115 215.04 13.1462C208.548 14.8999 203.968 18.9177 201.056 24.9118C199.492 28.1313 198.569 31.5536 198.02 35.0807C197.47 38.6012 197.274 42.1413 197.28 45.7011C197.3 52.8599 197.228 60.0121 197.306 67.1709C197.359 71.9085 197.948 76.5873 199.381 81.1286C200.5 84.6818 202.129 87.9602 204.596 90.7936C206.952 93.5027 209.837 95.4331 213.194 96.6633C215.269 97.4224 217.415 97.8674 219.62 98.0964C222.676 98.417 225.726 98.3123 228.781 98.1749C229.861 98.1291 230.941 98.1226 232.021 98.0637C235.031 97.9066 238.034 97.7365 241.044 97.5598C243.289 97.4224 245.533 97.2588 247.771 97.1017C247.817 97.1017 247.863 97.0887 247.909 97.0887C249.774 97.213 250.559 97.4682 250.657 99.6014C250.742 101.532 250.703 103.469 250.677 105.406C250.657 106.904 249.826 107.84 248.439 108.265C247.667 108.501 246.868 108.645 246.07 108.769C242.785 109.293 239.493 109.738 236.169 109.967C233.925 110.124 231.68 110.189 229.429 110.228C227.63 110.261 225.837 110.313 224.037 110.353C221.335 110.412 218.639 110.268 215.962 109.875C208.306 108.75 201.416 105.929 195.742 100.518C192.575 97.5009 190.147 93.9542 188.315 89.9953C186.431 85.9317 185.233 81.6586 184.52 77.2416C184.023 74.1269 183.695 70.999 183.676 67.8449C183.643 63.3429 183.604 58.8473 183.578 54.3453C183.565 52.1401 183.551 49.9348 183.578 47.7296C183.617 45.0794 183.617 42.4227 183.774 39.7725C184.134 33.6803 185.214 27.7256 187.53 22.0391C189.316 17.6614 191.777 13.7221 195.127 10.3521C198.779 6.68105 203.104 4.10284 207.972 2.39493C211.041 1.32177 214.209 0.693574 217.428 0.300952C218.318 0.18971 219.228 0.209341 220.124 0.143904C220.334 0.130816 220.536 0.0261173 220.746 -0.0327759H225.876L225.869 -5.74328e-05Z" fill="white"/>
        <path d="M290.902 147.411C290.902 153.138 288.183 156.836 281.348 161.403L274.292 166.116C266.134 171.553 264.003 175.25 264.003 181.558V183.08H288.771C289.579 183.08 290.241 183.515 290.241 184.313V187.503C290.241 188.3 289.579 188.807 288.771 188.807H259.593C258.785 188.807 258.123 188.227 258.123 187.43V181.558C258.123 174.018 261.357 167.783 269.368 162.491L276.791 157.561C282.891 153.501 284.361 151.761 284.361 147.411C284.361 142.191 281.274 139.944 273.337 139.944C269.515 139.944 264.444 140.451 260.328 141.031C260.254 141.031 260.181 141.031 260.034 141.031C259.299 141.031 258.858 140.524 258.858 139.726V137.189C258.858 136.464 259.519 136.029 260.254 135.884C264.003 134.941 269 134.434 273.337 134.434C285.243 134.434 290.902 138.494 290.902 147.411Z" fill="white"/>
        <path d="M337.019 166.768C337.019 182.79 330.11 189.315 319.012 189.315C307.914 189.315 300.932 182.79 300.932 166.768V156.981C300.932 140.959 307.914 134.434 319.012 134.434C330.11 134.434 337.019 140.959 337.019 156.981V166.768ZM330.331 166.768V156.981C330.331 144.729 325.921 140.016 319.012 140.016C312.104 140.016 307.694 144.729 307.694 156.981V166.768C307.694 179.02 312.104 183.733 319.012 183.733C325.921 183.733 330.331 179.02 330.331 166.768Z" fill="white"/>
        <path d="M290.902 213.868C290.902 219.595 288.183 223.292 281.348 227.86L274.292 232.572C266.134 238.009 264.003 241.707 264.003 248.014V249.537H288.771C289.579 249.537 290.241 249.972 290.241 250.769V253.959C290.241 254.757 289.579 255.264 288.771 255.264H259.593C258.785 255.264 258.123 254.684 258.123 253.887V248.014C258.123 240.474 261.357 234.24 269.368 228.947L276.791 224.017C282.891 219.957 284.361 218.218 284.361 213.868C284.361 208.648 281.274 206.4 273.337 206.4C269.515 206.4 264.444 206.908 260.328 207.488C260.254 207.488 260.181 207.488 260.034 207.488C259.299 207.488 258.858 206.98 258.858 206.183V203.645C258.858 202.92 259.519 202.485 260.254 202.34C264.003 201.398 269 200.89 273.337 200.89C285.243 200.89 290.902 204.95 290.902 213.868Z" fill="white"/>
        <path d="M336.872 237.429C336.872 248.884 330.992 255.771 318.939 255.771C307.988 255.771 301.153 249.392 301.153 235.182V222.495C301.153 206.98 307.767 200.89 320.335 200.89C326.142 200.89 329.963 201.47 332.977 202.123C333.859 202.34 334.667 202.63 334.667 203.5V206.328C334.667 207.198 334.079 207.633 333.344 207.633C333.197 207.633 333.05 207.56 332.903 207.56C329.155 206.835 325.039 206.4 320.335 206.4C309.017 206.4 307.767 212.998 307.767 222.495V223.292C310.781 222.64 314.309 221.842 318.865 221.842C328.42 221.842 336.872 225.322 336.872 236.994V237.429ZM330.257 237.429V236.994C330.257 229.165 324.672 226.99 318.865 226.99C315.264 226.99 310.413 227.642 307.767 228.295V235.182C307.767 246.999 311.81 250.407 318.939 250.407C325.774 250.407 330.257 247.217 330.257 237.429Z" fill="white"/>
    </g>
    <path d="M0 322.413V300.486C0 300.014 0.251664 299.763 0.754992 299.7C2.20206 299.543 3.93225 299.448 5.97702 299.448C11.8597 299.448 14.7853 301.713 14.7853 306.275V306.684C14.7853 311.371 11.8597 313.73 5.97702 313.73C5.25349 313.73 4.18391 313.667 2.83122 313.573V322.413C2.83122 322.57 2.7683 322.727 2.67393 322.853C2.57956 322.979 2.42227 323.042 2.26498 323.042H0.566244C0.408954 323.042 0.283122 322.979 0.15729 322.853C0.0314581 322.727 0 322.601 0 322.413ZM2.83122 311.213C4.75016 311.308 5.78827 311.339 5.97702 311.339C8.11616 311.339 9.65761 310.962 10.5699 310.238C11.4822 309.515 11.9226 308.319 11.9226 306.684V306.275C11.9226 304.702 11.4507 303.601 10.507 302.909C9.56323 302.216 8.02179 301.87 5.97702 301.87C4.87599 301.87 3.83788 301.902 2.83122 301.996V311.213Z" fill="#FCFDFE"/>
    <path d="M17.7359 315.586V313.195C17.7359 310.836 18.3336 308.98 19.529 307.596C20.7244 306.212 22.4546 305.52 24.7196 305.52C26.9846 305.52 28.7462 306.212 29.9416 307.596C31.137 308.98 31.7347 310.836 31.7347 313.195V315.586C31.7347 317.945 31.137 319.802 29.9416 321.186C28.7462 322.57 26.9846 323.262 24.7196 323.262C22.4546 323.262 20.7244 322.57 19.529 321.186C18.3336 319.802 17.7359 317.945 17.7359 315.586ZM20.5042 315.586C20.5042 317.253 20.8503 318.543 21.5423 319.455C22.2344 320.368 23.2725 320.84 24.7196 320.84C26.1352 320.84 27.2362 320.368 27.9283 319.455C28.6204 318.543 28.9664 317.253 28.9664 315.586V313.195C28.9664 311.528 28.6204 310.238 27.9283 309.326C27.2362 308.414 26.1667 307.942 24.7196 307.942C23.304 307.942 22.2344 308.414 21.5423 309.326C20.8503 310.238 20.5042 311.528 20.5042 313.195V315.586Z" fill="#FCFDFE"/>
    <path d="M34.4699 306.495V306.369C34.4699 306.212 34.5013 306.054 34.6271 305.929C34.753 305.803 34.8788 305.74 35.0676 305.74H36.7663C36.8921 305.74 37.018 305.803 37.1123 305.897C37.2067 305.991 37.2696 306.117 37.3011 306.243L39.9121 320.588C39.9435 320.777 39.975 320.871 40.0065 320.903C40.0379 320.934 40.1008 320.965 40.1638 320.965C40.2581 320.965 40.3525 320.84 40.4154 320.588L43.4983 308.508C43.687 307.879 44.096 307.564 44.7566 307.564H46.5183C47.1789 307.564 47.5878 307.879 47.7766 308.508L50.8595 320.588C50.9224 320.84 51.0168 320.965 51.1111 320.965H51.2055C51.237 320.965 51.2684 320.903 51.2999 320.84C51.3313 320.777 51.3313 320.714 51.3628 320.588L53.9738 306.243C54.0053 306.117 54.0682 305.991 54.1626 305.897C54.2569 305.803 54.3828 305.74 54.5086 305.74H56.2073C56.3961 305.74 56.5219 305.803 56.6477 305.929C56.7736 306.054 56.805 306.212 56.805 306.369V306.495L53.7536 321.091C53.5334 322.066 53.2817 322.696 52.9986 322.916C52.7155 323.136 52.0863 323.262 51.1111 323.262C50.2932 323.262 49.6955 323.105 49.3809 322.853C49.0664 322.601 48.7832 321.972 48.5316 320.997L45.7947 310.301C45.7633 310.175 45.7318 310.144 45.7318 310.112C45.7318 310.081 45.6689 310.081 45.6374 310.081C45.606 310.081 45.5431 310.081 45.5431 310.112C45.5431 310.144 45.5116 310.175 45.4802 310.301L42.7433 320.997C42.5231 321.909 42.24 322.538 41.8939 322.821C41.5479 323.105 40.9817 323.262 40.1638 323.262C39.1886 323.262 38.5909 323.136 38.2763 322.884C37.9617 322.633 37.7415 322.066 37.5213 321.091L34.4699 306.495Z" fill="#FCFDFE"/>
    <path d="M59.5468 315.712V312.881C59.5468 310.584 60.1445 308.791 61.3714 307.47C62.5982 306.149 64.297 305.52 66.5305 305.52C68.7954 305.52 70.4942 306.149 71.6896 307.47C72.885 308.791 73.4512 310.584 73.4512 312.881V314.579C73.4512 314.8 73.3883 314.957 73.2939 315.083C73.1996 315.209 73.0423 315.272 72.8535 315.272H62.3151V315.712C62.3151 317.537 62.6611 318.858 63.3847 319.644C64.1082 320.431 65.2092 320.84 66.6878 320.84C68.8584 320.84 70.7144 320.714 72.2873 320.494H72.4446C72.5704 320.494 72.6962 320.557 72.7906 320.619C72.885 320.682 72.9479 320.777 72.9479 320.934V322.004C72.9479 322.224 72.9164 322.381 72.8221 322.507C72.7277 322.633 72.5704 322.696 72.3187 322.727C70.5571 323.073 68.6696 323.262 66.6878 323.262C65.9328 323.262 65.2092 323.199 64.5486 323.042C63.888 322.884 63.2274 322.664 62.5982 322.287C61.9691 321.909 61.4343 321.469 60.9939 320.903C60.5535 320.336 60.176 319.613 59.9243 318.732C59.6726 317.851 59.5468 316.844 59.5468 315.712ZM62.3151 313.164H70.6515V312.881C70.6515 311.151 70.3054 309.892 69.6448 309.106C68.9842 308.319 67.9461 307.942 66.5305 307.942C63.7307 307.942 62.3151 309.609 62.3151 312.881V313.164Z" fill="#FCFDFE"/>
    <path d="M77.1937 322.413V306.369C77.1937 306.18 77.2252 306.054 77.351 305.929C77.4769 305.803 77.6027 305.74 77.7915 305.74H79.27C79.4587 305.74 79.5531 305.803 79.6789 305.929C79.8048 306.054 79.8677 306.18 79.8677 306.369V307.03C81.3147 306.023 82.7618 305.52 84.3033 305.52C84.7437 305.52 84.9639 305.708 84.9639 306.086V307.376C84.9639 307.722 84.7437 307.91 84.3033 307.91C82.8876 307.91 81.4406 308.351 79.9621 309.232V322.413C79.9621 322.57 79.8991 322.727 79.7733 322.853C79.6475 322.979 79.5216 323.042 79.3329 323.042H77.7915C77.6342 323.042 77.5083 322.979 77.3825 322.853C77.2567 322.727 77.1937 322.601 77.1937 322.413Z" fill="#FCFDFE"/>
    <path d="M87.349 315.712V312.881C87.349 310.584 87.9467 308.791 89.1736 307.47C90.4005 306.149 92.0992 305.52 94.3327 305.52C96.5977 305.52 98.2964 306.149 99.4918 307.47C100.687 308.791 101.253 310.584 101.253 312.881V314.579C101.253 314.8 101.191 314.957 101.096 315.083C101.002 315.209 100.845 315.272 100.656 315.272H90.1173V315.712C90.1173 317.537 90.4634 318.858 91.1869 319.644C91.9104 320.431 93.0115 320.84 94.49 320.84C96.6606 320.84 98.5166 320.714 100.09 320.494H100.247C100.373 320.494 100.498 320.557 100.593 320.619C100.687 320.682 100.75 320.777 100.75 320.934V322.004C100.75 322.224 100.719 322.381 100.624 322.507C100.53 322.633 100.373 322.696 100.121 322.727C98.3593 323.073 96.4719 323.262 94.49 323.262C93.735 323.262 93.0115 323.199 92.3509 323.042C91.6902 322.884 91.0296 322.664 90.4005 322.287C89.7713 321.909 89.2365 321.469 88.7961 320.903C88.3557 320.336 87.9782 319.613 87.7265 318.732C87.4749 317.851 87.349 316.844 87.349 315.712ZM90.1173 313.164H98.4537V312.881C98.4537 311.151 98.1077 309.892 97.447 309.106C96.7864 308.319 95.7483 307.942 94.3327 307.942C91.5329 307.942 90.1173 309.609 90.1173 312.881V313.164Z" fill="#FCFDFE"/>
    <path d="M104.43 315.492V313.227C104.43 310.742 104.996 308.823 106.16 307.501C107.324 306.18 109.023 305.52 111.288 305.52C112.514 305.52 113.741 305.614 114.968 305.834V299.983C114.968 299.826 115 299.7 115.125 299.574C115.251 299.448 115.377 299.385 115.566 299.385H117.17C117.328 299.385 117.453 299.417 117.579 299.543C117.705 299.668 117.736 299.794 117.736 299.983V322.004C117.736 322.224 117.705 322.381 117.611 322.507C117.516 322.633 117.328 322.696 117.076 322.727C115.314 323.073 113.364 323.262 111.288 323.262C108.991 323.262 107.261 322.57 106.128 321.186C104.996 319.802 104.43 317.914 104.43 315.492ZM107.198 315.492C107.198 317.285 107.481 318.638 108.11 319.518C108.739 320.399 109.778 320.84 111.288 320.84C112.168 320.84 113.427 320.777 114.968 320.651V308.162C114.15 308.005 112.923 307.942 111.288 307.942C109.809 307.942 108.771 308.382 108.142 309.263C107.513 310.144 107.198 311.465 107.198 313.227V315.492Z" fill="#FCFDFE"/>
    <path d="M129.726 322.004V299.983C129.726 299.826 129.789 299.7 129.883 299.574C129.978 299.448 130.104 299.385 130.292 299.385H131.897C132.054 299.385 132.18 299.417 132.306 299.543C132.432 299.668 132.494 299.794 132.494 299.983V305.834C133.69 305.614 134.917 305.52 136.175 305.52C138.44 305.52 140.139 306.18 141.303 307.501C142.467 308.823 143.033 310.742 143.033 313.227V315.492C143.033 317.914 142.467 319.802 141.334 321.186C140.202 322.57 138.471 323.262 136.175 323.262C134.099 323.262 132.148 323.073 130.387 322.727C130.135 322.696 129.946 322.601 129.852 322.507C129.758 322.413 129.726 322.224 129.726 322.004ZM132.494 320.651C134.036 320.777 135.263 320.84 136.175 320.84C137.685 320.84 138.723 320.399 139.352 319.518C139.981 318.638 140.265 317.285 140.265 315.492V313.227C140.265 311.465 139.95 310.144 139.321 309.263C138.692 308.382 137.654 307.942 136.175 307.942C134.539 307.942 133.312 308.005 132.494 308.162V320.651Z" fill="#FCFDFE"/>
    <path d="M145.802 306.275C145.802 305.929 145.991 305.74 146.369 305.74H148.099C148.225 305.74 148.351 305.803 148.445 305.897C148.539 305.991 148.602 306.117 148.634 306.243L152.346 319.896C152.409 320.179 152.503 320.368 152.597 320.462C152.692 320.557 152.818 320.588 152.943 320.588H153.447L157.285 306.212C157.316 306.086 157.379 305.991 157.505 305.897C157.631 305.803 157.756 305.74 157.882 305.74H159.644C159.801 305.74 159.927 305.803 160.021 305.897C160.116 305.991 160.147 306.117 160.147 306.275C160.147 306.4 160.147 306.463 160.116 306.495L154.925 324.615C154.579 325.81 154.202 326.722 153.793 327.351C153.384 327.981 152.818 328.484 152.094 328.799C151.37 329.113 150.364 329.27 149.168 329.27C148.256 329.27 147.375 329.176 146.526 328.987C146.086 328.893 145.865 328.704 145.865 328.484V327.32C145.865 326.974 146.054 326.817 146.463 326.817H146.557C147.942 326.942 148.885 327.005 149.357 327.005C150.301 327.005 150.993 326.817 151.433 326.471C151.874 326.125 152.22 325.401 152.471 324.331L152.786 323.042H152.346C152.094 323.042 151.842 323.01 151.654 322.979C151.465 322.947 151.276 322.821 151.056 322.696C150.836 322.57 150.678 322.35 150.49 322.035C150.301 321.72 150.144 321.343 150.018 320.871L145.834 306.495C145.802 306.463 145.802 306.4 145.802 306.275Z" fill="#FCFDFE"/>
    <path fill-rule="evenodd" clip-rule="evenodd" d="M275.462 324.33C281.708 324.33 286.43 320.356 286.938 314.521H282.368C281.759 318.042 279.068 320.206 275.514 320.206C271.249 320.206 267.795 317.035 267.795 311.803C267.795 306.672 271.097 303.403 275.514 303.403C278.967 303.403 281.606 305.365 282.317 309.088H286.887C286.43 303.202 281.607 299.278 275.514 299.278C268.507 299.278 263.124 304.359 263.124 311.854C263.124 319.199 268.405 324.33 275.462 324.33Z" fill="#FCFDFE"/>
    <path fill-rule="evenodd" clip-rule="evenodd" d="M296.585 324.331C299.123 324.331 301.357 323.223 302.677 321.362V324.028H306.942V305.516H302.626V315.428C302.626 318.697 300.646 320.407 298.056 320.407C295.721 320.407 294.248 319.049 294.248 316.031V305.516H289.932V317.188C289.932 321.716 292.675 324.331 296.585 324.331Z" fill="#FCFDFE"/>
    <path d="M314.958 298.472H310.65V324.019H314.958V298.472Z" fill="#FCFDFE"/>
    <path fill-rule="evenodd" clip-rule="evenodd" d="M324.407 324.28C327.2 324.28 329.587 323.124 330.806 321.213C331.161 323.074 332.583 324.028 334.767 324.028H337V320.507H336.29C335.274 320.507 334.767 320.055 334.767 319.049V312.559C334.767 307.88 331.973 305.215 326.845 305.215C321.92 305.215 318.772 307.629 318.366 311.452H322.835C323.089 309.742 324.459 308.737 326.744 308.737C329.232 308.737 330.604 309.995 330.604 312.409V313.062H325.272C320.601 313.062 317.706 315.277 317.706 318.697C317.706 321.967 320.447 324.28 324.407 324.28ZM322.073 318.446C322.073 316.937 323.342 316.031 325.83 316.031H330.604V316.282C330.604 318.949 328.42 320.91 325.373 320.91C323.292 320.91 322.073 319.905 322.073 318.446Z" fill="#FCFDFE"/>
    <path fill-rule="evenodd" clip-rule="evenodd" d="M213.701 291.276L222.516 286.229C223.109 285.889 223.838 285.889 224.431 286.229L244.938 297.959C245.538 298.302 245.909 298.941 245.909 299.633V323.063C245.909 323.754 245.538 324.393 244.938 324.736L224.43 336.467C223.838 336.806 223.109 336.806 222.516 336.467L213.701 331.429C219.655 326.722 223.473 319.474 223.473 311.348C223.473 303.227 219.655 295.978 213.701 291.276Z" fill="#FCFDFE"/>
    <path fill-rule="evenodd" clip-rule="evenodd" d="M213.71 331.404C209.279 334.903 203.671 337 197.573 337C191.476 337 185.868 334.903 181.437 331.404C175.485 326.7 171.663 319.453 171.663 311.329C171.663 303.204 175.485 295.958 181.437 291.254C185.868 287.755 191.476 285.658 197.573 285.658C203.671 285.658 209.279 287.755 213.71 291.254L201.524 298.223C201.224 298.394 201.038 298.714 201.038 299.059V323.599C201.038 323.945 201.224 324.264 201.524 324.436L213.71 331.404Z" fill="#FCFDFE"/>
    <defs>
        <clipPath id="clip0_352_320">
            <rect width="337" height="255.858" fill="white"/>
        </clipPath>
    </defs>
</svg>
