<?xml version="1.0" encoding="UTF-8"?>
<svg id="Ebene_2" data-name="Ebene 2" xmlns="http://www.w3.org/2000/svg" viewBox="0 0 514.45 390.93">
  <defs>
    <style>
      .cls-1 {
        fill: #fff;
        stroke-width: 0px;
      }
    </style>
  </defs>
  <g id="Ebene_1-2" data-name="Ebene 1">
    <g>
      <path class="cls-1" d="M0,211.36c.27-.3.63-.55.81-.89,1.04-2,2.75-2.79,4.91-2.8,3.65-.01,7.29,0,10.94,0,4.13,0,8.26,0,12.39,0,.9,0,1.78.03,2.64.36,1.84.7,2.95,1.97,3.13,3.96.07.75.05,1.51.05,2.27,0,21.05,0,42.11,0,63.16,0,.88-.12,1.78.14,2.55.15.12.19.17.25.2.06.03.13.06.2.06,22.36.02,44.73.03,67.09.05.48,0,.96,0,1.44-.02.13,0,.27-.04.4-.09.06-.02.1-.08.29-.25.03-.4.1-.94.1-1.47.01-2.13,0-4.27,0-6.4,0-19.2,0-38.39,0-57.59,0-.69.03-1.38,0-2.06-.08-2.43,1.74-4.3,4.34-4.67.54-.08,1.1-.05,1.65-.05,7.5,0,15,0,22.5,0,.97,0,1.92,0,2.84.38,1.82.74,2.88,2.05,3.06,4.03.05.55.02,1.1.02,1.65,0,56.97,0,113.93,0,170.9,0,.34,0,.69,0,1.03.03,1.95-.77,3.44-2.41,4.5-.34.22-.64.52-.95.78h-27.66c-.5-.36-1.01-.71-1.49-1.1-1.18-.96-1.9-2.16-1.89-3.72,0-.55,0-1.1,0-1.65,0-10.45,0-20.91,0-31.36,0-13.34,0-26.68,0-40.03,0-.81.09-1.63-.13-2.43-.27-.08-.46-.19-.65-.19-22.77,0-45.54,0-68.31,0-.19,0-.38.11-.62.19-.25.87-.15,1.77-.15,2.65,0,23.52,0,47.04,0,70.56,0,.69.03,1.38-.02,2.06-.12,1.74-.79,3.18-2.3,4.16-.32.21-.54.56-.81.85H3.72c-1.24-1.01-2.57-1.92-3.19-3.5-.05-.12-.34-.15-.52-.22,0-58.62,0-117.24,0-175.85Z"/>
      <path class="cls-1" d="M170.93,390.93c-.42-.34-.84-.68-1.27-1.02-1.32-1.04-2.06-2.37-2.03-4.08.01-.55,0-1.1,0-1.65,0-55.58,0-111.16,0-166.74,0-.76-.03-1.52.02-2.27.18-2.47,1.36-4.31,3.64-5.32,1-.44,2.07-.78,3.14-.94,3.12-.49,6.25-.91,9.39-1.28,3.55-.41,7.11-.76,10.66-1.09,2.19-.2,4.39-.34,6.58-.46,10.03-.53,20.07-.72,30.11-.45,3.91.11,7.81.55,11.69,1.1,5.59.8,11.07,2,16.42,3.81,5.89,2,11.43,4.69,16.43,8.43,9,6.74,14.64,15.69,17.39,26.53,1.39,5.5,1.91,11.1,2.01,16.75.08,4.41-.14,8.8-.74,13.17-1.37,9.95-4.85,19.01-11.46,26.71-4.74,5.52-10.53,9.63-17.08,12.72-5.99,2.83-12.3,4.68-18.81,5.92-9.44,1.8-18.97,2.25-28.54,1.95-3.57-.11-7.14-.45-10.7-.65-1.78-.1-3.56-.12-5.44-.18-.11.5-.23.88-.26,1.26-.04.62-.02,1.24-.02,1.86,0,19.67,0,39.35,0,59.02,0,.69.01,1.38-.02,2.06-.08,1.68-.74,3.05-2.15,4.03-.33.23-.6.54-.9.81h-28.08ZM202.35,293.67c.33.08.52.17.72.18,3.64.15,7.28.32,10.92.42,3.09.09,6.19.07,9.28.13,4.54.08,9.07-.09,13.55-.89,3.12-.55,6.18-1.31,9.09-2.56,4.94-2.12,8.96-5.32,11.53-10.15,1.77-3.32,2.68-6.89,3.1-10.61.32-2.81.37-5.62.3-8.44-.08-3.03-.39-6.03-1.18-8.97-1.78-6.62-5.67-11.53-11.88-14.5-1.79-.85-3.67-1.56-5.57-2.12-4.97-1.46-10.1-2.01-15.26-2.08-4.26-.06-8.52-.11-12.78.22-3.56.27-7.13.39-10.7.59-.39.02-.78.15-1.17.24-.06.35-.15.62-.15.89,0,18.98,0,37.96.02,56.94,0,.2.1.4.18.72Z"/>
      <path class="cls-1" d="M0,5.37c.27-.29.62-.54.79-.88.95-1.93,2.49-2.84,4.63-2.83,3.65.02,7.29-.02,10.94.01,3.11.02,4.95,1.87,5.05,5.01.02.55,0,1.1,0,1.65,0,19.88,0,39.76,0,59.64,0,.81.04,1.62.07,2.55.66.03,1.2.07,1.73.07,25.06.21,73.45.08,75.43-.21.03-.7.08-1.44.08-2.18,0-8.81,0-17.61,0-26.42,0-11.28,0-22.56,0-33.85,0-.69-.03-1.38.07-2.06.37-2.61,2.13-4.16,4.76-4.21,1.86-.04,3.72,0,5.57,0,1.93,0,3.85-.03,5.78,0,2.89.05,4.72,1.9,4.81,4.8.02.48,0,.96,0,1.44,0,50.98,0,101.95,0,152.93,0,.62.03,1.24-.02,1.86-.17,2.55-1.99,4.38-4.54,4.42-3.92.06-7.84.05-11.77,0-2.45-.03-4.14-1.55-4.55-3.96-.14-.81-.12-1.64-.12-2.47,0-23.05,0-46.09,0-69.14,0-.82,0-1.63,0-2.53-.53-.08-.92-.18-1.31-.2-.48-.03-.96,0-1.44,0-23.94,0-47.89,0-71.83,0-.81,0-1.63.04-2.57.06-.06.49-.14.87-.16,1.26-.02.62,0,1.24,0,1.86,0,22.91,0,45.82,0,68.72,0,.69.04,1.38-.03,2.06-.25,2.55-2.06,4.32-4.63,4.37-3.85.07-7.71.04-11.56.01-1.95-.01-3.43-.9-4.31-2.66-.21-.43-.29-.93-.88-1.03C0,110.77,0,58.07,0,5.37Z"/>
      <path class="cls-1" d="M514.45,165.53c-.68,1.2-1.72,1.62-3.08,1.62-5.92-.03-11.83-.01-17.75-.02-2.06,0-3.72-.83-5.03-2.4-1.95-2.32-3.9-4.63-5.85-6.94-11.41-13.59-22.82-27.18-34.23-40.76-7.3-8.69-14.59-17.38-21.89-26.07-.44-.52-.89-1.03-1.32-1.51-.54.18-.42.57-.43.88-.02.62,0,1.24,0,1.86,0,22.91,0,45.81,0,68.72,0,.69.03,1.38-.02,2.06-.19,2.51-1.93,4.14-4.47,4.16-3.99.03-7.98.03-11.97,0-2.48-.02-4.13-1.55-4.39-4.02-.08-.75-.04-1.51-.04-2.27,0-50.97,0-101.94,0-152.91,0-.55-.01-1.1,0-1.65.09-2.92,1.75-4.58,4.67-4.6,3.85-.03,7.71.02,11.56-.02,1.48-.02,2.68.49,3.65,1.58.62.69,1,1.48,1,2.42,0,.62.01,1.24.01,1.86,0,22.36,0,44.71,0,67.07v2.2c.65.29.83-.2,1.07-.47,2.52-2.82,5.03-5.65,7.53-8.49,9.92-11.23,19.84-22.47,29.77-33.71,8.6-9.74,17.2-19.48,25.81-29.22.18-.21.39-.39.56-.61,1.46-1.87,3.32-2.68,5.73-2.64,5.09.1,10.18.03,15.27.03.9,0,1.79,0,2.6.47.51.29.82.68.89,1.29.15,1.35-.03,2.5-1.02,3.6-12.02,13.23-24,26.5-35.99,39.76-10.19,11.27-20.39,22.53-30.58,33.8-.41.45-.77.94-1.24,1.5.6.73,1.15,1.43,1.72,2.1,9.69,11.35,19.38,22.7,29.07,34.05,10.14,11.87,20.28,23.74,30.42,35.6,1.83,2.14,3.68,4.28,5.48,6.44.86,1.03,1.66,2.13,2.48,3.2v2.06Z"/>
      <path class="cls-1" d="M206.85,0c.6.13,1.19.3,1.79.37,8.95,1.01,15.21,5.6,18.41,14.07,1.14,3.01,1.94,6.16,2.84,9.25,6.56,22.63,13.11,45.25,19.67,67.88,6.73,23.22,13.45,46.45,20.17,69.67.21.72.36,1.48.37,2.22.02,2.02-1.18,3.36-3.18,3.64-.47.06-.96.03-1.44.03-3.92,0-7.85-.09-11.77.03-2.95.1-4.36-1.37-5.06-3.84-1.2-4.23-2.43-8.45-3.65-12.67-3.74-12.93-7.55-25.85-11.21-38.8-3.67-13.02-7.2-26.09-10.78-39.13-4.57-16.62-9.14-33.25-13.72-49.87-.22-.79-.48-1.58-.8-2.33-.67-1.6-1.91-2.59-3.63-2.61-1.88-.02-3.27.96-4.01,2.72-.27.63-.46,1.29-.64,1.95-3.24,11.43-6.48,22.86-9.72,34.3-3.42,12.1-6.89,24.18-10.22,36.3-1.69,6.16-3.1,12.39-4.7,18.58-.93,3.59-1.97,7.15-2.98,10.71-3.83,13.48-7.66,26.96-11.5,40.43-.17.59-.31,1.21-.6,1.75-.85,1.57-2.16,2.48-3.98,2.49-4.4.02-8.81.03-13.21,0-2.36-.02-3.95-1.4-4.04-3.54-.03-.8.22-1.63.44-2.41,1.02-3.57,2.08-7.12,3.12-10.68,4.56-15.7,9.11-31.4,13.66-47.1,6.08-20.98,12.16-41.96,18.24-62.94,2.24-7.72,4.48-15.44,6.73-23.15.62-2.12,1.39-4.17,2.48-6.1,3.12-5.54,7.88-8.87,13.99-10.33,1.06-.25,2.17-.32,3.25-.5.53-.09,1.05-.24,1.57-.37C204.1,0,205.48,0,206.85,0Z"/>
      <path class="cls-1" d="M317.09,390.93c-.38-.29-.75-.6-1.14-.87-1.47-1.01-2.25-2.37-2.23-4.17,0-.48,0-.96,0-1.44,0-56.82,0-113.64,0-170.45,0-.48.04-.97,0-1.44-.2-2.39,1.69-4.59,4.59-4.86.41-.04.82-.02,1.24-.02,7.57,0,15.14,0,22.7,0,.97,0,1.93.02,2.84.41,1.79.76,2.91,2.03,3.01,4.05.03.55.01,1.1.01,1.65,0,56.96,0,113.91,0,170.87,0,.14,0,.28,0,.41.19,2.35-.66,4.16-2.75,5.34-.23.13-.41.36-.61.54h-27.66Z"/>
      <path class="cls-1" d="M345.17,0c.39.09.77.25,1.16.27,3.77.22,7.55.33,11.32.63,3.08.25,6.15.66,9.21,1.07,4.08.54,8.16,1.15,12.24,1.73.2.03.42.02.62.06,2.23.5,2.9,1.51,2.87,3.37-.06,3.51,0,7.02-.02,10.52-.02,2.16-.71,2.85-2.82,2.92-.41.01-.83.03-1.24-.01-2.46-.22-4.92-.47-7.39-.67-2.33-.19-4.66-.36-6.99-.48-4.32-.22-8.65-.44-12.98-.59-3.85-.14-7.69-.25-11.54-.25-3.72,0-7.39.55-10.99,1.52-9.92,2.68-16.92,8.82-21.37,17.98-2.39,4.92-3.8,10.15-4.64,15.54-.84,5.38-1.14,10.79-1.13,16.23.03,10.94-.08,21.87.04,32.81.08,7.24.98,14.39,3.17,21.33,1.71,5.43,4.2,10.44,7.97,14.77,3.6,4.14,8.01,7.09,13.14,8.97,3.17,1.16,6.45,1.84,9.82,2.19,4.67.49,9.33.33,14,.12,1.65-.07,3.3-.08,4.95-.17,4.6-.24,9.19-.5,13.79-.77,3.43-.21,6.86-.46,10.28-.7.07,0,.14-.02.21-.02,2.85.19,4.05.58,4.2,3.84.13,2.95.07,5.91.03,8.87-.03,2.29-1.3,3.72-3.42,4.37-1.18.36-2.4.58-3.62.77-5.02.8-10.05,1.48-15.13,1.83-3.43.24-6.86.34-10.3.4-2.75.05-5.49.13-8.24.19-4.13.09-8.25-.13-12.34-.73-11.7-1.72-22.23-6.03-30.9-14.3-4.84-4.61-8.55-10.03-11.35-16.08-2.88-6.21-4.71-12.74-5.8-19.49-.76-4.76-1.26-9.54-1.29-14.36-.05-6.88-.11-13.75-.15-20.63-.02-3.37-.04-6.74,0-10.11.06-4.05.06-8.11.3-12.16.55-9.31,2.2-18.41,5.74-27.1,2.73-6.69,6.49-12.71,11.61-17.86,5.58-5.61,12.19-9.55,19.63-12.16,4.69-1.64,9.53-2.6,14.45-3.2,1.36-.17,2.75-.14,4.12-.24.32-.02.63-.18.95-.27,2.61,0,5.23,0,7.84,0Z"/>
      <path class="cls-1" d="M457.06,253.06c0-5.91,0-11.83,0-17.74,0-2.63.37-5.2,1.17-7.71,1.98-6.26,6.16-10.27,12.45-12.07,1.92-.55,3.88-.87,5.89-.91,3.37-.06,6.73-.06,10.02.87,6.48,1.82,10.69,5.94,12.64,12.38.78,2.59,1.11,5.25,1.12,7.93.03,11.62.03,23.25,0,34.87,0,2.76-.36,5.49-1.21,8.13-1.94,6.07-5.92,10.15-12.07,11.93-5.6,1.62-11.27,1.61-16.87-.02-6.51-1.9-10.44-6.35-12.25-12.77-.63-2.25-.91-4.57-.9-6.93.02-5.98,0-11.97,0-17.95ZM489.44,253.33c0-5.84,0-11.68,0-17.52,0-1.87-.23-3.69-.95-5.44-1.06-2.59-2.93-4.26-5.63-5.01-2.43-.67-4.92-.71-7.35-.25-4.98.93-6.64,4.12-7.29,7.39-.27,1.34-.4,2.72-.41,4.09-.03,11.06-.03,22.12,0,33.18,0,1.43.14,2.89.44,4.29.82,3.83,3.05,6.33,7.02,7.18,1.92.41,3.84.46,5.73.2,5.18-.73,7.73-3.81,8.3-8.75.1-.88.12-1.78.13-2.67.01-5.56,0-11.13,0-16.69Z"/>
      <path class="cls-1" d="M412.09,280.61c1.22.27,2.24.13,3.23.16,1.03.02,2.06,0,3.09,0h15.27c1.03,0,2.06,0,3.1,0s2.05,0,3.03,0c.16.3.34.47.34.64.02,3.09.01,6.18.01,9.2-.49.56-1.07.4-1.6.4-4.47.01-8.94,0-13.41,0-8.39,0-16.78,0-25.17,0-.74,0-1.48-.05-2.34-.07-.05-.57-.12-1.03-.12-1.5-.01-1.99.04-3.99-.02-5.98-.04-1.23.29-2.22,1.05-3.22,8.2-10.86,16.36-21.77,24.53-32.65,1.41-1.87,2.73-3.79,3.7-5.93,1.12-2.46,1.92-5.01,1.76-7.76-.06-1.02-.19-2.06-.49-3.04-.75-2.44-2.36-4.17-4.76-5.07-2.37-.88-4.79-1.08-7.29-.57-3.37.69-5.71,2.62-7.07,5.71-.58,1.3-.89,2.72-1.37,4.23-1.71.41-3.56.12-5.39.17-1.78.05-3.56.01-5.49.01.03-.54,0-.93.07-1.31.91-5.27,2.87-10.02,6.79-13.81,3.01-2.91,6.64-4.55,10.76-5.21,4.43-.71,8.79-.41,13.04.93,6.17,1.95,10.17,6.07,11.8,12.38.6,2.35.75,4.75.65,7.16-.18,4.22-1.61,8.06-3.64,11.7-.9,1.62-1.92,3.18-3.02,4.67-6.62,9.04-13.28,18.05-19.92,27.08-.35.48-.67.98-1.12,1.65Z"/>
      <path class="cls-1" d="M395.25,327.33c.49-3.56,1.42-6.78,3.06-9.76,3.44-6.22,8.68-9.71,15.77-10.5,3.88-.43,7.7-.17,11.41.93,7.13,2.12,11.32,6.88,12.61,14.25,1.1,6.28-.44,11.99-3.49,17.41-.84,1.49-1.8,2.93-2.82,4.31-6.62,9.04-13.27,18.05-19.91,27.08-.36.49-.7,1-1.16,1.65.42.14.71.31,1,.31,1.44.03,2.89.02,4.33.02,6.74,0,13.48,0,20.22,0,.75,0,1.5,0,2.13,0,.21.24.38.34.38.45.01,3.16.01,6.31.01,9.43-.45.55-1.03.42-1.56.42-5.85,0-11.7.15-17.53-.03-7.01-.22-14.02-.05-21.03-.15-.74,0-1.49-.05-2.35-.08-.06-.49-.14-.88-.15-1.27-.01-2.13.03-4.26-.03-6.39-.03-1.09.31-1.95.97-2.83,8.28-10.98,16.51-21.98,24.76-32.98,1.28-1.71,2.46-3.47,3.4-5.4.95-1.93,1.57-3.95,1.89-6.07.27-1.8.09-3.57-.5-5.28-1-2.93-3.14-4.62-6.06-5.33-1.87-.45-3.77-.55-5.72-.18-3.46.66-5.85,2.59-7.31,5.72-.4.86-.62,1.81-.9,2.73-.16.52-.28,1.05-.44,1.67-1.24.31-2.48.13-3.69.16-1.17.03-2.34.04-3.51,0-1.21-.05-2.45.23-3.79-.27Z"/>
      <path class="cls-1" d="M455.57,371.31c-.03-.44-.08-.9-.08-1.37,0-1.86.04-3.72-.02-5.57-.05-1.34.24-2.55.81-3.77,2.75-5.84,5.45-11.71,8.17-17.57,5.17-11.16,10.35-22.31,15.52-33.47.29-.62.61-1.21.93-1.85,1.22-.2,2.39-.09,3.55-.1,1.24-.02,2.48-.02,3.72,0,1.15.02,2.3-.1,3.47.1.13.85-.33,1.41-.6,2.02-1.82,4-3.65,8-5.47,12-5.8,12.69-11.6,25.37-17.39,38.06-.25.54-.45,1.11-.68,1.7,1.88.27,18.56.26,20.35,0,.34-.61.19-1.31.19-1.98.01-6.05,0-12.11,0-18.16v-2.33c1.8-.49,3.51-.19,5.2-.25,1.64-.05,3.29-.01,4.82-.01.67.71.47,1.43.47,2.09.02,4.95,0,9.91,0,14.86,0,1.44,0,2.89,0,4.33,0,.47.08.94.13,1.47,1.74.38,3.47,0,5.24.26.09.24.26.49.26.73.01,2.82,0,5.64-.01,8.46,0,.12-.09.24-.2.5-1.61.33-3.34-.03-4.98.2-.56.44-.43,1.02-.43,1.55-.02,2.55,0,5.09,0,7.64,0,.68,0,1.36,0,2.04-1.21.66-2.4.31-3.53.37-1.1.06-2.2.03-3.3,0-1.15-.02-2.31.1-3.55-.16-.22-1.3-.09-2.54-.11-3.76-.02-1.24,0-2.48,0-3.71s0-2.47,0-3.59c-.62-.63-1.27-.44-1.87-.44-5.37-.02-10.73,0-16.1,0-4.13,0-8.26,0-12.38,0-.67,0-1.37.15-2.12-.27Z"/>
    </g>
  </g>
</svg>