<svg id="canvas" height="auto" xmlns="http://www.w3.org/2000/svg" version="1.1"
     viewBox="0 0 1920 1080"
     width="auto" style="width: auto; height: auto;">
    <rect width="1920" height="1080" fill="#13101b"/>
    <line x1="0" y1="0" x2="101.05263157894737" y2="101.05263157894737" stroke-linecap="square" stroke-width="3"
          stroke="#1b1628"/>
    <line x1="101.05263157894737" y1="0" x2="202.10526315789474" y2="101.05263157894737" stroke-linecap="square"
          stroke-width="3" stroke="#1c162f"/>
    <line x1="202.10526315789474" y1="0" x2="303.1578947368421" y2="101.05263157894737" stroke-linecap="square"
          stroke-width="3" stroke="#1e1536"/>
    <line x1="303.1578947368421" y1="101.05263157894737" x2="404.2105263157895" y2="0" stroke-linecap="square"
          stroke-width="3" stroke="#20153c"/>
    <line x1="404.2105263157895" y1="0" x2="505.2631578947369" y2="101.05263157894737" stroke-linecap="square"
          stroke-width="3" stroke="#221443"/>
    <line x1="505.2631578947369" y1="0" x2="606.3157894736843" y2="101.05263157894737" stroke-linecap="square"
          stroke-width="3" stroke="#23144a"/>
    <line x1="606.3157894736843" y1="0" x2="707.3684210526317" y2="101.05263157894737" stroke-linecap="square"
          stroke-width="3" stroke="#251351"/>
    <line x1="707.3684210526317" y1="101.05263157894737" x2="808.4210526315791" y2="0" stroke-linecap="square"
          stroke-width="3" stroke="#271258"/>
    <line x1="808.4210526315791" y1="0" x2="909.4736842105265" y2="101.05263157894737" stroke-linecap="square"
          stroke-width="3" stroke="#29125f"/>
    <line x1="909.4736842105265" y1="101.05263157894737" x2="1010.5263157894739" y2="0" stroke-linecap="square"
          stroke-width="3" stroke="#2a1165"/>
    <line x1="1010.5263157894739" y1="0" x2="1111.5789473684213" y2="101.05263157894737" stroke-linecap="square"
          stroke-width="3" stroke="#2c116c"/>
    <line x1="1111.5789473684213" y1="101.05263157894737" x2="1212.6315789473686" y2="0" stroke-linecap="square"
          stroke-width="3" stroke="#2e1073"/>
    <line x1="1212.6315789473686" y1="101.05263157894737" x2="1313.6842105263158" y2="0" stroke-linecap="square"
          stroke-width="3" stroke="#300f7a"/>
    <line x1="1313.6842105263158" y1="101.05263157894737" x2="1414.7368421052631" y2="0" stroke-linecap="square"
          stroke-width="3" stroke="#310f81"/>
    <line x1="1414.7368421052631" y1="0" x2="1515.7894736842104" y2="101.05263157894737" stroke-linecap="square"
          stroke-width="3" stroke="#330e88"/>
    <line x1="1515.7894736842104" y1="101.05263157894737" x2="1616.8421052631577" y2="0" stroke-linecap="square"
          stroke-width="3" stroke="#350e8e"/>
    <line x1="1616.8421052631577" y1="0" x2="1717.894736842105" y2="101.05263157894737" stroke-linecap="square"
          stroke-width="3" stroke="#370d95"/>
    <line x1="1717.894736842105" y1="0" x2="1818.9473684210523" y2="101.05263157894737" stroke-linecap="square"
          stroke-width="3" stroke="#380d9c"/>
    <line x1="1818.9473684210523" y1="101.05263157894737" x2="1919.9999999999995" y2="0" stroke-linecap="square"
          stroke-width="3" stroke="#3a0ca3"/>
    <line x1="1919.9999999999995" y1="0" x2="2021.0526315789468" y2="101.05263157894737" stroke-linecap="square"
          stroke-width="3"/>
    <line x1="0" y1="202.10526315789474" x2="101.05263157894737" y2="101.05263157894737" stroke-linecap="square"
          stroke-width="3" stroke="#1b1628"/>
    <line x1="101.05263157894737" y1="202.10526315789474" x2="202.10526315789474" y2="101.05263157894737"
          stroke-linecap="square" stroke-width="3" stroke="#1c162f"/>
    <line x1="202.10526315789474" y1="101.05263157894737" x2="303.1578947368421" y2="202.10526315789474"
          stroke-linecap="square" stroke-width="3" stroke="#1e1536"/>
    <line x1="303.1578947368421" y1="202.10526315789474" x2="404.2105263157895" y2="101.05263157894737"
          stroke-linecap="square" stroke-width="3" stroke="#20153c"/>
    <line x1="404.2105263157895" y1="101.05263157894737" x2="505.2631578947369" y2="202.10526315789474"
          stroke-linecap="square" stroke-width="3" stroke="#221443"/>
    <line x1="505.2631578947369" y1="202.10526315789474" x2="606.3157894736843" y2="101.05263157894737"
          stroke-linecap="square" stroke-width="3" stroke="#23144a"/>
    <line x1="606.3157894736843" y1="202.10526315789474" x2="707.3684210526317" y2="101.05263157894737"
          stroke-linecap="square" stroke-width="3" stroke="#251351"/>
    <line x1="707.3684210526317" y1="101.05263157894737" x2="808.4210526315791" y2="202.10526315789474"
          stroke-linecap="square" stroke-width="3" stroke="#271258"/>
    <line x1="808.4210526315791" y1="202.10526315789474" x2="909.4736842105265" y2="101.05263157894737"
          stroke-linecap="square" stroke-width="3" stroke="#29125f"/>
    <line x1="909.4736842105265" y1="101.05263157894737" x2="1010.5263157894739" y2="202.10526315789474"
          stroke-linecap="square" stroke-width="3" stroke="#2a1165"/>
    <line x1="1010.5263157894739" y1="202.10526315789474" x2="1111.5789473684213" y2="101.05263157894737"
          stroke-linecap="square" stroke-width="3" stroke="#2c116c"/>
    <line x1="1111.5789473684213" y1="202.10526315789474" x2="1212.6315789473686" y2="101.05263157894737"
          stroke-linecap="square" stroke-width="3" stroke="#2e1073"/>
    <line x1="1212.6315789473686" y1="202.10526315789474" x2="1313.6842105263158" y2="101.05263157894737"
          stroke-linecap="square" stroke-width="3" stroke="#300f7a"/>
    <line x1="1313.6842105263158" y1="202.10526315789474" x2="1414.7368421052631" y2="101.05263157894737"
          stroke-linecap="square" stroke-width="3" stroke="#310f81"/>
    <line x1="1414.7368421052631" y1="202.10526315789474" x2="1515.7894736842104" y2="101.05263157894737"
          stroke-linecap="square" stroke-width="3" stroke="#330e88"/>
    <line x1="1515.7894736842104" y1="202.10526315789474" x2="1616.8421052631577" y2="101.05263157894737"
          stroke-linecap="square" stroke-width="3" stroke="#350e8e"/>
    <line x1="1616.8421052631577" y1="101.05263157894737" x2="1717.894736842105" y2="202.10526315789474"
          stroke-linecap="square" stroke-width="3" stroke="#370d95"/>
    <line x1="1717.894736842105" y1="202.10526315789474" x2="1818.9473684210523" y2="101.05263157894737"
          stroke-linecap="square" stroke-width="3" stroke="#380d9c"/>
    <line x1="1818.9473684210523" y1="202.10526315789474" x2="1919.9999999999995" y2="101.05263157894737"
          stroke-linecap="square" stroke-width="3" stroke="#3a0ca3"/>
    <line x1="1919.9999999999995" y1="101.05263157894737" x2="2021.0526315789468" y2="202.10526315789474"
          stroke-linecap="square" stroke-width="3"/>
    <line x1="0" y1="202.10526315789474" x2="101.05263157894737" y2="303.1578947368421" stroke-linecap="square"
          stroke-width="3" stroke="#1b1628"/>
    <line x1="101.05263157894737" y1="202.10526315789474" x2="202.10526315789474" y2="303.1578947368421"
          stroke-linecap="square" stroke-width="3" stroke="#1c162f"/>
    <line x1="202.10526315789474" y1="202.10526315789474" x2="303.1578947368421" y2="303.1578947368421"
          stroke-linecap="square" stroke-width="3" stroke="#1e1536"/>
    <line x1="303.1578947368421" y1="202.10526315789474" x2="404.2105263157895" y2="303.1578947368421"
          stroke-linecap="square" stroke-width="3" stroke="#20153c"/>
    <line x1="404.2105263157895" y1="303.1578947368421" x2="505.2631578947369" y2="202.10526315789474"
          stroke-linecap="square" stroke-width="3" stroke="#221443"/>
    <line x1="505.2631578947369" y1="303.1578947368421" x2="606.3157894736843" y2="202.10526315789474"
          stroke-linecap="square" stroke-width="3" stroke="#23144a"/>
    <line x1="606.3157894736843" y1="202.10526315789474" x2="707.3684210526317" y2="303.1578947368421"
          stroke-linecap="square" stroke-width="3" stroke="#251351"/>
    <line x1="707.3684210526317" y1="303.1578947368421" x2="808.4210526315791" y2="202.10526315789474"
          stroke-linecap="square" stroke-width="3" stroke="#271258"/>
    <line x1="808.4210526315791" y1="202.10526315789474" x2="909.4736842105265" y2="303.1578947368421"
          stroke-linecap="square" stroke-width="3" stroke="#29125f"/>
    <line x1="909.4736842105265" y1="303.1578947368421" x2="1010.5263157894739" y2="202.10526315789474"
          stroke-linecap="square" stroke-width="3" stroke="#2a1165"/>
    <line x1="1010.5263157894739" y1="303.1578947368421" x2="1111.5789473684213" y2="202.10526315789474"
          stroke-linecap="square" stroke-width="3" stroke="#2c116c"/>
    <line x1="1111.5789473684213" y1="303.1578947368421" x2="1212.6315789473686" y2="202.10526315789474"
          stroke-linecap="square" stroke-width="3" stroke="#2e1073"/>
    <line x1="1212.6315789473686" y1="202.10526315789474" x2="1313.6842105263158" y2="303.1578947368421"
          stroke-linecap="square" stroke-width="3" stroke="#300f7a"/>
    <line x1="1313.6842105263158" y1="202.10526315789474" x2="1414.7368421052631" y2="303.1578947368421"
          stroke-linecap="square" stroke-width="3" stroke="#310f81"/>
    <line x1="1414.7368421052631" y1="303.1578947368421" x2="1515.7894736842104" y2="202.10526315789474"
          stroke-linecap="square" stroke-width="3" stroke="#330e88"/>
    <line x1="1515.7894736842104" y1="303.1578947368421" x2="1616.8421052631577" y2="202.10526315789474"
          stroke-linecap="square" stroke-width="3" stroke="#350e8e"/>
    <line x1="1616.8421052631577" y1="303.1578947368421" x2="1717.894736842105" y2="202.10526315789474"
          stroke-linecap="square" stroke-width="3" stroke="#370d95"/>
    <line x1="1717.894736842105" y1="202.10526315789474" x2="1818.9473684210523" y2="303.1578947368421"
          stroke-linecap="square" stroke-width="3" stroke="#380d9c"/>
    <line x1="1818.9473684210523" y1="202.10526315789474" x2="1919.9999999999995" y2="303.1578947368421"
          stroke-linecap="square" stroke-width="3" stroke="#3a0ca3"/>
    <line x1="1919.9999999999995" y1="303.1578947368421" x2="2021.0526315789468" y2="202.10526315789474"
          stroke-linecap="square" stroke-width="3"/>
    <line x1="0" y1="404.2105263157895" x2="101.05263157894737" y2="303.1578947368421" stroke-linecap="square"
          stroke-width="3" stroke="#1b1628"/>
    <line x1="101.05263157894737" y1="404.2105263157895" x2="202.10526315789474" y2="303.1578947368421"
          stroke-linecap="square" stroke-width="3" stroke="#1c162f"/>
    <line x1="202.10526315789474" y1="303.1578947368421" x2="303.1578947368421" y2="404.2105263157895"
          stroke-linecap="square" stroke-width="3" stroke="#1e1536"/>
    <line x1="303.1578947368421" y1="404.2105263157895" x2="404.2105263157895" y2="303.1578947368421"
          stroke-linecap="square" stroke-width="3" stroke="#20153c"/>
    <line x1="404.2105263157895" y1="404.2105263157895" x2="505.2631578947369" y2="303.1578947368421"
          stroke-linecap="square" stroke-width="3" stroke="#221443"/>
    <line x1="505.2631578947369" y1="404.2105263157895" x2="606.3157894736843" y2="303.1578947368421"
          stroke-linecap="square" stroke-width="3" stroke="#23144a"/>
    <line x1="606.3157894736843" y1="404.2105263157895" x2="707.3684210526317" y2="303.1578947368421"
          stroke-linecap="square" stroke-width="3" stroke="#251351"/>
    <line x1="707.3684210526317" y1="404.2105263157895" x2="808.4210526315791" y2="303.1578947368421"
          stroke-linecap="square" stroke-width="3" stroke="#271258"/>
    <line x1="808.4210526315791" y1="404.2105263157895" x2="909.4736842105265" y2="303.1578947368421"
          stroke-linecap="square" stroke-width="3" stroke="#29125f"/>
    <line x1="909.4736842105265" y1="404.2105263157895" x2="1010.5263157894739" y2="303.1578947368421"
          stroke-linecap="square" stroke-width="3" stroke="#2a1165"/>
    <line x1="1010.5263157894739" y1="303.1578947368421" x2="1111.5789473684213" y2="404.2105263157895"
          stroke-linecap="square" stroke-width="3" stroke="#2c116c"/>
    <line x1="1111.5789473684213" y1="303.1578947368421" x2="1212.6315789473686" y2="404.2105263157895"
          stroke-linecap="square" stroke-width="3" stroke="#2e1073"/>
    <line x1="1212.6315789473686" y1="303.1578947368421" x2="1313.6842105263158" y2="404.2105263157895"
          stroke-linecap="square" stroke-width="3" stroke="#300f7a"/>
    <line x1="1313.6842105263158" y1="404.2105263157895" x2="1414.7368421052631" y2="303.1578947368421"
          stroke-linecap="square" stroke-width="3" stroke="#310f81"/>
    <line x1="1414.7368421052631" y1="404.2105263157895" x2="1515.7894736842104" y2="303.1578947368421"
          stroke-linecap="square" stroke-width="3" stroke="#330e88"/>
    <line x1="1515.7894736842104" y1="404.2105263157895" x2="1616.8421052631577" y2="303.1578947368421"
          stroke-linecap="square" stroke-width="3" stroke="#350e8e"/>
    <line x1="1616.8421052631577" y1="303.1578947368421" x2="1717.894736842105" y2="404.2105263157895"
          stroke-linecap="square" stroke-width="3" stroke="#370d95"/>
    <line x1="1717.894736842105" y1="303.1578947368421" x2="1818.9473684210523" y2="404.2105263157895"
          stroke-linecap="square" stroke-width="3" stroke="#380d9c"/>
    <line x1="1818.9473684210523" y1="404.2105263157895" x2="1919.9999999999995" y2="303.1578947368421"
          stroke-linecap="square" stroke-width="3" stroke="#3a0ca3"/>
    <line x1="1919.9999999999995" y1="404.2105263157895" x2="2021.0526315789468" y2="303.1578947368421"
          stroke-linecap="square" stroke-width="3"/>
    <line x1="0" y1="505.2631578947369" x2="101.05263157894737" y2="404.2105263157895" stroke-linecap="square"
          stroke-width="3" stroke="#1b1628"/>
    <line x1="101.05263157894737" y1="505.2631578947369" x2="202.10526315789474" y2="404.2105263157895"
          stroke-linecap="square" stroke-width="3" stroke="#1c162f"/>
    <line x1="202.10526315789474" y1="505.2631578947369" x2="303.1578947368421" y2="404.2105263157895"
          stroke-linecap="square" stroke-width="3" stroke="#1e1536"/>
    <line x1="303.1578947368421" y1="404.2105263157895" x2="404.2105263157895" y2="505.2631578947369"
          stroke-linecap="square" stroke-width="3" stroke="#20153c"/>
    <line x1="404.2105263157895" y1="404.2105263157895" x2="505.2631578947369" y2="505.2631578947369"
          stroke-linecap="square" stroke-width="3" stroke="#221443"/>
    <line x1="505.2631578947369" y1="404.2105263157895" x2="606.3157894736843" y2="505.2631578947369"
          stroke-linecap="square" stroke-width="3" stroke="#23144a"/>
    <line x1="606.3157894736843" y1="404.2105263157895" x2="707.3684210526317" y2="505.2631578947369"
          stroke-linecap="square" stroke-width="3" stroke="#251351"/>
    <line x1="707.3684210526317" y1="505.2631578947369" x2="808.4210526315791" y2="404.2105263157895"
          stroke-linecap="square" stroke-width="3" stroke="#271258"/>
    <line x1="808.4210526315791" y1="505.2631578947369" x2="909.4736842105265" y2="404.2105263157895"
          stroke-linecap="square" stroke-width="3" stroke="#29125f"/>
    <line x1="909.4736842105265" y1="404.2105263157895" x2="1010.5263157894739" y2="505.2631578947369"
          stroke-linecap="square" stroke-width="3" stroke="#2a1165"/>
    <line x1="1010.5263157894739" y1="505.2631578947369" x2="1111.5789473684213" y2="404.2105263157895"
          stroke-linecap="square" stroke-width="3" stroke="#2c116c"/>
    <line x1="1111.5789473684213" y1="505.2631578947369" x2="1212.6315789473686" y2="404.2105263157895"
          stroke-linecap="square" stroke-width="3" stroke="#2e1073"/>
    <line x1="1212.6315789473686" y1="404.2105263157895" x2="1313.6842105263158" y2="505.2631578947369"
          stroke-linecap="square" stroke-width="3" stroke="#300f7a"/>
    <line x1="1313.6842105263158" y1="404.2105263157895" x2="1414.7368421052631" y2="505.2631578947369"
          stroke-linecap="square" stroke-width="3" stroke="#310f81"/>
    <line x1="1414.7368421052631" y1="404.2105263157895" x2="1515.7894736842104" y2="505.2631578947369"
          stroke-linecap="square" stroke-width="3" stroke="#330e88"/>
    <line x1="1515.7894736842104" y1="505.2631578947369" x2="1616.8421052631577" y2="404.2105263157895"
          stroke-linecap="square" stroke-width="3" stroke="#350e8e"/>
    <line x1="1616.8421052631577" y1="404.2105263157895" x2="1717.894736842105" y2="505.2631578947369"
          stroke-linecap="square" stroke-width="3" stroke="#370d95"/>
    <line x1="1717.894736842105" y1="404.2105263157895" x2="1818.9473684210523" y2="505.2631578947369"
          stroke-linecap="square" stroke-width="3" stroke="#380d9c"/>
    <line x1="1818.9473684210523" y1="505.2631578947369" x2="1919.9999999999995" y2="404.2105263157895"
          stroke-linecap="square" stroke-width="3" stroke="#3a0ca3"/>
    <line x1="1919.9999999999995" y1="404.2105263157895" x2="2021.0526315789468" y2="505.2631578947369"
          stroke-linecap="square" stroke-width="3"/>
    <line x1="0" y1="505.2631578947369" x2="101.05263157894737" y2="606.3157894736843" stroke-linecap="square"
          stroke-width="3" stroke="#1b1628"/>
    <line x1="101.05263157894737" y1="606.3157894736843" x2="202.10526315789474" y2="505.2631578947369"
          stroke-linecap="square" stroke-width="3" stroke="#1c162f"/>
    <line x1="202.10526315789474" y1="606.3157894736843" x2="303.1578947368421" y2="505.2631578947369"
          stroke-linecap="square" stroke-width="3" stroke="#1e1536"/>
    <line x1="303.1578947368421" y1="606.3157894736843" x2="404.2105263157895" y2="505.2631578947369"
          stroke-linecap="square" stroke-width="3" stroke="#20153c"/>
    <line x1="404.2105263157895" y1="505.2631578947369" x2="505.2631578947369" y2="606.3157894736843"
          stroke-linecap="square" stroke-width="3" stroke="#221443"/>
    <line x1="505.2631578947369" y1="606.3157894736843" x2="606.3157894736843" y2="505.2631578947369"
          stroke-linecap="square" stroke-width="3" stroke="#23144a"/>
    <line x1="606.3157894736843" y1="606.3157894736843" x2="707.3684210526317" y2="505.2631578947369"
          stroke-linecap="square" stroke-width="3" stroke="#251351"/>
    <line x1="707.3684210526317" y1="606.3157894736843" x2="808.4210526315791" y2="505.2631578947369"
          stroke-linecap="square" stroke-width="3" stroke="#271258"/>
    <line x1="808.4210526315791" y1="606.3157894736843" x2="909.4736842105265" y2="505.2631578947369"
          stroke-linecap="square" stroke-width="3" stroke="#29125f"/>
    <line x1="909.4736842105265" y1="606.3157894736843" x2="1010.5263157894739" y2="505.2631578947369"
          stroke-linecap="square" stroke-width="3" stroke="#2a1165"/>
    <line x1="1010.5263157894739" y1="606.3157894736843" x2="1111.5789473684213" y2="505.2631578947369"
          stroke-linecap="square" stroke-width="3" stroke="#2c116c"/>
    <line x1="1111.5789473684213" y1="505.2631578947369" x2="1212.6315789473686" y2="606.3157894736843"
          stroke-linecap="square" stroke-width="3" stroke="#2e1073"/>
    <line x1="1212.6315789473686" y1="505.2631578947369" x2="1313.6842105263158" y2="606.3157894736843"
          stroke-linecap="square" stroke-width="3" stroke="#300f7a"/>
    <line x1="1313.6842105263158" y1="505.2631578947369" x2="1414.7368421052631" y2="606.3157894736843"
          stroke-linecap="square" stroke-width="3" stroke="#310f81"/>
    <line x1="1414.7368421052631" y1="505.2631578947369" x2="1515.7894736842104" y2="606.3157894736843"
          stroke-linecap="square" stroke-width="3" stroke="#330e88"/>
    <line x1="1515.7894736842104" y1="505.2631578947369" x2="1616.8421052631577" y2="606.3157894736843"
          stroke-linecap="square" stroke-width="3" stroke="#350e8e"/>
    <line x1="1616.8421052631577" y1="505.2631578947369" x2="1717.894736842105" y2="606.3157894736843"
          stroke-linecap="square" stroke-width="3" stroke="#370d95"/>
    <line x1="1717.894736842105" y1="606.3157894736843" x2="1818.9473684210523" y2="505.2631578947369"
          stroke-linecap="square" stroke-width="3" stroke="#380d9c"/>
    <line x1="1818.9473684210523" y1="606.3157894736843" x2="1919.9999999999995" y2="505.2631578947369"
          stroke-linecap="square" stroke-width="3" stroke="#3a0ca3"/>
    <line x1="1919.9999999999995" y1="505.2631578947369" x2="2021.0526315789468" y2="606.3157894736843"
          stroke-linecap="square" stroke-width="3"/>
    <line x1="0" y1="707.3684210526317" x2="101.05263157894737" y2="606.3157894736843" stroke-linecap="square"
          stroke-width="3" stroke="#1b1628"/>
    <line x1="101.05263157894737" y1="707.3684210526317" x2="202.10526315789474" y2="606.3157894736843"
          stroke-linecap="square" stroke-width="3" stroke="#1c162f"/>
    <line x1="202.10526315789474" y1="707.3684210526317" x2="303.1578947368421" y2="606.3157894736843"
          stroke-linecap="square" stroke-width="3" stroke="#1e1536"/>
    <line x1="303.1578947368421" y1="606.3157894736843" x2="404.2105263157895" y2="707.3684210526317"
          stroke-linecap="square" stroke-width="3" stroke="#20153c"/>
    <line x1="404.2105263157895" y1="606.3157894736843" x2="505.2631578947369" y2="707.3684210526317"
          stroke-linecap="square" stroke-width="3" stroke="#221443"/>
    <line x1="505.2631578947369" y1="707.3684210526317" x2="606.3157894736843" y2="606.3157894736843"
          stroke-linecap="square" stroke-width="3" stroke="#23144a"/>
    <line x1="606.3157894736843" y1="606.3157894736843" x2="707.3684210526317" y2="707.3684210526317"
          stroke-linecap="square" stroke-width="3" stroke="#251351"/>
    <line x1="707.3684210526317" y1="606.3157894736843" x2="808.4210526315791" y2="707.3684210526317"
          stroke-linecap="square" stroke-width="3" stroke="#271258"/>
    <line x1="808.4210526315791" y1="606.3157894736843" x2="909.4736842105265" y2="707.3684210526317"
          stroke-linecap="square" stroke-width="3" stroke="#29125f"/>
    <line x1="909.4736842105265" y1="606.3157894736843" x2="1010.5263157894739" y2="707.3684210526317"
          stroke-linecap="square" stroke-width="3" stroke="#2a1165"/>
    <line x1="1010.5263157894739" y1="707.3684210526317" x2="1111.5789473684213" y2="606.3157894736843"
          stroke-linecap="square" stroke-width="3" stroke="#2c116c"/>
    <line x1="1111.5789473684213" y1="606.3157894736843" x2="1212.6315789473686" y2="707.3684210526317"
          stroke-linecap="square" stroke-width="3" stroke="#2e1073"/>
    <line x1="1212.6315789473686" y1="606.3157894736843" x2="1313.6842105263158" y2="707.3684210526317"
          stroke-linecap="square" stroke-width="3" stroke="#300f7a"/>
    <line x1="1313.6842105263158" y1="606.3157894736843" x2="1414.7368421052631" y2="707.3684210526317"
          stroke-linecap="square" stroke-width="3" stroke="#310f81"/>
    <line x1="1414.7368421052631" y1="707.3684210526317" x2="1515.7894736842104" y2="606.3157894736843"
          stroke-linecap="square" stroke-width="3" stroke="#330e88"/>
    <line x1="1515.7894736842104" y1="707.3684210526317" x2="1616.8421052631577" y2="606.3157894736843"
          stroke-linecap="square" stroke-width="3" stroke="#350e8e"/>
    <line x1="1616.8421052631577" y1="606.3157894736843" x2="1717.894736842105" y2="707.3684210526317"
          stroke-linecap="square" stroke-width="3" stroke="#370d95"/>
    <line x1="1717.894736842105" y1="707.3684210526317" x2="1818.9473684210523" y2="606.3157894736843"
          stroke-linecap="square" stroke-width="3" stroke="#380d9c"/>
    <line x1="1818.9473684210523" y1="707.3684210526317" x2="1919.9999999999995" y2="606.3157894736843"
          stroke-linecap="square" stroke-width="3" stroke="#3a0ca3"/>
    <line x1="1919.9999999999995" y1="606.3157894736843" x2="2021.0526315789468" y2="707.3684210526317"
          stroke-linecap="square" stroke-width="3"/>
    <line x1="0" y1="808.4210526315791" x2="101.05263157894737" y2="707.3684210526317" stroke-linecap="square"
          stroke-width="3" stroke="#1b1628"/>
    <line x1="101.05263157894737" y1="808.4210526315791" x2="202.10526315789474" y2="707.3684210526317"
          stroke-linecap="square" stroke-width="3" stroke="#1c162f"/>
    <line x1="202.10526315789474" y1="707.3684210526317" x2="303.1578947368421" y2="808.4210526315791"
          stroke-linecap="square" stroke-width="3" stroke="#1e1536"/>
    <line x1="303.1578947368421" y1="808.4210526315791" x2="404.2105263157895" y2="707.3684210526317"
          stroke-linecap="square" stroke-width="3" stroke="#20153c"/>
    <line x1="404.2105263157895" y1="707.3684210526317" x2="505.2631578947369" y2="808.4210526315791"
          stroke-linecap="square" stroke-width="3" stroke="#221443"/>
    <line x1="505.2631578947369" y1="707.3684210526317" x2="606.3157894736843" y2="808.4210526315791"
          stroke-linecap="square" stroke-width="3" stroke="#23144a"/>
    <line x1="606.3157894736843" y1="808.4210526315791" x2="707.3684210526317" y2="707.3684210526317"
          stroke-linecap="square" stroke-width="3" stroke="#251351"/>
    <line x1="707.3684210526317" y1="808.4210526315791" x2="808.4210526315791" y2="707.3684210526317"
          stroke-linecap="square" stroke-width="3" stroke="#271258"/>
    <line x1="808.4210526315791" y1="707.3684210526317" x2="909.4736842105265" y2="808.4210526315791"
          stroke-linecap="square" stroke-width="3" stroke="#29125f"/>
    <line x1="909.4736842105265" y1="808.4210526315791" x2="1010.5263157894739" y2="707.3684210526317"
          stroke-linecap="square" stroke-width="3" stroke="#2a1165"/>
    <line x1="1010.5263157894739" y1="808.4210526315791" x2="1111.5789473684213" y2="707.3684210526317"
          stroke-linecap="square" stroke-width="3" stroke="#2c116c"/>
    <line x1="1111.5789473684213" y1="707.3684210526317" x2="1212.6315789473686" y2="808.4210526315791"
          stroke-linecap="square" stroke-width="3" stroke="#2e1073"/>
    <line x1="1212.6315789473686" y1="707.3684210526317" x2="1313.6842105263158" y2="808.4210526315791"
          stroke-linecap="square" stroke-width="3" stroke="#300f7a"/>
    <line x1="1313.6842105263158" y1="808.4210526315791" x2="1414.7368421052631" y2="707.3684210526317"
          stroke-linecap="square" stroke-width="3" stroke="#310f81"/>
    <line x1="1414.7368421052631" y1="808.4210526315791" x2="1515.7894736842104" y2="707.3684210526317"
          stroke-linecap="square" stroke-width="3" stroke="#330e88"/>
    <line x1="1515.7894736842104" y1="707.3684210526317" x2="1616.8421052631577" y2="808.4210526315791"
          stroke-linecap="square" stroke-width="3" stroke="#350e8e"/>
    <line x1="1616.8421052631577" y1="808.4210526315791" x2="1717.894736842105" y2="707.3684210526317"
          stroke-linecap="square" stroke-width="3" stroke="#370d95"/>
    <line x1="1717.894736842105" y1="707.3684210526317" x2="1818.9473684210523" y2="808.4210526315791"
          stroke-linecap="square" stroke-width="3" stroke="#380d9c"/>
    <line x1="1818.9473684210523" y1="707.3684210526317" x2="1919.9999999999995" y2="808.4210526315791"
          stroke-linecap="square" stroke-width="3" stroke="#3a0ca3"/>
    <line x1="1919.9999999999995" y1="808.4210526315791" x2="2021.0526315789468" y2="707.3684210526317"
          stroke-linecap="square" stroke-width="3"/>
    <line x1="0" y1="909.4736842105265" x2="101.05263157894737" y2="808.4210526315791" stroke-linecap="square"
          stroke-width="3" stroke="#1b1628"/>
    <line x1="101.05263157894737" y1="909.4736842105265" x2="202.10526315789474" y2="808.4210526315791"
          stroke-linecap="square" stroke-width="3" stroke="#1c162f"/>
    <line x1="202.10526315789474" y1="808.4210526315791" x2="303.1578947368421" y2="909.4736842105265"
          stroke-linecap="square" stroke-width="3" stroke="#1e1536"/>
    <line x1="303.1578947368421" y1="808.4210526315791" x2="404.2105263157895" y2="909.4736842105265"
          stroke-linecap="square" stroke-width="3" stroke="#20153c"/>
    <line x1="404.2105263157895" y1="909.4736842105265" x2="505.2631578947369" y2="808.4210526315791"
          stroke-linecap="square" stroke-width="3" stroke="#221443"/>
    <line x1="505.2631578947369" y1="909.4736842105265" x2="606.3157894736843" y2="808.4210526315791"
          stroke-linecap="square" stroke-width="3" stroke="#23144a"/>
    <line x1="606.3157894736843" y1="808.4210526315791" x2="707.3684210526317" y2="909.4736842105265"
          stroke-linecap="square" stroke-width="3" stroke="#251351"/>
    <line x1="707.3684210526317" y1="808.4210526315791" x2="808.4210526315791" y2="909.4736842105265"
          stroke-linecap="square" stroke-width="3" stroke="#271258"/>
    <line x1="808.4210526315791" y1="808.4210526315791" x2="909.4736842105265" y2="909.4736842105265"
          stroke-linecap="square" stroke-width="3" stroke="#29125f"/>
    <line x1="909.4736842105265" y1="808.4210526315791" x2="1010.5263157894739" y2="909.4736842105265"
          stroke-linecap="square" stroke-width="3" stroke="#2a1165"/>
    <line x1="1010.5263157894739" y1="808.4210526315791" x2="1111.5789473684213" y2="909.4736842105265"
          stroke-linecap="square" stroke-width="3" stroke="#2c116c"/>
    <line x1="1111.5789473684213" y1="808.4210526315791" x2="1212.6315789473686" y2="909.4736842105265"
          stroke-linecap="square" stroke-width="3" stroke="#2e1073"/>
    <line x1="1212.6315789473686" y1="909.4736842105265" x2="1313.6842105263158" y2="808.4210526315791"
          stroke-linecap="square" stroke-width="3" stroke="#300f7a"/>
    <line x1="1313.6842105263158" y1="909.4736842105265" x2="1414.7368421052631" y2="808.4210526315791"
          stroke-linecap="square" stroke-width="3" stroke="#310f81"/>
    <line x1="1414.7368421052631" y1="909.4736842105265" x2="1515.7894736842104" y2="808.4210526315791"
          stroke-linecap="square" stroke-width="3" stroke="#330e88"/>
    <line x1="1515.7894736842104" y1="909.4736842105265" x2="1616.8421052631577" y2="808.4210526315791"
          stroke-linecap="square" stroke-width="3" stroke="#350e8e"/>
    <line x1="1616.8421052631577" y1="808.4210526315791" x2="1717.894736842105" y2="909.4736842105265"
          stroke-linecap="square" stroke-width="3" stroke="#370d95"/>
    <line x1="1717.894736842105" y1="909.4736842105265" x2="1818.9473684210523" y2="808.4210526315791"
          stroke-linecap="square" stroke-width="3" stroke="#380d9c"/>
    <line x1="1818.9473684210523" y1="909.4736842105265" x2="1919.9999999999995" y2="808.4210526315791"
          stroke-linecap="square" stroke-width="3" stroke="#3a0ca3"/>
    <line x1="1919.9999999999995" y1="808.4210526315791" x2="2021.0526315789468" y2="909.4736842105265"
          stroke-linecap="square" stroke-width="3"/>
    <line x1="0" y1="909.4736842105265" x2="101.05263157894737" y2="1010.5263157894739" stroke-linecap="square"
          stroke-width="3" stroke="#1b1628"/>
    <line x1="101.05263157894737" y1="1010.5263157894739" x2="202.10526315789474" y2="909.4736842105265"
          stroke-linecap="square" stroke-width="3" stroke="#1c162f"/>
    <line x1="202.10526315789474" y1="909.4736842105265" x2="303.1578947368421" y2="1010.5263157894739"
          stroke-linecap="square" stroke-width="3" stroke="#1e1536"/>
    <line x1="303.1578947368421" y1="1010.5263157894739" x2="404.2105263157895" y2="909.4736842105265"
          stroke-linecap="square" stroke-width="3" stroke="#20153c"/>
    <line x1="404.2105263157895" y1="909.4736842105265" x2="505.2631578947369" y2="1010.5263157894739"
          stroke-linecap="square" stroke-width="3" stroke="#221443"/>
    <line x1="505.2631578947369" y1="1010.5263157894739" x2="606.3157894736843" y2="909.4736842105265"
          stroke-linecap="square" stroke-width="3" stroke="#23144a"/>
    <line x1="606.3157894736843" y1="1010.5263157894739" x2="707.3684210526317" y2="909.4736842105265"
          stroke-linecap="square" stroke-width="3" stroke="#251351"/>
    <line x1="707.3684210526317" y1="909.4736842105265" x2="808.4210526315791" y2="1010.5263157894739"
          stroke-linecap="square" stroke-width="3" stroke="#271258"/>
    <line x1="808.4210526315791" y1="909.4736842105265" x2="909.4736842105265" y2="1010.5263157894739"
          stroke-linecap="square" stroke-width="3" stroke="#29125f"/>
    <line x1="909.4736842105265" y1="1010.5263157894739" x2="1010.5263157894739" y2="909.4736842105265"
          stroke-linecap="square" stroke-width="3" stroke="#2a1165"/>
    <line x1="1010.5263157894739" y1="909.4736842105265" x2="1111.5789473684213" y2="1010.5263157894739"
          stroke-linecap="square" stroke-width="3" stroke="#2c116c"/>
    <line x1="1111.5789473684213" y1="909.4736842105265" x2="1212.6315789473686" y2="1010.5263157894739"
          stroke-linecap="square" stroke-width="3" stroke="#2e1073"/>
    <line x1="1212.6315789473686" y1="1010.5263157894739" x2="1313.6842105263158" y2="909.4736842105265"
          stroke-linecap="square" stroke-width="3" stroke="#300f7a"/>
    <line x1="1313.6842105263158" y1="1010.5263157894739" x2="1414.7368421052631" y2="909.4736842105265"
          stroke-linecap="square" stroke-width="3" stroke="#310f81"/>
    <line x1="1414.7368421052631" y1="909.4736842105265" x2="1515.7894736842104" y2="1010.5263157894739"
          stroke-linecap="square" stroke-width="3" stroke="#330e88"/>
    <line x1="1515.7894736842104" y1="909.4736842105265" x2="1616.8421052631577" y2="1010.5263157894739"
          stroke-linecap="square" stroke-width="3" stroke="#350e8e"/>
    <line x1="1616.8421052631577" y1="1010.5263157894739" x2="1717.894736842105" y2="909.4736842105265"
          stroke-linecap="square" stroke-width="3" stroke="#370d95"/>
    <line x1="1717.894736842105" y1="1010.5263157894739" x2="1818.9473684210523" y2="909.4736842105265"
          stroke-linecap="square" stroke-width="3" stroke="#380d9c"/>
    <line x1="1818.9473684210523" y1="1010.5263157894739" x2="1919.9999999999995" y2="909.4736842105265"
          stroke-linecap="square" stroke-width="3" stroke="#3a0ca3"/>
    <line x1="1919.9999999999995" y1="1010.5263157894739" x2="2021.0526315789468" y2="909.4736842105265"
          stroke-linecap="square" stroke-width="3"/>
    <line x1="0" y1="1010.5263157894739" x2="101.05263157894737" y2="1111.5789473684213" stroke-linecap="square"
          stroke-width="3" stroke="#1b1628"/>
    <line x1="101.05263157894737" y1="1111.5789473684213" x2="202.10526315789474" y2="1010.5263157894739"
          stroke-linecap="square" stroke-width="3" stroke="#1c162f"/>
    <line x1="202.10526315789474" y1="1111.5789473684213" x2="303.1578947368421" y2="1010.5263157894739"
          stroke-linecap="square" stroke-width="3" stroke="#1e1536"/>
    <line x1="303.1578947368421" y1="1010.5263157894739" x2="404.2105263157895" y2="1111.5789473684213"
          stroke-linecap="square" stroke-width="3" stroke="#20153c"/>
    <line x1="404.2105263157895" y1="1111.5789473684213" x2="505.2631578947369" y2="1010.5263157894739"
          stroke-linecap="square" stroke-width="3" stroke="#221443"/>
    <line x1="505.2631578947369" y1="1111.5789473684213" x2="606.3157894736843" y2="1010.5263157894739"
          stroke-linecap="square" stroke-width="3" stroke="#23144a"/>
    <line x1="606.3157894736843" y1="1010.5263157894739" x2="707.3684210526317" y2="1111.5789473684213"
          stroke-linecap="square" stroke-width="3" stroke="#251351"/>
    <line x1="707.3684210526317" y1="1010.5263157894739" x2="808.4210526315791" y2="1111.5789473684213"
          stroke-linecap="square" stroke-width="3" stroke="#271258"/>
    <line x1="808.4210526315791" y1="1010.5263157894739" x2="909.4736842105265" y2="1111.5789473684213"
          stroke-linecap="square" stroke-width="3" stroke="#29125f"/>
    <line x1="909.4736842105265" y1="1010.5263157894739" x2="1010.5263157894739" y2="1111.5789473684213"
          stroke-linecap="square" stroke-width="3" stroke="#2a1165"/>
    <line x1="1010.5263157894739" y1="1111.5789473684213" x2="1111.5789473684213" y2="1010.5263157894739"
          stroke-linecap="square" stroke-width="3" stroke="#2c116c"/>
    <line x1="1111.5789473684213" y1="1010.5263157894739" x2="1212.6315789473686" y2="1111.5789473684213"
          stroke-linecap="square" stroke-width="3" stroke="#2e1073"/>
    <line x1="1212.6315789473686" y1="1111.5789473684213" x2="1313.6842105263158" y2="1010.5263157894739"
          stroke-linecap="square" stroke-width="3" stroke="#300f7a"/>
    <line x1="1313.6842105263158" y1="1010.5263157894739" x2="1414.7368421052631" y2="1111.5789473684213"
          stroke-linecap="square" stroke-width="3" stroke="#310f81"/>
    <line x1="1414.7368421052631" y1="1010.5263157894739" x2="1515.7894736842104" y2="1111.5789473684213"
          stroke-linecap="square" stroke-width="3" stroke="#330e88"/>
    <line x1="1515.7894736842104" y1="1010.5263157894739" x2="1616.8421052631577" y2="1111.5789473684213"
          stroke-linecap="square" stroke-width="3" stroke="#350e8e"/>
    <line x1="1616.8421052631577" y1="1010.5263157894739" x2="1717.894736842105" y2="1111.5789473684213"
          stroke-linecap="square" stroke-width="3" stroke="#370d95"/>
    <line x1="1717.894736842105" y1="1010.5263157894739" x2="1818.9473684210523" y2="1111.5789473684213"
          stroke-linecap="square" stroke-width="3" stroke="#380d9c"/>
    <line x1="1818.9473684210523" y1="1111.5789473684213" x2="1919.9999999999995" y2="1010.5263157894739"
          stroke-linecap="square" stroke-width="3" stroke="#3a0ca3"/>
    <line x1="1919.9999999999995" y1="1111.5789473684213" x2="2021.0526315789468" y2="1010.5263157894739"
          stroke-linecap="square" stroke-width="3"/>
</svg>