<?xml version="1.0" encoding="UTF-8" standalone="no"?>
<!DOCTYPE svg PUBLIC "-//W3C//DTD SVG 1.1//EN" "http://www.w3.org/Graphics/SVG/1.1/DTD/svg11.dtd">
<svg width="100%" height="100%" viewBox="0 0 154 28" version="1.1" xmlns="http://www.w3.org/2000/svg" xmlns:xlink="http://www.w3.org/1999/xlink" xml:space="preserve" xmlns:serif="http://www.serif.com/" style="fill-rule:evenodd;clip-rule:evenodd;stroke-linejoin:round;stroke-miterlimit:2;">
    <path d="M0.018,24.375C-0.006,24.545 -0.006,24.717 0.018,24.887C0.013,25.76 0.539,26.553 1.346,26.887C1.609,26.995 1.89,27.05 2.174,27.047L22.674,27.047C23.218,24.791 23.777,22.534 24.272,20.294L14.883,20.294C16.033,15.636 17.183,10.995 18.348,6.322L25.054,6.322C25.564,4.225 26.076,2.129 26.651,0.016L9.087,0.016C8.248,0.016 7.434,0.299 6.774,0.819C6.114,1.338 5.647,2.064 5.447,2.88L0.13,24.375L0.018,24.375ZM26.459,24.375L32.207,0L46.034,0C44.371,6.762 42.7,13.521 41.02,20.278L48.046,20.278C47.487,22.518 46.928,24.775 46.449,27.032L28.471,27.032C27.815,27.023 27.196,26.719 26.789,26.204C26.38,25.689 26.223,25.017 26.363,24.374L26.459,24.374L26.459,24.375ZM69.106,0L58.616,0C57.776,0 56.962,0.283 56.302,0.803C55.642,1.323 55.175,2.049 54.975,2.865C52.995,10.91 51.005,18.965 49.004,27.032L62.4,27.032L63.996,20.278L69.984,20.278L69.984,27.032L83.38,27.032L83.38,0.016L69.984,0.016L69.984,14.004L65.609,14.004C66.759,9.347 67.909,4.705 69.074,0.032L69.106,0ZM107.074,27.064L107.074,20.294L101.151,20.294C100.592,22.534 100.033,24.791 99.554,27.048L86.126,27.048L92.113,2.88C92.314,2.06 92.783,1.332 93.447,0.813C94.11,0.293 94.928,0.013 95.77,0.015L106.228,0.015L102.731,14.003L107.09,14.003L107.09,0.016L120.518,0.016L120.518,27.048L107.09,27.048L107.074,27.064ZM152.355,14.004C152.379,13.829 152.379,13.651 152.355,13.476C152.365,12.604 151.844,11.809 151.04,11.47C150.779,11.36 150.499,11.302 150.216,11.3L140.891,11.3C141.291,9.699 141.706,8.098 142.121,6.354L152.403,6.354C152.915,4.247 153.447,2.145 154,0.048L132.812,0.048C131.092,0.058 129.586,1.243 129.172,2.913C128.406,6.018 127.634,9.128 126.857,12.243C126.84,12.413 126.84,12.585 126.857,12.756C126.857,12.762 126.857,12.767 126.857,12.773C126.857,13.947 127.822,14.914 128.996,14.916L136.98,14.916C136.549,16.725 136.085,18.517 135.638,20.326L124.909,20.326C124.35,22.566 123.791,24.823 123.312,27.08L146.304,27.08C147.125,27.049 147.914,26.749 148.548,26.226C149.183,25.702 149.629,24.984 149.817,24.183C150.668,20.79 151.509,17.386 152.339,13.972" style="fill:white;"/>
</svg>
