<svg width="100%" height="100%" viewBox="0 0 496 134" fill="none" xmlns="http://www.w3.org/2000/svg">
<path d="M363.27 27.5901C351.86 27.5901 342.24 31.5101 335.45 38.9301C328.8 46.1901 325.28 56.3201 325.28 68.2101C325.28 80.1001 328.68 90.0701 335.11 97.3301C341.86 104.95 351.6 108.98 363.27 108.98C372.84 108.98 380.85 106.47 387.08 101.53C392.66 97.1001 396.69 90.6901 398.74 82.9801L399.14 81.4701H382.23L381.98 82.3301C381.46 84.1101 380.1 87.5201 376.93 90.3501C373.55 93.3701 369.05 94.9001 363.57 94.9001C357.07 94.9001 351.65 92.5401 347.9 88.0701C344.75 84.3201 342.84 79.1101 342.48 73.3601H399.52L399.65 72.3101C399.81 71.0701 399.81 68.8001 399.81 66.7601C399.81 54.9901 396.53 45.1601 390.32 38.3201C383.94 31.3101 374.59 27.6001 363.28 27.6001L363.27 27.5901ZM342.54 59.7101C343.86 48.8901 351.94 41.6701 362.83 41.6701C368.64 41.6701 373.57 43.5701 377.1 47.1501C380.28 50.3801 382.08 54.7101 382.33 59.7101H342.54Z" fill="#ffffff"></path>
<path d="M314.61 34.13C310.04 29.95 303.69 27.74 296.24 27.74C283.55 27.74 276.26 33.3 272.62 37.38V29.93H255.91V106.79H272.62V59.89C272.62 54.7 274.38 50.31 277.71 47.21C281.08 44.07 285.87 42.4 291.56 42.4C296.29 42.4 299.86 43.8 302.15 46.57C304.3 49.16 305.4 52.96 305.4 57.85V106.79H322.25V53.91C322.25 45.55 319.6 38.72 314.6 34.14L314.61 34.13Z" fill="#ffffff"></path>
<path d="M249.11 1.16992H230.5V19.0499H249.11V1.16992Z" fill="#ffffff"></path>
<path d="M248.23 29.9299H231.52V106.79H248.23V29.9299Z" fill="#ffffff"></path>
<path d="M206.95 36.97C201.28 30.85 193.88 27.74 184.94 27.74C175.14 27.74 166.76 31.07 160.7 37.38C154.28 44.05 150.89 53.76 150.89 65.44C150.89 77.12 154.28 86.72 160.7 93.37C166.77 99.66 175.15 102.99 184.94 102.99C194.73 102.99 201.68 99.87 206.95 93.71V100.62C206.95 107.24 205.37 111.95 202.13 115C198.97 117.97 194.21 119.42 187.57 119.42C182.15 119.42 177.9 118.33 174.93 116.18C172.42 114.36 170.78 111.74 170.05 108.39L169.85 107.44H152.8L152.94 108.77C153.73 116.06 157.1 122.17 162.67 126.45C168.75 131.12 177.13 133.49 187.56 133.49C198.82 133.49 207.65 130.75 213.79 125.34C220.33 119.59 223.65 110.97 223.65 99.73V29.93H206.94V36.97H206.95ZM201.69 83C198.42 86.83 193.67 88.77 187.56 88.77C181.45 88.77 176.32 86.57 172.96 82.23C169.83 78.19 168.18 72.39 168.18 65.44C168.18 58.49 169.83 52.69 172.96 48.65C176.32 44.31 181.24 42.11 187.56 42.11C193.88 42.11 198.44 44.03 201.69 47.82C205.08 51.78 206.8 57.7 206.8 65.44C206.8 73.18 205.08 79.02 201.69 83Z" fill="#ffffff"></path>
<path d="M140.21 34.13C135.64 29.95 129.29 27.74 121.84 27.74C109.15 27.74 101.86 33.3 98.22 37.38V29.93H81.51V106.79H98.22V59.89C98.22 54.7 99.98 50.31 103.31 47.21C106.68 44.07 111.47 42.4 117.16 42.4C121.89 42.4 125.45 43.8 127.75 46.57C129.9 49.16 131 52.95 131 57.85V106.79H147.85V53.91C147.85 45.55 145.2 38.72 140.2 34.14L140.21 34.13Z" fill="#ffffff"></path>
<path d="M69.12 43.51H36.92V29.93H18.46V16.27H76.28V0H0V43.51H18.46V59.78H69.12V43.51Z" fill="#ffffff"></path>
<path d="M18.46 59.78H0V106.79H77.74V90.52H18.46V59.78Z" fill="#ffffff"></path>
<path d="M418.28 29.8701V106.71H495.12V29.8701H418.28ZM445.22 95.6201H441.86V85.9101H431.24V95.6201H427.91V73.9801H431.24V83.0301H441.86V73.9801H445.22V95.6201ZM463.67 85.2701C462.39 86.3201 460.67 86.8401 458.51 86.8401H452.82V95.6201H449.49V73.9801H458.51C460.67 73.9801 462.39 74.5101 463.67 75.5701C464.95 76.6301 465.59 78.2501 465.59 80.4301C465.59 82.6101 464.95 84.2201 463.67 85.2701ZM471.7 95.6201H468.37V73.9801H471.7V95.6201Z" fill="#ffffff"></path>
<path d="M458.35 76.8501H452.81V83.9601H458.35C460.87 83.9601 462.13 82.7801 462.13 80.4201C462.13 78.0601 460.87 76.8501 458.35 76.8501Z" fill="#ffffff"></path>
</svg>
