<svg width="343" height="107" viewBox="0 0 343 107" fill="none" xmlns="http://www.w3.org/2000/svg">
<path fill-rule="evenodd" clip-rule="evenodd" d="M215.337 80.227C228.293 80.227 238.091 71.9826 239.145 59.8769H229.664C228.4 67.182 222.818 71.6703 215.444 71.6703C206.596 71.6703 199.43 65.0924 199.43 54.239C199.43 43.5944 206.28 36.8119 215.444 36.8119C222.607 36.8119 228.083 40.8827 229.557 48.6053H239.038C238.09 36.3952 228.084 28.2552 215.444 28.2552C200.908 28.2552 189.74 38.7955 189.74 54.345C189.74 69.5815 200.696 80.227 215.337 80.227Z" fill="white"/>
<path fill-rule="evenodd" clip-rule="evenodd" d="M259.156 80.2285C264.423 80.2285 269.058 77.9301 271.796 74.0688V79.6007H280.643V41.1957H271.689V61.7577C271.689 68.5411 267.581 72.0876 262.209 72.0876C257.364 72.0876 254.309 69.2708 254.309 63.0092V41.1957H245.356V65.4103C245.356 74.8026 251.045 80.2285 259.156 80.2285Z" fill="white"/>
<path d="M297.273 26.582H288.336V79.581H297.273V26.582Z" fill="white"/>
<path fill-rule="evenodd" clip-rule="evenodd" d="M316.876 80.1226C322.67 80.1226 327.622 77.7248 330.15 73.7591C330.887 77.6204 333.838 79.6008 338.367 79.6008H343V72.2957H341.527C339.42 72.2957 338.367 71.3581 338.367 69.2709V55.8061C338.367 46.1007 332.572 40.5721 321.933 40.5721C311.716 40.5721 305.186 45.5797 304.343 53.511H313.613C314.14 49.9628 316.983 47.8772 321.723 47.8772C326.885 47.8772 329.73 50.487 329.73 55.4963V56.8497H318.67C308.979 56.8497 302.973 61.4447 302.973 68.5412C302.973 75.3245 308.66 80.1226 316.876 80.1226ZM312.033 68.0194C312.033 64.8886 314.665 63.0093 319.826 63.0093H329.73V63.5311C329.73 69.0622 325.2 73.1314 318.88 73.1314C314.561 73.1314 312.033 71.0458 312.033 68.0194Z" fill="white"/>
<path fill-rule="evenodd" clip-rule="evenodd" d="M87.2115 11.6546L105.497 1.18431C106.728 0.479599 108.24 0.479279 109.471 1.18346L152.013 25.5183C153.258 26.2308 154.027 27.5556 154.027 28.9904V77.5973C154.027 79.0321 153.258 80.357 152.013 81.0694L109.469 105.405C108.239 106.109 106.729 106.109 105.498 105.406L87.2115 94.9542C99.562 85.1887 107.484 70.1519 107.484 53.2939C107.484 36.4465 99.562 21.4094 87.2115 11.6546Z" fill="white"/>
<path fill-rule="evenodd" clip-rule="evenodd" d="M87.2282 94.902C78.0361 102.16 66.402 106.511 53.7526 106.511C41.1032 106.511 29.4691 102.16 20.277 94.902C7.92944 85.1426 0 70.1095 0 53.2549C0 36.4002 7.92944 21.3671 20.277 11.6078C29.4691 4.34938 41.1032 0 53.7526 0C66.402 0 78.0361 4.34938 87.2282 11.6078L61.9485 26.0653C61.3257 26.4215 60.9414 27.0839 60.9414 27.8014V78.7094C60.9414 79.4268 61.3257 80.0893 61.9485 80.4455L87.2282 94.902Z" fill="white"/>
</svg>
