<?xml version="1.0" encoding="UTF-8" standalone="no"?>
<!DOCTYPE svg PUBLIC "-//W3C//DTD SVG 1.1//EN" "http://www.w3.org/Graphics/SVG/1.1/DTD/svg11.dtd">
<svg width="100%" height="100%" viewBox="0 0 153 38" version="1.1" xmlns="http://www.w3.org/2000/svg" xmlns:xlink="http://www.w3.org/1999/xlink" xml:space="preserve" xmlns:serif="http://www.serif.com/" style="fill-rule:evenodd;clip-rule:evenodd;stroke-linejoin:round;stroke-miterlimit:2;">
    <g transform="matrix(0.884393,0,0,0.884393,0,2.19653)">
        <path d="M15.902,0.57C13.888,0.538 11.889,0.905 10.029,1.648C8.169,2.39 6.49,3.493 5.095,4.887C2.309,7.632 0.75,11.311 0.75,15.14C0.75,18.97 2.309,22.649 5.095,25.393C6.5,26.746 8.168,27.819 10.005,28.553C11.843,29.287 13.813,29.667 15.803,29.671C17.793,29.675 19.765,29.303 21.605,28.577C23.446,27.85 25.119,26.783 26.529,25.437C27.939,24.09 29.059,22.491 29.825,20.729C30.59,18.968 30.986,17.079 30.991,15.171C30.995,13.263 30.607,11.373 29.849,9.608C29.091,7.844 27.978,6.239 26.574,4.887C25.201,3.503 23.544,2.405 21.708,1.662C19.872,0.919 17.895,0.547 15.902,0.57ZM15.902,25.825C13.691,25.812 11.533,25.175 9.697,23.994C7.862,22.812 6.429,21.139 5.579,19.182C4.729,17.225 4.499,15.072 4.918,12.99C5.336,10.909 6.384,8.991 7.932,7.478C8.956,6.44 10.193,5.617 11.564,5.06C12.936,4.503 14.413,4.224 15.902,4.24C17.388,4.249 18.857,4.539 20.225,5.095C21.593,5.651 22.832,6.46 23.872,7.478C25.42,8.991 26.469,10.909 26.887,12.99C27.305,15.072 27.075,17.225 26.225,19.182C25.375,21.139 23.943,22.812 22.107,23.994C20.271,25.175 18.113,25.812 15.902,25.825Z" style="fill:white;fill-rule:nonzero;"/>
    </g>
    <g transform="matrix(0.884393,0,0,0.884393,0,2.19653)">
        <path d="M45.486,8.47C43.966,8.448 42.464,8.791 41.119,9.47C39.773,10.149 38.627,11.141 37.786,12.356L37.786,8.945L34.049,8.945L34.049,37.006L37.831,37.006L37.831,25.825C38.684,27.02 39.835,27.99 41.181,28.646C42.526,29.302 44.022,29.624 45.531,29.581C46.935,29.588 48.326,29.328 49.624,28.817C50.923,28.306 52.103,27.553 53.096,26.602C55.063,24.534 56.169,21.846 56.203,19.047C56.195,16.244 55.085,13.547 53.096,11.492C52.097,10.534 50.91,9.774 49.605,9.256C48.299,8.737 46.899,8.47 45.486,8.47ZM45.081,11.967C46.053,11.957 47.018,12.134 47.917,12.49C48.816,12.846 49.63,13.373 50.312,14.038C50.993,14.703 51.527,15.494 51.882,16.362C52.236,17.23 52.404,18.158 52.375,19.09C52.375,20.951 51.605,22.735 50.232,24.051C48.86,25.366 46.999,26.106 45.058,26.106C43.118,26.106 41.257,25.366 39.884,24.051C38.512,22.735 37.741,20.951 37.741,19.09C37.712,18.155 37.881,17.223 38.239,16.352C38.596,15.481 39.134,14.688 39.82,14.022C40.507,13.356 41.327,12.831 42.231,12.477C43.135,12.124 44.105,11.951 45.081,11.967Z" style="fill:white;fill-rule:nonzero;"/>
    </g>
    <g transform="matrix(0.884393,0,0,0.884393,0,2.19653)">
        <path d="M64.938,3.418L61.156,4.497L61.156,8.944L57.103,8.944L57.103,12.441L61.156,12.441L61.156,23.233C61.156,25.392 61.696,26.989 62.912,28.025C64.294,28.949 65.958,29.405 67.64,29.32C68.546,29.292 69.448,29.206 70.342,29.061L70.477,29.061L70.477,25.824L69.936,25.824C67.775,25.953 66.289,26.083 65.614,25.305C65.073,24.917 64.938,24.226 64.938,23.233L64.938,12.441L70.477,12.441L70.477,8.944L64.938,8.944L64.938,3.418Z" style="fill:white;fill-rule:nonzero;"/>
    </g>
    <g transform="matrix(0.884393,0,0,0.884393,0,2.19653)">
        <rect x="74.529" y="8.987" width="3.917" height="20.204" style="fill:white;fill-rule:nonzero;"/>
    </g>
    <g transform="matrix(0.884393,0,0,0.884393,0,2.19653)">
        <path d="M76.556,0.698C75.875,0.698 75.222,0.957 74.741,1.419C74.259,1.88 73.989,2.506 73.989,3.159C73.992,3.475 74.061,3.788 74.193,4.078C74.324,4.368 74.516,4.63 74.755,4.848C74.995,5.066 75.278,5.235 75.587,5.345C75.897,5.455 76.226,5.505 76.556,5.49C76.875,5.492 77.192,5.432 77.488,5.316C77.784,5.199 78.052,5.027 78.278,4.811C78.504,4.594 78.683,4.336 78.805,4.053C78.927,3.769 78.989,3.466 78.987,3.159C78.994,2.527 78.744,1.917 78.29,1.458C77.837,0.998 77.215,0.726 76.556,0.698Z" style="fill:white;fill-rule:nonzero;"/>
    </g>
    <g transform="matrix(0.884393,0,0,0.884393,0,2.19653)">
        <path d="M91.82,25.176L85.336,8.987L81.284,8.987L89.659,29.061L93.982,29.061L102.357,9.116L102.357,8.987L98.305,8.987L91.82,25.176Z" style="fill:white;fill-rule:nonzero;"/>
    </g>
    <g transform="matrix(0.884393,0,0,0.884393,0,2.19653)">
        <path d="M113.704,8.469C112.242,8.428 110.787,8.676 109.429,9.196C108.07,9.716 106.838,10.499 105.808,11.494C104.778,12.49 103.972,13.678 103.44,14.984C102.909,16.291 102.663,17.688 102.717,19.089C102.69,20.483 102.95,21.868 103.483,23.164C104.017,24.461 104.812,25.643 105.824,26.644C106.902,27.63 108.174,28.401 109.565,28.913C110.956,29.424 112.44,29.665 113.929,29.623C115.738,29.692 117.535,29.311 119.145,28.517C120.755,27.723 122.123,26.542 123.115,25.09L120.008,23.406L120.008,23.277L119.873,23.406C119.227,24.323 118.343,25.063 117.31,25.555C116.276,26.047 115.127,26.273 113.974,26.212C112.27,26.302 110.587,25.81 109.227,24.821C107.866,23.833 106.915,22.414 106.545,20.816L123.971,20.816L123.971,20.687C124.083,20.176 124.128,19.654 124.106,19.132C124.182,16.414 123.166,13.771 121.269,11.75C120.33,10.712 119.167,9.882 117.861,9.315C116.556,8.749 115.137,8.46 113.704,8.469ZM113.704,11.966C115.339,11.915 116.933,12.462 118.162,13.496C119.391,14.53 120.164,15.974 120.323,17.535L106.545,17.535C106.792,15.915 107.666,14.444 108.992,13.413C110.318,12.381 112,11.865 113.704,11.966Z" style="fill:white;fill-rule:nonzero;"/>
    </g>
    <g transform="matrix(0.884393,0,0,0.884393,0,2.19653)">
        <path d="M137.749,8.728C136.448,8.638 135.148,8.922 134.017,9.545C132.885,10.168 131.974,11.102 131.4,12.225L131.4,8.987L127.618,8.987L127.618,29.062L131.4,29.062L131.4,18.442C131.344,17.621 131.458,16.798 131.736,16.019C132.014,15.241 132.451,14.524 133.021,13.909C133.667,13.375 134.419,12.974 135.232,12.729C136.045,12.484 136.902,12.401 137.749,12.484L137.884,12.484L137.884,8.728L137.749,8.728Z" style="fill:white;fill-rule:nonzero;"/>
    </g>
    <g transform="matrix(0.884393,0,0,0.884393,0,2.19653)">
        <path d="M172.061,27.897L159.003,1.088C158.955,0.922 158.847,0.779 158.698,0.684C158.55,0.588 158.37,0.548 158.192,0.57L155.761,0.57C155.583,0.548 155.403,0.588 155.255,0.684C155.106,0.779 154.998,0.922 154.95,1.088L143.603,27.897C143.541,28.024 143.515,28.165 143.526,28.305C143.537,28.446 143.585,28.581 143.667,28.698C143.748,28.815 143.86,28.91 143.99,28.974C144.121,29.038 144.267,29.068 144.414,29.062L171.296,29.062C171.926,29.062 172.511,28.372 172.061,27.897ZM155.986,12.355L161.614,23.752C161.676,23.888 161.703,24.035 161.693,24.183C161.683,24.33 161.636,24.473 161.557,24.6C161.477,24.726 161.368,24.833 161.237,24.911C161.106,24.989 160.958,25.036 160.804,25.047L150.447,25.047C150.29,25.037 150.136,24.993 149.998,24.919C149.86,24.844 149.742,24.741 149.651,24.617C149.56,24.493 149.5,24.351 149.474,24.201C149.448,24.051 149.458,23.898 149.502,23.752L154.365,12.355C154.439,12.209 154.554,12.086 154.697,12C154.84,11.914 155.006,11.868 155.175,11.868C155.345,11.868 155.51,11.914 155.654,12C155.797,12.086 155.912,12.209 155.986,12.355Z" style="fill:white;fill-rule:nonzero;"/>
    </g>
</svg>
