<?xml version="1.0" encoding="UTF-8" standalone="no"?>
<!DOCTYPE svg PUBLIC "-//W3C//DTD SVG 1.1//EN" "http://www.w3.org/Graphics/SVG/1.1/DTD/svg11.dtd">
<svg width="100%" height="100%" viewBox="0 0 427 536" version="1.1" xmlns="http://www.w3.org/2000/svg" xmlns:xlink="http://www.w3.org/1999/xlink" xml:space="preserve" xmlns:serif="http://www.serif.com/" style="fill-rule:evenodd;clip-rule:evenodd;stroke-linejoin:round;stroke-miterlimit:2;">
    <g transform="matrix(2.66667,0,0,2.66667,26.2514,0)">
        <g>
            <g transform="matrix(1.30809,0,0,1.30809,-34.2864,-33.8309)">
                <path d="M35.155,171.352C35.67,170.741 35.946,169.998 35.981,169.124C35.998,168.896 36.007,168.556 36.007,168.101C36.007,167.646 35.998,167.314 35.981,167.104C35.929,166.16 35.657,165.369 35.168,164.73C34.678,164.093 33.936,163.773 32.939,163.773C31.085,163.773 30.098,164.928 29.976,167.235C29.958,167.41 29.949,167.673 29.949,168.022C29.949,168.372 29.958,168.635 29.976,168.809C30.098,171.117 31.085,172.27 32.939,172.27C33.9,172.27 34.639,171.965 35.155,171.352ZM36.165,179.653C36.042,179.539 35.981,179.387 35.981,179.194L35.981,173.241C35.054,174.482 33.708,175.103 31.942,175.103C30.194,175.103 28.843,174.539 27.891,173.411C26.938,172.284 26.426,170.802 26.356,168.967L26.33,168.022L26.356,167.078C26.426,165.207 26.933,163.717 27.877,162.606C28.821,161.497 30.176,160.941 31.942,160.941C33.778,160.941 35.177,161.589 36.138,162.882L36.138,161.833C36.138,161.641 36.199,161.488 36.322,161.374C36.444,161.261 36.593,161.203 36.768,161.203L38.892,161.203C39.084,161.203 39.237,161.261 39.351,161.374C39.464,161.488 39.522,161.641 39.522,161.833L39.522,179.194C39.522,179.387 39.464,179.539 39.351,179.653C39.237,179.767 39.084,179.823 38.892,179.823L36.61,179.823C36.436,179.823 36.287,179.767 36.165,179.653Z" style="fill:white;fill-rule:nonzero;"/>
            </g>
            <g transform="matrix(1.30809,0,0,1.30809,-34.2864,-33.8309)">
                <path d="M44.872,173.529C43.945,172.48 43.481,171.038 43.481,169.202L43.481,161.833C43.481,161.641 43.543,161.488 43.665,161.374C43.787,161.261 43.936,161.203 44.111,161.203L46.471,161.203C46.646,161.203 46.794,161.265 46.917,161.387C47.039,161.51 47.101,161.658 47.101,161.833L47.101,169.045C47.101,171.195 48.036,172.27 49.907,172.27C50.816,172.27 51.537,171.982 52.07,171.405C52.604,170.828 52.87,170.042 52.87,169.045L52.87,161.833C52.87,161.641 52.931,161.488 53.054,161.374C53.176,161.261 53.325,161.203 53.5,161.203L55.834,161.203C56.026,161.203 56.179,161.261 56.293,161.374C56.406,161.488 56.463,161.641 56.463,161.833L56.463,174.211C56.463,174.387 56.406,174.535 56.293,174.657C56.179,174.779 56.026,174.841 55.834,174.841L53.657,174.841C53.482,174.841 53.334,174.779 53.211,174.657C53.089,174.535 53.028,174.387 53.028,174.211L53.028,173.136C52.066,174.447 50.615,175.103 48.674,175.103C47.065,175.103 45.798,174.578 44.872,173.529Z" style="fill:white;fill-rule:nonzero;"/>
            </g>
            <g transform="matrix(1.30809,0,0,1.30809,-34.2864,-33.8309)">
                <path d="M67.792,171.642C68.404,171.012 68.71,170.103 68.71,168.914L68.71,168.39L66.087,168.809C64.077,169.124 63.071,169.797 63.071,170.828C63.071,171.388 63.303,171.821 63.767,172.127C64.23,172.433 64.785,172.585 65.432,172.585C66.393,172.585 67.18,172.27 67.792,171.642ZM62.088,174.565C61.345,174.207 60.759,173.722 60.331,173.11C59.902,172.498 59.689,171.825 59.689,171.091C59.689,169.901 60.169,168.94 61.131,168.206C62.092,167.472 63.412,166.974 65.091,166.711L68.684,166.186L68.684,165.636C68.684,164.884 68.491,164.315 68.106,163.931C67.722,163.547 67.11,163.354 66.271,163.354C65.694,163.354 65.231,163.459 64.881,163.669C64.531,163.879 64.247,164.093 64.029,164.311C63.81,164.53 63.666,164.675 63.596,164.744C63.526,164.954 63.395,165.059 63.203,165.059L61.157,165.059C61,165.059 60.864,165.006 60.751,164.901C60.637,164.797 60.58,164.657 60.58,164.481C60.597,164.045 60.812,163.551 61.223,163C61.633,162.449 62.267,161.969 63.124,161.558C63.981,161.147 65.038,160.941 66.297,160.941C68.36,160.941 69.864,161.405 70.808,162.331C71.752,163.258 72.224,164.474 72.224,165.976L72.224,174.211C72.224,174.387 72.167,174.535 72.054,174.657C71.939,174.779 71.787,174.841 71.595,174.841L69.418,174.841C69.243,174.841 69.094,174.779 68.972,174.657C68.85,174.535 68.789,174.387 68.789,174.211L68.789,173.188C68.404,173.748 67.862,174.207 67.163,174.565C66.463,174.924 65.589,175.103 64.54,175.103C63.648,175.103 62.831,174.924 62.088,174.565Z" style="fill:white;fill-rule:nonzero;"/>
            </g>
            <g transform="matrix(1.30809,0,0,1.30809,-34.2864,-33.8309)">
                <path d="M76.42,174.657C76.298,174.535 76.237,174.387 76.237,174.211L76.237,161.833C76.237,161.641 76.298,161.488 76.42,161.374C76.543,161.261 76.691,161.203 76.866,161.203L79.043,161.203C79.235,161.203 79.388,161.261 79.502,161.374C79.615,161.488 79.672,161.641 79.672,161.833L79.672,162.908C80.738,161.597 82.199,160.941 84.052,160.941C85.66,160.941 86.937,161.466 87.881,162.515C88.825,163.563 89.297,165.006 89.297,166.842L89.297,174.211C89.297,174.387 89.24,174.535 89.127,174.657C89.013,174.779 88.86,174.841 88.668,174.841L86.307,174.841C86.132,174.841 85.983,174.779 85.861,174.657C85.739,174.535 85.678,174.387 85.678,174.211L85.678,166.999C85.678,165.985 85.429,165.194 84.931,164.626C84.432,164.058 83.72,163.773 82.793,163.773C81.901,163.773 81.184,164.062 80.643,164.639C80.101,165.216 79.83,166.003 79.83,166.999L79.83,174.211C79.83,174.387 79.772,174.535 79.659,174.657C79.545,174.779 79.393,174.841 79.2,174.841L76.866,174.841C76.691,174.841 76.543,174.779 76.42,174.657Z" style="fill:white;fill-rule:nonzero;"/>
            </g>
            <g transform="matrix(1.30809,0,0,1.30809,-34.2864,-33.8309)">
                <path d="M95.696,173.595C94.892,172.765 94.489,171.546 94.489,169.936L94.489,164.01L92.418,164.01C92.243,164.01 92.094,163.948 91.972,163.826C91.849,163.704 91.788,163.556 91.788,163.38L91.788,161.833C91.788,161.658 91.849,161.51 91.972,161.387C92.094,161.265 92.243,161.203 92.418,161.203L94.489,161.203L94.489,156.851C94.489,156.658 94.55,156.505 94.673,156.392C94.795,156.277 94.944,156.221 95.119,156.221L97.295,156.221C97.488,156.221 97.641,156.277 97.754,156.392C97.868,156.505 97.925,156.658 97.925,156.851L97.925,161.203L101.204,161.203C101.378,161.203 101.527,161.265 101.649,161.387C101.771,161.51 101.833,161.658 101.833,161.833L101.833,163.38C101.833,163.556 101.771,163.704 101.649,163.826C101.527,163.948 101.378,164.01 101.204,164.01L97.925,164.01L97.925,169.648C97.925,170.4 98.056,170.969 98.318,171.352C98.581,171.737 99.009,171.93 99.604,171.93L101.439,171.93C101.632,171.93 101.785,171.986 101.898,172.101C102.012,172.214 102.069,172.367 102.069,172.559L102.069,174.211C102.069,174.387 102.012,174.535 101.898,174.657C101.785,174.779 101.632,174.841 101.439,174.841L99.289,174.841C97.698,174.841 96.5,174.426 95.696,173.595Z" style="fill:white;fill-rule:nonzero;"/>
            </g>
            <g transform="matrix(1.30809,0,0,1.30809,-34.2864,-33.8309)">
                <path d="M106.356,173.503C105.211,172.437 104.604,170.959 104.534,169.071L104.508,168.022L104.534,166.974C104.604,165.085 105.211,163.607 106.356,162.541C107.501,161.475 109.036,160.941 110.959,160.941C112.34,160.941 113.507,161.186 114.46,161.676C115.413,162.165 116.121,162.764 116.584,163.472C117.048,164.181 117.297,164.858 117.332,165.505C117.349,165.68 117.292,165.828 117.162,165.95C117.03,166.073 116.877,166.134 116.703,166.134L114.369,166.134C114.176,166.134 114.036,166.095 113.949,166.016C113.861,165.937 113.774,165.793 113.687,165.583C113.424,164.919 113.079,164.438 112.651,164.141C112.222,163.844 111.676,163.695 111.012,163.695C110.12,163.695 109.425,163.975 108.927,164.534C108.429,165.094 108.162,165.95 108.127,167.104L108.101,168.074L108.127,168.94C108.232,171.213 109.193,172.35 111.012,172.35C111.693,172.35 112.244,172.205 112.664,171.917C113.083,171.628 113.424,171.143 113.687,170.461C113.756,170.268 113.839,170.129 113.936,170.042C114.032,169.954 114.176,169.91 114.369,169.91L116.703,169.91C116.877,169.91 117.03,169.972 117.162,170.094C117.292,170.217 117.349,170.365 117.332,170.54C117.297,171.152 117.052,171.811 116.598,172.519C116.143,173.227 115.444,173.836 114.5,174.343C113.556,174.85 112.375,175.103 110.959,175.103C109.036,175.103 107.501,174.57 106.356,173.503Z" style="fill:white;fill-rule:nonzero;"/>
            </g>
            <g transform="matrix(1.30809,0,0,1.30809,-34.2864,-33.8309)">
                <path d="M128.91,171.589C129.409,171.012 129.675,170.164 129.71,169.045C129.728,168.87 129.737,168.529 129.737,168.022C129.737,167.516 129.728,167.175 129.71,166.999C129.675,165.881 129.404,165.028 128.897,164.442C128.39,163.856 127.682,163.563 126.773,163.563C125.846,163.563 125.13,163.856 124.623,164.442C124.116,165.028 123.845,165.881 123.81,166.999L123.784,168.022L123.81,169.045C123.845,170.164 124.116,171.012 124.623,171.589C125.13,172.166 125.846,172.454 126.773,172.454C127.7,172.454 128.412,172.166 128.91,171.589ZM122,173.529C120.881,172.48 120.278,171.029 120.191,169.176L120.165,168.022L120.191,166.868C120.278,165.032 120.89,163.586 122.026,162.528C123.163,161.471 124.745,160.941 126.773,160.941C128.784,160.941 130.356,161.471 131.494,162.528C132.63,163.586 133.242,165.032 133.33,166.868C133.347,167.078 133.356,167.463 133.356,168.022C133.356,168.582 133.347,168.967 133.33,169.176C133.242,171.029 132.639,172.48 131.52,173.529C130.401,174.578 128.819,175.103 126.773,175.103C124.71,175.103 123.119,174.578 122,173.529Z" style="fill:white;fill-rule:nonzero;"/>
            </g>
            <g transform="matrix(1.30809,0,0,1.30809,-34.2864,-33.8309)">
                <path d="M98.133,106.565C103.206,99.028 103.496,88.012 103.496,79.605C103.496,70.183 103.206,57.427 96.104,50.035C92.045,45.686 85.812,43.221 79.869,43.221C73.926,43.221 67.693,45.686 63.634,50.035C56.531,57.427 56.241,70.183 56.241,79.605C56.241,89.027 56.531,101.638 63.634,109.03C67.693,113.379 73.926,115.843 79.869,115.843C82.043,115.843 84.362,115.553 86.537,114.828L97.843,129.179C92.19,131.643 86.102,132.803 79.869,132.803C68.852,132.803 58.126,129.034 50.298,121.206C39.137,110.045 37.253,96.419 37.253,79.605C37.253,62.79 39.137,49.019 50.298,37.858C58.126,30.032 68.852,26.262 79.869,26.262C90.885,26.262 101.612,30.032 109.439,37.858C120.601,49.019 122.485,62.79 122.485,79.605C122.485,96.419 120.601,109.899 109.584,121.06L98.133,106.565C103.206,99.028 103.496,88.012 103.496,79.605C103.496,70.183 103.206,57.427 96.104,50.035C92.045,45.686 85.812,43.221 79.869,43.221C73.926,43.221 67.693,45.686 63.634,50.035C56.531,57.427 56.241,70.183 56.241,79.605C56.241,89.027 56.531,101.638 63.634,109.03C67.693,113.379 73.926,115.843 79.869,115.843C82.043,115.843 84.362,115.553 86.537,114.828C84.362,115.553 82.043,115.843 79.869,115.843C73.926,115.843 67.693,113.379 63.634,109.03C56.531,101.638 56.241,89.027 56.241,79.605C56.241,70.183 56.531,57.427 63.634,50.035C67.693,45.686 73.926,43.221 79.869,43.221C85.812,43.221 92.045,45.686 96.104,50.035C103.206,57.427 103.496,70.183 103.496,79.605C103.496,88.012 103.206,99.028 98.133,106.565Z" style="fill:white;fill-rule:nonzero;"/>
            </g>
        </g>
    </g>
</svg>
