<?xml version="1.0" encoding="UTF-8" standalone="no"?>
<!DOCTYPE svg PUBLIC "-//W3C//DTD SVG 1.1//EN" "http://www.w3.org/Graphics/SVG/1.1/DTD/svg11.dtd">
<svg width="100%" height="100%" viewBox="0 0 1734 280" version="1.1" xmlns="http://www.w3.org/2000/svg" xmlns:xlink="http://www.w3.org/1999/xlink" xml:space="preserve" xmlns:serif="http://www.serif.com/" style="fill-rule:evenodd;clip-rule:evenodd;stroke-linejoin:round;stroke-miterlimit:2;">
    <g transform="matrix(2.66667,0,0,2.66667,0,0)">
        <path d="M95.937,4.964L117.699,4.964C117.739,5.501 117.812,6.03 117.813,6.56C117.821,12.787 117.844,19.015 117.795,25.242C117.786,26.456 118.017,26.941 119.399,26.93C127.986,26.86 136.574,26.862 145.161,26.928C146.524,26.939 146.78,26.493 146.768,25.251C146.71,19.024 146.741,12.796 146.741,6.569L146.741,4.991L168.643,4.991L168.643,26.833L183.451,26.833L183.451,42.193L168.679,42.193L168.679,43.75C168.679,55.054 168.678,66.358 168.681,77.661C168.681,78.429 168.684,79.198 168.732,79.964C168.936,83.206 170.733,84.971 173.993,84.995C176.126,85.011 178.26,84.856 180.394,84.788C181.027,84.768 181.662,84.785 182.374,84.785L182.374,101.995C174.749,103.141 167.217,104.167 159.681,102.121C151.794,99.981 147.677,95.025 147.004,86.913C146.828,84.792 146.759,82.657 146.755,80.528C146.732,68.328 146.743,56.129 146.741,43.929C146.741,42.219 146.739,42.217 144.981,42.217C136.478,42.216 127.976,42.241 119.475,42.19C118.231,42.182 117.78,42.435 117.787,43.788C117.842,55.049 117.816,66.31 117.824,77.571C117.825,78.423 117.894,79.275 117.957,80.126C118.189,83.237 119.939,84.953 123.092,84.992C125.225,85.019 127.36,84.858 129.494,84.792C130.127,84.772 130.761,84.789 131.504,84.789L131.504,102.005C123.595,103.184 115.734,104.253 107.899,101.84C100.887,99.681 96.894,94.748 96.25,87.43C96.045,85.099 95.96,82.75 95.955,80.409C95.925,68.252 95.939,56.096 95.937,43.939C95.936,42.219 95.933,42.218 94.172,42.217C91.438,42.216 88.703,42.192 85.969,42.23C85.154,42.242 84.825,41.998 84.83,41.149C84.857,36.756 84.857,32.362 84.831,27.969C84.826,27.125 85.149,26.871 85.967,26.882C88.786,26.918 91.607,26.845 94.425,26.919C95.585,26.949 95.972,26.62 95.962,25.422C95.908,19.11 95.937,12.797 95.937,6.484L95.937,4.964Z" style="fill:white;fill-rule:nonzero;"/>
        <path d="M335.492,63.79C335.557,60.034 335.148,55.975 333.866,52.047C332.394,47.537 329.941,43.796 325.315,41.964C316.778,38.583 307.655,42.458 304.606,51.082C301.496,59.881 301.687,68.878 304.6,77.688C307.528,86.541 314.79,89.42 322.927,87.785C328.065,86.753 331.172,83.213 333.09,78.546C334.983,73.939 335.526,69.087 335.492,63.79ZM303.081,33.84C303.573,33.417 303.779,33.27 303.948,33.089C309.797,26.809 317.252,24.41 325.563,24.726C336.426,25.139 345.033,29.91 351.031,39.071C354.143,43.826 355.82,49.141 356.559,54.722C357.851,64.491 357.195,74.118 353.803,83.441C351.147,90.74 346.886,96.834 339.972,100.747C334.379,103.913 328.294,104.888 321.945,104.506C314.2,104.041 307.703,100.99 302.564,95.141C302.484,95.049 302.366,94.991 301.983,94.709C302.263,97.432 302.519,99.92 302.785,102.496L281.607,102.496C281.575,102.028 281.512,101.539 281.512,101.05C281.507,67.961 281.513,34.872 281.485,1.782C281.484,0.596 281.749,0.152 283.03,0.165C289.223,0.227 295.416,0.22 301.609,0.169C302.782,0.159 303.112,0.507 303.107,1.681C303.062,11.786 303.081,21.892 303.081,31.998L303.081,33.84Z" style="fill:white;fill-rule:nonzero;"/>
        <path d="M607.952,26.895C603.517,31.476 599.366,35.767 595.211,40.055C591.084,44.315 586.972,48.592 582.804,52.812C582.071,53.553 582.004,54.047 582.553,54.951C591.941,70.393 601.288,85.861 610.642,101.323C610.856,101.678 611.042,102.049 611.334,102.581L609.809,102.581C602.292,102.581 594.774,102.554 587.257,102.609C586.101,102.617 585.454,102.288 584.854,101.273C578.937,91.255 572.96,81.271 566.999,71.279C566.744,70.852 566.474,70.434 566.128,69.879C565.337,70.609 564.65,71.228 563.98,71.864C561.784,73.951 559.615,76.069 557.387,78.122C556.673,78.781 556.365,79.463 556.37,80.448C556.41,87.228 556.391,94.008 556.391,100.788L556.391,102.5L534.875,102.5C534.843,102.025 534.782,101.536 534.782,101.046C534.777,67.955 534.783,34.864 534.754,1.773C534.753,0.574 535.039,0.153 536.309,0.165C542.587,0.226 548.866,0.192 555.145,0.196C555.563,0.196 555.981,0.24 556.518,0.27L556.518,52.893C557.089,52.36 557.418,52.084 557.711,51.775C565.222,43.842 572.742,35.917 580.218,27.951C580.962,27.158 581.7,26.868 582.766,26.873C590.582,26.913 598.398,26.895 606.215,26.895L607.952,26.895Z" style="fill:white;fill-rule:nonzero;"/>
        <path d="M387.938,65.368C388.052,66.545 388.14,68.466 388.438,70.355C389.234,75.4 391.085,79.945 395.03,83.422C401.644,89.249 416.488,89.837 422.06,76.741C425.343,69.024 425.273,61.122 422.391,53.314C419.939,46.669 415.233,42.62 407.963,42.075C400.673,41.529 393.902,44.21 390.438,51.809C388.579,55.889 388.084,60.222 387.938,65.368ZM447.045,64.377C446.928,72.78 445.253,80.443 441.028,87.408C435.58,96.39 427.483,101.649 417.311,103.759C407.846,105.722 398.441,105.37 389.332,101.972C377.181,97.441 369.574,88.766 366.69,76.129C364.601,66.974 364.838,57.844 367.938,48.921C371.71,38.064 379.155,30.745 390.04,27.111C400.809,23.516 411.742,23.544 422.492,27.061C434.621,31.029 441.854,39.771 445.291,51.844C446.487,56.047 446.972,60.358 447.045,64.377Z" style="fill:white;fill-rule:nonzero;"/>
        <path d="M212.012,64.636C211.892,64.657 212.492,71.12 213.364,74.202C215.678,82.384 221.733,87.127 229.642,87.304C237.808,87.487 243.991,83.099 246.774,74.957C249.247,67.721 249.082,60.435 246.41,53.304C243.929,46.685 239.241,42.61 231.963,42.074C224.582,41.53 217.753,44.265 214.336,52.046C212.573,56.06 212.006,60.296 212.012,64.636ZM189.39,65.083C189.461,58.189 190.406,51.906 193.075,45.974C197.448,36.257 204.868,29.897 214.975,26.783C224.966,23.705 235.09,23.723 245.124,26.628C256.353,29.88 264.005,37.167 268.017,48.07C272.378,59.922 272.224,71.808 267.097,83.413C262.688,93.393 255.062,99.961 244.552,102.91C233.059,106.135 221.64,105.763 210.655,100.842C198.745,95.506 192.261,85.957 190.096,73.288C189.881,72.031 189.705,70.762 189.604,69.491C189.476,67.877 189.443,66.255 189.39,65.083Z" style="fill:white;fill-rule:nonzero;"/>
        <path d="M510.188,76.181C515.822,79.089 521.305,81.919 526.818,84.765C520.612,95.244 512.03,102.356 499.857,104.389C487.798,106.402 476.959,103.439 467.626,95.561C461.451,90.349 458.062,83.421 456.596,75.576C454.648,65.152 455.299,54.946 459.804,45.197C464.928,34.11 473.666,27.621 485.613,25.417C494.233,23.826 502.62,24.595 510.589,28.444C517.156,31.617 522.211,36.43 525.978,42.886C520.511,46.001 515.09,49.091 509.586,52.227C508.31,49.605 506.815,47.266 504.609,45.403C497.118,39.078 486.686,40.767 482.179,49.439C477.226,58.968 477,68.83 481.719,78.571C484.115,83.517 488.134,86.699 493.703,87.299C500.599,88.041 506.648,84.285 509.475,77.869C509.697,77.366 509.903,76.856 510.188,76.181Z" style="fill:white;fill-rule:nonzero;"/>
        <path d="M649.68,88.344C649.662,96.599 642.969,103.136 634.562,103.11C626.327,103.085 619.684,96.413 619.71,88.191C619.735,80.04 626.462,73.48 634.78,73.496C643.063,73.512 649.697,80.123 649.68,88.344Z" style="fill:white;fill-rule:nonzero;"/>
        <path d="M22.61,65.368C22.723,66.545 22.812,68.466 23.11,70.355C23.906,75.4 25.756,79.945 29.702,83.422C36.316,89.249 51.159,89.837 56.731,76.741C60.015,69.024 59.945,61.122 57.063,53.314C54.61,46.669 49.905,42.62 42.635,42.075C35.345,41.529 28.573,44.21 25.11,51.809C23.25,55.889 22.756,60.222 22.61,65.368ZM81.717,64.377C81.599,72.78 79.924,80.443 75.7,87.408C70.252,96.39 62.155,101.649 51.982,103.759C42.518,105.722 33.113,105.37 24.003,101.972C11.853,97.441 4.246,88.766 1.362,76.129C-0.727,66.974 -0.49,57.844 2.609,48.921C6.382,38.064 13.827,30.745 24.711,27.111C35.481,23.516 46.413,23.544 57.163,27.061C69.293,31.029 76.526,39.771 79.962,51.844C81.159,56.047 81.643,60.358 81.717,64.377Z" style="fill:white;fill-rule:nonzero;"/>
    </g>
</svg>
