<?xml version="1.0" encoding="UTF-8" standalone="no"?>
<!DOCTYPE svg PUBLIC "-//W3C//DTD SVG 1.1//EN" "http://www.w3.org/Graphics/SVG/1.1/DTD/svg11.dtd">
<svg width="100%" height="100%" viewBox="0 0 2545 2545" version="1.1" xmlns="http://www.w3.org/2000/svg" xmlns:xlink="http://www.w3.org/1999/xlink" xml:space="preserve" xmlns:serif="http://www.serif.com/" style="fill-rule:evenodd;clip-rule:evenodd;stroke-linejoin:round;stroke-miterlimit:2;">
    <g id="g3344" transform="matrix(3.33333,0,0,-3.33333,-1590.56,4264.56)">
        <g id="text3438">
        </g>
        <g id="text3442" transform="matrix(1,0,0,-1,444.756,771.301)">
            <text x="0px" y="0px" style="font-family:'Helvetica';font-size:10px;fill:white;">Ausgabe Nr<tspan x="52.261px 55.039px " y="0px 0px ">. </tspan>2</text>
        </g>
        <g id="text3446" transform="matrix(1,0,0,-1,511.106,771.301)">
            <text x="0px" y="0px" style="font-family:'Helvetica';font-size:10px;fill:white;">|</text>
        </g>
        <g id="text3450" transform="matrix(1,0,0,-1,516.186,771.301)">
            <text x="0px" y="0px" style="font-family:'Helvetica';font-size:10px;fill:white;">2016</text>
        </g>
        <g id="text3458">
        </g>
        <path id="path3644" d="M477.167,517.415L477.167,1279.37L1239.12,1279.37L1239.12,517.415L477.167,517.415ZM765.887,815.151C762.103,818.735 756.727,820.527 749.759,820.527C745.567,820.527 741.967,819.919 738.959,818.703C735.951,817.487 733.463,815.759 731.503,813.527C729.543,811.295 728.103,808.623 727.191,805.511C726.279,802.407 725.823,798.951 725.823,795.167L725.823,790.911C725.823,786.711 726.239,783.047 727.087,779.903C727.935,776.751 729.351,774.103 731.351,771.935C733.343,769.775 735.951,768.151 739.159,767.071C742.375,765.983 746.343,765.447 751.079,765.447C752.567,765.447 754.087,765.495 755.647,765.599C757.199,765.695 758.719,765.855 760.207,766.055C761.695,766.255 763.063,766.495 764.319,766.767C765.567,767.031 766.663,767.335 767.615,767.679L769.239,776.503C766.391,775.959 763.895,775.591 761.735,775.383C759.567,775.183 757.367,775.079 755.135,775.079C750.135,775.079 746.375,775.655 743.879,776.807C741.375,777.959 739.687,780.015 738.807,782.991L770.655,797.095C771.263,797.367 771.567,797.839 771.567,798.511L771.567,799.935C771.567,806.495 769.679,811.567 765.887,815.151ZM740.583,807.799C742.375,810.199 745.335,811.399 749.455,811.399C752.903,811.399 755.439,810.599 757.063,809.015C758.599,807.511 759.551,805.351 759.935,802.543L737.895,792.735L737.895,795.983C737.895,801.455 738.783,805.399 740.583,807.799ZM685.743,742.031L629.543,742.031L628.223,731.583L650.647,731.583L650.647,669.799L663.327,669.799L663.327,731.583L684.327,731.583L685.743,742.031ZM852.711,669.799L865.087,669.799L865.087,700.543C865.087,705.135 866.015,708.487 867.879,710.583C869.735,712.679 872.663,713.727 876.647,713.727C880.303,713.727 882.903,712.831 884.463,711.039C886.015,709.247 886.791,706.223 886.791,701.959L886.791,669.799L899.167,669.799L899.167,705.311C899.167,708.415 898.695,711.119 897.751,713.423C896.799,715.719 895.487,717.631 893.791,719.151C892.103,720.679 890.095,721.807 887.759,722.551C885.423,723.295 882.839,723.671 879.999,723.671C876.551,723.671 873.487,723.079 870.815,721.895C868.143,720.711 865.967,719.007 864.279,716.775L863.359,723.263L852.711,721.743L852.711,669.799ZM921.287,743.551C918.647,743.551 916.735,742.959 915.551,741.775C914.367,740.591 913.775,738.919 913.775,736.751C913.775,734.591 914.367,732.911 915.551,731.735C916.735,730.551 918.647,729.959 921.287,729.959C923.919,729.959 925.831,730.551 927.015,731.735C928.199,732.911 928.791,734.591 928.791,736.751C928.791,738.919 928.199,740.591 927.015,741.775C925.831,742.959 923.919,743.551 921.287,743.551ZM915.095,721.535L915.095,669.799L927.471,669.799L927.471,723.263L915.095,721.535ZM1036.82,718.287C1033.04,721.871 1027.66,723.663 1020.7,723.663C1016.5,723.663 1012.89,723.055 1009.89,721.847C1006.88,720.623 1004.39,718.903 1002.43,716.671C1000.47,714.439 999.031,711.767 998.119,708.655C997.207,705.543 996.751,702.095 996.751,698.311L996.751,694.047C996.751,689.855 997.175,686.183 998.023,683.039C998.863,679.895 1000.29,677.239 1002.28,675.079C1004.28,672.911 1006.88,671.287 1010.1,670.207C1013.3,669.127 1017.28,668.583 1022.01,668.583C1023.5,668.583 1025.02,668.639 1026.58,668.743C1028.13,668.839 1029.65,668.991 1031.14,669.191C1032.62,669.399 1034,669.631 1035.25,669.903C1036.5,670.175 1037.6,670.479 1038.55,670.815L1040.17,679.639C1037.33,679.103 1034.83,678.735 1032.66,678.527C1030.5,678.319 1028.3,678.223 1026.07,678.223C1021.06,678.223 1017.31,678.799 1014.81,679.951C1012.31,681.095 1010.62,683.159 1009.74,686.135L1041.59,700.231C1042.2,700.503 1042.5,700.983 1042.5,701.655L1042.5,703.071C1042.5,709.631 1040.61,714.703 1036.82,718.287ZM1011.51,710.935C1013.3,713.335 1016.26,714.535 1020.39,714.535C1023.84,714.535 1026.38,713.743 1028,712.151C1029.54,710.647 1030.49,708.487 1030.87,705.687L1008.82,695.871L1008.82,699.119C1008.82,704.599 1009.72,708.535 1011.51,710.935ZM699.343,818.399L699.343,766.663L711.719,766.663L711.719,820.127L699.343,818.399ZM631.287,838.887C630.535,838.887 629.559,838.087 629.559,837.079L629.559,766.663L653.903,766.663C659.855,766.663 664.839,767.455 668.863,769.047C672.887,770.631 676.079,772.871 678.447,775.743C680.815,778.615 682.503,782.031 683.519,785.991C684.535,789.943 685.047,794.319 685.047,799.119L685.047,806.527C685.047,811.199 684.567,815.503 683.623,819.463C682.671,823.415 681.023,826.831 678.655,829.703C676.287,832.583 673.103,834.831 669.119,836.455C665.127,838.079 660.087,838.871 654.007,838.871C654.007,838.871 631.831,838.887 631.287,838.887ZM642.239,777.215L642.239,828.343L652.991,828.343C656.231,828.343 659.039,827.983 661.407,827.271C663.775,826.567 665.751,825.343 667.343,823.623C668.927,821.895 670.111,819.583 670.895,816.671C671.671,813.767 672.055,810.143 672.055,805.823L672.055,799.831C672.055,795.503 671.655,791.887 670.839,788.983C670.031,786.071 668.831,783.759 667.239,782.031C665.647,780.303 663.655,779.071 661.255,778.327C658.855,777.583 656.063,777.215 652.887,777.215L642.239,777.215ZM776.023,670.719L777.543,679.639C775.919,679.303 774.183,679.015 772.319,678.783C770.463,678.543 768.583,678.423 766.687,678.423C761.215,678.423 757.311,679.623 754.975,682.023C752.639,684.431 751.471,688.535 751.471,694.351L751.471,698.615C751.471,704.151 752.559,708.079 754.719,710.383C756.887,712.679 760.639,713.831 765.983,713.831C767.943,713.831 769.735,713.695 771.359,713.423C772.983,713.151 774.471,712.815 775.823,712.407L777.855,721.335C775.887,721.943 773.743,722.455 771.407,722.855C769.079,723.263 766.591,723.463 763.951,723.463C759.551,723.463 755.783,722.887 752.639,721.743C749.495,720.591 746.911,718.935 744.887,716.775C742.855,714.607 741.351,711.999 740.367,708.959C739.383,705.919 738.895,702.535 738.895,698.815L738.895,693.639C738.895,689.927 739.287,686.543 740.063,683.495C740.839,680.455 742.143,677.831 743.967,675.631C745.791,673.439 748.231,671.751 751.271,670.559C754.319,669.383 758.135,668.791 762.735,668.791C765.103,668.791 767.351,668.943 769.479,669.247C771.607,669.551 773.791,670.039 776.023,670.719ZM949.407,1037.34L828.847,910.007L956.135,782.647L1093.01,782.647L958.935,910.007L1086.42,1037.34L949.407,1037.34ZM722.567,718.287C718.783,721.871 713.407,723.663 706.439,723.663C702.239,723.663 698.647,723.055 695.631,721.847C692.623,720.623 690.135,718.903 688.175,716.671C686.215,714.439 684.775,711.767 683.871,708.655C682.951,705.543 682.495,702.095 682.495,698.311L682.495,694.047C682.495,689.855 682.919,686.183 683.767,683.039C684.607,679.895 686.031,677.239 688.023,675.079C690.023,672.911 692.623,671.287 695.839,670.207C699.047,669.127 703.023,668.583 707.759,668.583C709.247,668.583 710.767,668.639 712.319,668.743C713.879,668.839 715.399,668.991 716.887,669.191C718.375,669.399 719.743,669.631 720.991,669.903C722.247,670.175 723.343,670.479 724.295,670.815L725.919,679.639C723.071,679.103 720.575,678.735 718.407,678.527C716.239,678.319 714.047,678.223 711.815,678.223C706.807,678.223 703.055,678.799 700.551,679.951C698.055,681.095 696.359,683.159 695.479,686.135L727.335,700.231C727.943,700.503 728.247,700.983 728.247,701.655L728.247,703.071C728.247,709.631 726.351,714.703 722.567,718.287ZM697.255,710.935C699.047,713.335 702.007,714.535 706.135,714.535C709.583,714.535 712.119,713.743 713.743,712.151C715.279,710.647 716.231,708.487 716.615,705.687L694.567,695.871L694.567,699.119C694.567,704.599 695.463,708.535 697.255,710.935ZM790.327,669.799L802.703,669.799L802.703,700.543C802.703,705.135 803.631,708.487 805.495,710.583C807.351,712.679 810.271,713.727 814.263,713.727C817.919,713.727 820.519,712.831 822.079,711.039C823.631,709.247 824.407,706.223 824.407,701.959L824.407,669.799L836.783,669.799L836.783,705.311C836.783,708.415 836.311,711.119 835.367,713.423C834.415,715.719 833.103,717.631 831.407,719.151C829.719,720.679 827.711,721.807 825.375,722.551C823.039,723.295 820.455,723.671 817.615,723.671C814.503,723.671 811.663,723.175 809.095,722.199C806.519,721.215 804.391,719.783 802.703,717.887L802.703,745.983L790.327,744.263L790.327,669.799ZM1086.22,711.703L1088.45,722.047C1087.3,722.455 1086.21,722.735 1085.16,722.911C1084.1,723.079 1082.91,723.159 1081.56,723.159C1078.04,723.159 1075.03,722.567 1072.53,721.391C1070.02,720.199 1067.93,718.463 1066.24,716.159L1065.33,723.263L1054.68,721.743L1054.68,669.799L1067.05,669.799L1067.05,698.407C1067.05,703.207 1068.05,706.775 1070.04,709.111C1072.04,711.447 1075.26,712.607 1079.73,712.607C1080.94,712.607 1082.13,712.511 1083.28,712.311C1084.43,712.103 1085.41,711.903 1086.22,711.703ZM955.975,693.999L976.671,669.799L991.175,669.799L965.615,698.967L990.263,722.455L976.263,722.455L955.975,703.127L955.975,745.983L944.103,744.263L944.103,669.799L955.975,669.799L955.975,693.999ZM705.535,840.407C702.895,840.407 700.983,839.815 699.799,838.631C698.615,837.447 698.031,835.775 698.031,833.615C698.031,831.447 698.615,829.775 699.799,828.591C700.983,827.407 702.895,826.815 705.535,826.815C708.167,826.815 710.079,827.407 711.263,828.591C712.447,829.775 713.039,831.447 713.039,833.615C713.039,835.775 712.447,837.447 711.263,838.631C710.079,839.815 708.167,840.407 705.535,840.407ZM815.055,1037.23L894.431,1037.23L894.431,1126.28L629.567,1126.28L629.567,1037.23L709.095,1037.23L709.095,910.007L815.055,910.007L815.055,1037.23Z" style="fill:white;"/>
    </g>
</svg>
