<?xml version="1.0" standalone="no"?>
<!DOCTYPE svg PUBLIC "-//W3C//DTD SVG 20010904//EN"
 "http://www.w3.org/TR/2001/REC-SVG-20010904/DTD/svg10.dtd">
<svg version="1.0" xmlns="http://www.w3.org/2000/svg"
 width="398.000000pt" height="123.000000pt" viewBox="0 0 398.000000 123.000000"
 preserveAspectRatio="xMidYMid meet">
<metadata>
Created by potrace 1.15, written by Peter Selinger 2001-2017
</metadata>
<g transform="translate(0.000000,123.000000) scale(0.100000,-0.100000)"
fill="#000000" stroke="none">
<path d="M1010 929 c0 -9 26 -105 66 -242 5 -14 14 -17 47 -15 l41 3 14 57 c8
32 17 56 21 53 4 -2 14 -29 21 -60 l13 -55 42 0 41 0 34 123 c18 67 35 128 38
135 3 8 -8 12 -37 12 -43 0 -47 -5 -67 -108 -9 -44 -18 -34 -39 43 -17 64 -18
66 -48 63 -29 -3 -32 -7 -51 -78 l-20 -74 -19 77 -19 77 -39 0 c-22 0 -39 -5
-39 -11z"/>
<path d="M1400 805 l0 -135 85 0 85 0 0 35 0 35 -50 0 c-38 0 -50 4 -50 15 0
11 12 15 45 15 45 0 45 0 45 35 0 35 0 35 -45 35 -33 0 -45 4 -45 15 0 11 12
15 50 15 l50 0 0 35 0 35 -85 0 -85 0 0 -135z"/>
<path d="M1777 805 l-46 -135 45 0 c32 0 44 4 44 15 0 11 12 15 45 15 33 0 45
-4 45 -15 0 -11 12 -15 44 -15 l45 0 -46 135 -45 135 -43 0 -43 0 -45 -135z"/>
<path d="M2010 805 l0 -135 35 0 c34 0 35 1 35 40 0 22 4 40 10 40 5 0 19 -18
30 -40 19 -37 24 -40 60 -40 22 0 40 3 40 8 0 4 -11 24 -24 46 -24 37 -24 38
-5 57 21 21 25 78 8 111 -15 28 -70 48 -134 48 l-55 0 0 -135z"/>
<path d="M2250 805 l0 -135 85 0 85 0 0 35 0 35 -50 0 c-38 0 -50 4 -50 15 0
11 12 15 45 15 45 0 45 0 45 35 0 35 0 35 -45 35 -33 0 -45 4 -45 15 0 11 12
15 50 15 l50 0 0 35 0 35 -85 0 -85 0 0 -135z"/>
<path d="M2617 805 l-46 -135 45 0 c32 0 44 4 44 15 0 11 12 15 45 15 33 0 45
-4 45 -15 0 -11 12 -15 44 -15 l45 0 -46 135 -45 135 -43 0 -43 0 -45 -135z"/>
<path d="M3010 805 l0 -135 35 0 c33 0 35 2 35 35 0 21 5 35 13 35 6 0 29 5
50 11 50 14 75 61 61 116 -12 49 -57 73 -136 73 l-58 0 0 -135z"/>
<path d="M3310 805 l0 -135 85 0 85 0 0 35 0 35 -50 0 c-38 0 -50 4 -50 15 0
11 12 15 45 15 45 0 45 0 45 35 0 35 0 35 -45 35 -33 0 -45 4 -45 15 0 11 12
15 50 15 l50 0 0 35 0 35 -85 0 -85 0 0 -135z"/>
<path d="M3560 900 c0 -38 2 -40 30 -40 l30 0 0 -95 0 -95 40 0 40 0 0 95 0
95 30 0 c28 0 30 2 30 40 l0 40 -100 0 -100 0 0 -40z"/>
<path d="M167 903 c-4 -3 -7 -13 -7 -22 0 -9 -16 -36 -35 -60 -31 -38 -34 -48
-29 -85 3 -22 10 -55 15 -73 7 -22 6 -45 -2 -75 -14 -55 -5 -145 21 -201 33
-70 76 -113 148 -149 63 -31 73 -33 172 -33 111 0 143 8 214 54 29 19 49 45
78 106 30 60 39 72 36 48 -5 -39 9 -43 22 -7 19 50 6 128 -14 82 -2 -7 -3 10
-1 38 3 29 14 68 25 86 17 30 39 138 40 201 0 21 -46 23 -72 3 -24 -18 -22
-31 7 -50 20 -13 25 -25 25 -56 0 -41 -17 -90 -32 -90 -4 0 -8 6 -8 13 0 33
-63 137 -103 169 -80 65 -91 69 -159 62 -116 -11 -176 -30 -260 -87 -32 -21
-68 -51 -80 -67 -12 -17 -25 -30 -29 -30 -4 0 -11 20 -14 44 -6 39 -4 49 21
80 16 20 36 36 45 36 18 0 31 33 22 56 -5 14 -35 19 -46 7z m373 -85 c16 -21
20 -21 44 -8 19 10 29 11 37 3 18 -18 6 -45 -31 -66 -19 -10 -38 -24 -42 -31
-13 -19 -8 -70 7 -90 8 -11 15 -30 15 -42 0 -32 26 -37 47 -10 14 19 30 25 81
29 l62 5 0 -68 c0 -101 -15 -124 -55 -80 -10 11 -33 22 -51 26 -19 3 -40 16
-49 30 -11 18 -25 24 -51 24 -47 0 -81 -37 -90 -98 -4 -26 -13 -56 -20 -66 -9
-13 -11 -33 -8 -57 5 -32 2 -42 -19 -63 -42 -41 -75 -34 -106 25 -21 39 -42
47 -65 24 -9 -9 -21 -13 -27 -10 -12 8 -69 85 -69 94 0 4 28 5 62 3 51 -3 72
1 108 20 58 29 67 60 16 51 -23 -4 -42 0 -57 11 -13 9 -38 16 -55 16 -17 0
-37 7 -44 15 -7 8 -23 15 -37 15 -22 0 -23 3 -17 38 12 65 42 121 90 167 48
47 68 55 77 31 3 -8 23 -22 45 -31 22 -10 45 -29 51 -42 6 -12 17 -23 25 -23
15 0 66 76 66 99 0 17 28 81 35 81 4 0 15 -10 25 -22z m172 -104 c15 -27 28
-57 28 -66 0 -27 -20 -32 -36 -9 -8 12 -20 21 -26 21 -6 0 -3 -9 7 -20 18 -19
17 -20 -2 -20 -12 0 -23 7 -27 15 -3 8 -10 15 -17 15 -6 0 -9 -7 -6 -15 8 -19
-13 -31 -24 -14 -4 7 -11 10 -15 6 -4 -3 -2 -12 4 -20 6 -7 7 -18 2 -27 -6
-10 -10 -3 -15 23 -4 21 -11 40 -16 43 -5 3 -9 18 -9 35 0 21 5 29 18 30 9 0
28 13 42 29 35 40 60 33 92 -26z m-152 -209 c18 -21 35 -19 19 3 -7 9 -1 6 13
-7 26 -23 96 -64 131 -77 25 -9 22 -38 -3 -31 -22 6 -26 -3 -9 -20 15 -15 -10
-53 -30 -45 -10 4 -13 1 -8 -11 7 -19 -18 -44 -28 -27 -3 5 -11 10 -17 10 -7
0 -6 -5 1 -14 10 -12 8 -17 -7 -25 -11 -6 -22 -8 -25 -4 -3 3 -13 -2 -22 -11
-19 -19 -56 -21 -73 -4 -9 9 -12 9 -12 -4 0 -11 -10 -15 -40 -15 l-40 0 25 23
c16 15 32 21 42 17 14 -6 13 -1 -5 29 -27 43 -28 60 -4 51 14 -6 15 -4 5 9
-16 18 -5 32 14 17 9 -8 13 -8 13 -1 0 6 -4 14 -10 17 -17 11 -12 75 6 75 11
0 14 6 9 21 -7 20 -4 21 21 15 24 -6 26 -5 15 8 -8 9 -9 16 -3 16 5 0 15 -7
22 -15z"/>
<path d="M1030 415 l0 -135 35 0 c35 0 35 0 35 45 l0 45 45 0 c45 0 45 0 45
35 0 35 0 35 -45 35 -33 0 -45 4 -45 15 0 11 12 15 50 15 l50 0 0 40 0 40 -85
0 -85 0 0 -135z"/>
<path d="M1220 415 l0 -135 35 0 c34 0 35 1 35 40 0 22 4 40 10 40 5 0 19 -18
30 -40 19 -37 24 -40 60 -40 22 0 40 3 40 8 0 4 -11 24 -24 46 -24 37 -24 38
-5 57 21 21 25 78 8 111 -15 28 -70 48 -134 48 l-55 0 0 -135z"/>
<path d="M1450 415 l0 -135 85 0 85 0 0 35 0 35 -50 0 c-38 0 -50 4 -50 15 0
11 12 15 45 15 45 0 45 0 45 35 0 35 0 35 -45 35 -33 0 -45 4 -45 15 0 11 12
15 50 15 l50 0 0 35 0 35 -85 0 -85 0 0 -135z"/>
<path d="M1650 415 l0 -135 85 0 85 0 0 35 0 35 -50 0 c-38 0 -50 4 -50 15 0
11 12 15 45 15 45 0 45 0 45 35 0 35 0 35 -45 35 -33 0 -45 4 -45 15 0 11 12
15 50 15 l50 0 0 35 0 35 -85 0 -85 0 0 -135z"/>
<path d="M2038 543 l-98 -4 0 -129 0 -130 85 0 85 0 0 30 c0 29 -1 30 -50 30
-43 0 -50 3 -50 20 0 17 7 20 45 20 43 0 45 1 45 30 0 20 -5 30 -15 30 -12 0
-13 3 -3 19 7 11 16 17 20 15 4 -3 8 0 8 7 0 29 19 -11 50 -103 l32 -98 42 0
42 0 34 105 c19 58 38 105 43 105 4 0 5 5 1 12 -4 7 -3 8 4 4 8 -5 12 -45 12
-117 l0 -109 85 0 85 0 0 30 c0 29 -1 30 -50 30 -43 0 -50 3 -50 20 0 17 7 20
45 20 43 0 45 1 45 30 0 29 -2 30 -45 30 -38 0 -45 3 -45 20 0 17 7 20 50 20
48 0 50 1 50 29 0 27 -3 29 -54 35 -30 3 -87 3 -128 0 l-73 -7 -26 -86 -26
-86 -22 71 c-26 88 -26 84 4 84 14 0 25 4 25 9 0 14 -28 21 -68 19 -20 -1 -81
-4 -134 -5z"/>
<path d="M2793 543 c-7 -3 -13 -18 -13 -34 0 -26 3 -29 35 -29 l35 0 0 -100 0
-100 30 0 30 0 0 99 0 99 26 0 c14 0 35 4 47 10 34 16 61 25 70 24 4 -1 7 4 7
12 0 8 -12 17 -27 20 -32 6 -222 5 -240 -1z"/>
<path d="M2560 410 l0 -130 35 0 34 0 3 58 3 57 40 -57 c32 -46 45 -58 68 -58
l27 0 0 130 0 130 -35 0 -34 0 -3 -57 -3 -58 -40 57 c-32 46 -45 58 -67 58
l-28 0 0 -130z"/>
</g>
</svg>
