<?xml version="1.0" encoding="UTF-8" standalone="no"?>
<svg
   id="Ebene_1"
   data-name="Ebene 1"
   viewBox="0 0 138.15 99.76"
   version="1.1"
   sodipodi:docname="HackHPI_white.svg"
   inkscape:version="1.2.1 (9c6d41e410, 2022-07-14)"
   xmlns:inkscape="http://www.inkscape.org/namespaces/inkscape"
   xmlns:sodipodi="http://sodipodi.sourceforge.net/DTD/sodipodi-0.dtd"
   xmlns="http://www.w3.org/2000/svg"
   xmlns:svg="http://www.w3.org/2000/svg"
   xmlns:rdf="http://www.w3.org/1999/02/22-rdf-syntax-ns#"
   xmlns:cc="http://creativecommons.org/ns#"
   xmlns:dc="http://purl.org/dc/elements/1.1/">
  <sodipodi:namedview
     id="namedview31"
     pagecolor="#ffffff"
     bordercolor="#666666"
     borderopacity="1.0"
     inkscape:pageshadow="2"
     inkscape:pageopacity="0.0"
     inkscape:pagecheckerboard="0"
     showgrid="true"
     inkscape:zoom="4.375501"
     inkscape:cx="63.535581"
     inkscape:cy="63.421309"
     inkscape:window-width="1128"
     inkscape:window-height="682"
     inkscape:window-x="-6"
     inkscape:window-y="-6"
     inkscape:window-maximized="1"
     inkscape:current-layer="Ebene_1"
     inkscape:showpageshadow="2"
     inkscape:deskcolor="#d1d1d1">
    <inkscape:grid
       type="xygrid"
       id="grid795" />
  </sodipodi:namedview>
  <defs
     id="defs4">
    <style
       id="style2">.cls-1{fill:#fff;}</style>
  </defs>
  <title
     id="title6">white</title>
  <path
     class="cls-1"
     d="M37.51,93.58a1,1,0,0,1-.73.31h-5.2a1,1,0,0,1-.73-.31,1,1,0,0,1-.32-.73V76.78H15.62V92.85a1.06,1.06,0,0,1-1,1H9.38a1.06,1.06,0,0,1-1.05-1v-37a.92.92,0,0,1,.31-.71,1.08,1.08,0,0,1,.74-.29h5.19a1.08,1.08,0,0,1,.74.29.92.92,0,0,1,.31.71V70.38H30.53V55.89a.93.93,0,0,1,.32-.71,1.05,1.05,0,0,1,.73-.29h5.2a1.05,1.05,0,0,1,.73.29.93.93,0,0,1,.32.71v37A1,1,0,0,1,37.51,93.58Z"
     id="path8" />
  <path
     class="cls-1"
     d="M72.84,67.07A12.41,12.41,0,0,1,71.6,72.9a10.35,10.35,0,0,1-3.31,3.8,13.25,13.25,0,0,1-4.82,2,26.92,26.92,0,0,1-5.79.6c-.7,0-1.51,0-2.42-.07L53,79.14V92.85a1.07,1.07,0,0,1-.29.73.92.92,0,0,1-.71.31H46.75a1,1,0,0,1-.73-.31,1,1,0,0,1-.32-.73V56.73a1.33,1.33,0,0,1,.45-1.13,2.56,2.56,0,0,1,1.24-.45c1.36-.21,2.94-.37,4.73-.49s3.65-.19,5.57-.19a27.59,27.59,0,0,1,5.79.58,13.47,13.47,0,0,1,4.81,2,10.34,10.34,0,0,1,3.32,3.76,12.33,12.33,0,0,1,1.23,5.8Zm-7.3-.5c0-2.21-.65-3.79-2-4.72a10.25,10.25,0,0,0-5.91-1.39l-1.07,0-1.34.06L54,60.59a9.41,9.41,0,0,0-1,.08V73.21l1,0,1.37.05,1.36,0,1,0q4.26,0,6.06-1.58A6,6,0,0,0,65.54,67Z"
     id="path10" />
  <path
     class="cls-1"
     d="M85.54,93.58a1,1,0,0,1-.73.31h-5.2a1,1,0,0,1-.73-.31,1,1,0,0,1-.32-.73v-37a.93.93,0,0,1,.32-.71,1.05,1.05,0,0,1,.73-.29h5.2a1.05,1.05,0,0,1,.73.29.9.9,0,0,1,.32.71v37A1,1,0,0,1,85.54,93.58Z"
     id="path12" />
  <path
     class="cls-1"
     d="M35.32,44.92a1,1,0,0,1-.74.32H31.91a1.06,1.06,0,0,1-1.05-1.05V26.81H12.91V44.19a1,1,0,0,1-.32.74,1,1,0,0,1-.73.31H9.18a1,1,0,0,1-.74-.32,1,1,0,0,1-.31-.73V7.29a1.06,1.06,0,0,1,1-1h2.68a1,1,0,0,1,.73.31,1,1,0,0,1,.32.74V22.51h18V7.29a1.06,1.06,0,0,1,1.05-1h2.67a1.06,1.06,0,0,1,1.05,1v36.9A1,1,0,0,1,35.32,44.92Z"
     id="path14" />
  <path
     class="cls-1"
     d="M98.26,44.58a1.86,1.86,0,0,1-.74.34c-.56.11-1.12.21-1.68.29s-1.17.16-1.83.21-1.42.1-2.26.14-1.82,0-2.94,0a17,17,0,0,1-4.88-.74,11,11,0,0,1-4.46-2.6,13.7,13.7,0,0,1-3.26-5A21.29,21.29,0,0,1,75,29.39v-7.3a21.43,21.43,0,0,1,1.26-7.95,13.44,13.44,0,0,1,3.26-5A11.32,11.32,0,0,1,83.93,6.6a17,17,0,0,1,4.88-.73,38.69,38.69,0,0,1,4.8.29c1.53.19,2.86.38,4,.55.56.07.84.3.84.68v2.68a.77.77,0,0,1-.11.42c-.07.1-.24.16-.52.16h-.16l-1.76-.13c-.68-.06-1.41-.11-2.2-.16s-1.6-.1-2.44-.13-1.65-.06-2.42-.06a10.45,10.45,0,0,0-3.59.61,7,7,0,0,0-2.89,2,9.86,9.86,0,0,0-1.94,3.68,19.33,19.33,0,0,0-.71,5.64v7.3A19.15,19.15,0,0,0,80.44,35a9.81,9.81,0,0,0,1.94,3.67,7.2,7.2,0,0,0,2.89,2,10,10,0,0,0,3.59.63c.74,0,1.52,0,2.34,0l2.41-.1c.79,0,1.52-.08,2.18-.14l1.73-.13h.21a.74.74,0,0,1,.84.84v2.15A.81.81,0,0,1,98.26,44.58Z"
     id="path16" />
  <path
     class="cls-1"
     d="M130,44.71c0,.35-.23.53-.68.53h-4.1a1.49,1.49,0,0,1-1.15-.53l-14.81-18V44.19a1.07,1.07,0,0,1-.26.73.85.85,0,0,1-.68.32h-2.89a.84.84,0,0,1-.68-.32,1.07,1.07,0,0,1-.26-.73v-37a1,1,0,0,1,1-1h2.79a.91.91,0,0,1,.7.29.93.93,0,0,1,.29.7v17L124.4,6.71a2.45,2.45,0,0,1,.45-.37,1.27,1.27,0,0,1,.6-.1h3.78c.49,0,.74.19.74.57a.77.77,0,0,1-.21.53L114,25.19l15.81,18.9A.85.85,0,0,1,130,44.71Z"
     id="path18" />
  <path
     class="cls-1"
     d="M71.38,44,61.67,9.81a5.3,5.3,0,0,0-.92-2,5.06,5.06,0,0,0-1.34-1.21A4.47,4.47,0,0,0,57.89,6a7.35,7.35,0,0,0-1.52-.16,7.17,7.17,0,0,0-1.55.18,5.62,5.62,0,0,0-1.55.63,5.22,5.22,0,0,0-1.34,1.21,5.3,5.3,0,0,0-.91,2L41.3,44a1,1,0,0,0,0,.37c0,.56.3.84.89.84h3.1a.85.85,0,0,0,.58-.24,1.28,1.28,0,0,0,.37-.55L55.32,11c.17-.63.52-.94,1-.94s.82.31,1,.94l9.18,33.49a1.5,1.5,0,0,0,.32.55.73.73,0,0,0,.58.24h3.09q.9,0,.9-.84A.83.83,0,0,0,71.38,44Z"
     id="path20" />
  <metadata
     id="metadata1072">
    <rdf:RDF>
      <cc:Work
         rdf:about="">
        <dc:title>white</dc:title>
      </cc:Work>
    </rdf:RDF>
  </metadata>
</svg>
