<?xml version="1.0" encoding="utf-8"?>
<!-- Generator: Adobe Illustrator 27.8.0, SVG Export Plug-In . SVG Version: 6.00 Build 0)  -->
<svg version="1.1" id="Ebene_1" xmlns="http://www.w3.org/2000/svg" xmlns:xlink="http://www.w3.org/1999/xlink" x="0px" y="0px"
	 viewBox="0 0 890 156" style="enable-background:new 0 0 890 156;" xml:space="preserve">
<style type="text/css">
	.st0{fill:url(#SVGID_1_);}
	.st1{fill:url(#SVGID_00000085947280018153665390000015060749546712042651_);}
	.st2{fill:url(#SVGID_00000168832206271049641540000011038174031887568525_);}
	.st3{fill:#FFFFFF;}
	.st4{fill:url(#SVGID_00000135661360725332878920000008227593349389437834_);}
	.st5{fill:url(#SVGID_00000117660573099340912300000014609049748247499956_);}
	.st6{fill:url(#SVGID_00000017501692007381274620000006830254230091516079_);}
	.st7{fill:url(#SVGID_00000152973494702488331140000014026400517894347685_);}
	.st8{fill:url(#SVGID_00000108270026617018741450000006318041290117071245_);}
	.st9{fill:url(#SVGID_00000057858274835744579560000009686597146693378205_);}
	.st10{fill:url(#SVGID_00000039834759445234725860000013153266448974724736_);}
	.st11{fill:url(#SVGID_00000093865623108412162970000000284644567084388756_);}
	.st12{fill:url(#SVGID_00000000911454156049443170000003585761186556584104_);}
	.st13{fill:url(#SVGID_00000011729763163100388230000017008441155377589896_);}
	.st14{fill:url(#SVGID_00000059298594482694077230000007473520668726281401_);}
	.st15{fill:url(#SVGID_00000152972407443509322740000001989998315829577603_);}
	.st16{fill:url(#SVGID_00000018200837220911098730000003344219360309975181_);}
	.st17{fill:url(#SVGID_00000026863789938337916970000006283950604294184122_);}
	.st18{fill:url(#SVGID_00000030449469806686166810000013634424965563362470_);}
	.st19{fill:url(#SVGID_00000112607827599991433730000000406641313560800432_);}
	.st20{fill:url(#SVGID_00000140721329147662114300000005721699570642786204_);}
	.st21{fill:url(#SVGID_00000001644934191012482390000017608045661333541275_);}
	.st22{fill:url(#SVGID_00000182523496204968054310000012857073769159021209_);}
	.st23{fill:url(#SVGID_00000132072690854386429610000010918061586641739932_);}
	.st24{fill:url(#SVGID_00000108307450482886339180000015473368988723946425_);}
	.st25{fill:url(#SVGID_00000129202660223096417720000001331586741109748641_);}
	.st26{fill:url(#SVGID_00000111191489896221592950000006413893408084280721_);}
	.st27{fill:url(#SVGID_00000013896526220415899590000016882769750884676745_);}
	.st28{fill:url(#SVGID_00000133526874400584509760000006939270718188355993_);}
	.st29{fill:url(#SVGID_00000083782064450216629480000016197313591137710250_);}
</style>
<path class="st3" d="M21.8,144.6c0.1,0,0.1,0,0.2,0"/>
<g>
	<path class="st3" d="M115.9,111.2C106.7,124.4,91,131,75.4,131c-15.7,0-31.3-6.6-40.6-19.8c9.4,0.5,17.5-6,22.1-16.4
		c1.7-4.5,4.5-8.7,8.5-11.3c3.1-2.2,6.6-3.2,10-3.1c3.4-0.1,6.9,0.9,10,3.1c4,2.6,6.8,6.8,8.5,11.3
		C98.4,105.2,106.5,111.7,115.9,111.2z"/>
	<path class="st3" d="M116.2,100.6c-8.4,1.8-15.3-12.1-15.5-22.4c-6.7,1.4-12-5.1-14.7-14.5c-4.7,12.8-16.7,12.8-21.4,0
		c-2.7,9.3-8,15.9-14.7,14.5c-0.1,10.3-7,24.2-15.5,22.4c-15.9-2.7-11.4-46.1,6.1-43.1c0-16,14.7-32.5,23.2-15.2
		c4.2-16.9,19.1-16.9,23.3,0c8.5-17.3,23.1-0.8,23.2,15.2C127.7,54.4,132.1,97.8,116.2,100.6z"/>
	<line class="st3" x1="97.9" y1="91.2" x2="97.9" y2="91.2"/>
</g>
<g>
	<path class="st3" d="M207.9,57.6c5.3,3.3,9.5,8,12.5,13.9c3.1,5.9,4.6,12.7,4.6,20.2c0,7.5-1.5,14.3-4.5,20.3
		c-3,6-7.1,10.7-12.4,14c-5.2,3.3-11,5-17.3,5c-4.5,0-8.8-0.9-12.8-2.8c-4-1.8-7.3-4.1-10-6.7v0.8c0,2.5-0.8,4.5-2.4,6.2
		c-1.6,1.6-3.6,2.5-6.1,2.5c-2.5,0-4.5-0.8-6.1-2.4c-1.6-1.6-2.4-3.7-2.4-6.2V33.6c0-2.5,0.8-4.5,2.4-6.2c1.6-1.6,3.6-2.5,6.1-2.5
		c2.5,0,4.5,0.8,6.1,2.5c1.6,1.6,2.4,3.7,2.4,6.2v29.6c2.3-2.8,5.4-5.3,9.5-7.4c4.1-2.1,8.3-3.2,12.7-3.2
		C196.7,52.5,202.6,54.2,207.9,57.6z M202.9,108.7c3.9-4.5,5.8-10.2,5.8-17s-1.9-12.4-5.7-16.9c-3.8-4.5-8.8-6.7-14.9-6.7
		c-6.1,0-11.1,2.2-15,6.7c-3.9,4.5-5.8,10.1-5.8,16.9s1.9,12.4,5.8,17c3.9,4.5,8.9,6.8,15,6.8C194.1,115.5,199,113.2,202.9,108.7z"
		/>
	<path class="st3" d="M302.4,95.5c-1.7,1.4-3.7,2.1-5.9,2.1h-46.7c1.1,5.6,3.7,9.9,7.8,13.1c4.1,3.2,8.6,4.7,13.7,4.7
		c3.9,0,6.9-0.4,9-1.1c2.2-0.7,3.9-1.5,5.2-2.3c1.3-0.8,2.1-1.3,2.6-1.6c1.7-0.8,3.3-1.3,4.8-1.3c2,0,3.7,0.7,5.1,2.1
		c1.4,1.4,2.1,3.1,2.1,4.9c0,2.5-1.3,4.9-4,6.9c-2.6,2.2-6.2,4-10.6,5.5c-4.4,1.5-8.9,2.3-13.4,2.3c-7.9,0-14.8-1.6-20.7-5
		c-5.9-3.3-10.4-7.8-13.6-13.6c-3.2-5.8-4.8-12.3-4.8-19.6c0-8.1,1.7-15.2,5.1-21.4c3.4-6.1,7.9-10.8,13.4-14.1
		c5.6-3.3,11.5-4.9,17.8-4.9c6.2,0,12.1,1.7,17.6,5.1c5.5,3.4,9.9,8,13.2,13.7c3.3,5.8,4.9,12,4.9,18.7
		C305,92.3,304.1,94.1,302.4,95.5z M249.9,83.5h37v-1c-0.4-4-2.3-7.4-5.8-10.2c-3.5-2.8-7.4-4.2-11.9-4.2
		C258.4,68.1,251.9,73.2,249.9,83.5z"/>
	<path class="st3" d="M355.6,60.5c0,2.2-0.7,4-2.3,5.4c-1.5,1.5-3.4,2.2-5.7,2.2h-8.4c-3.5,0-6.6,0.7-9.3,2.2v52.1
		c0,2.5-0.8,4.5-2.4,6.2c-1.6,1.7-3.6,2.5-6.1,2.5c-2.5,0-4.5-0.8-6.1-2.5c-1.6-1.7-2.4-3.7-2.4-6.2v-64c0-2.5,0.8-4.5,2.4-6.2
		c1.6-1.6,3.6-2.5,6.1-2.5c2.4,0,4.5,0.8,6.1,2.5c0.9,0.9,1.5,2,1.9,3.1c2.6-1.3,5.3-2.1,8.1-2.5c1.2-0.2,2.5-0.3,3.8-0.3h6.2
		c2.1,0,3.9,0.7,5.4,2c0.1,0.1,0.2,0.1,0.3,0.2c1.2,1.2,1.9,2.5,2.1,4.2C355.6,59.5,355.6,60,355.6,60.5z"/>
	<path class="st3" d="M677.8,60.5c0,2.2-0.7,4-2.3,5.4c-1.5,1.5-3.4,2.2-5.7,2.2h-8.4c-3.5,0-6.6,0.7-9.3,2.2v52.1
		c0,2.5-0.8,4.5-2.4,6.2c-1.6,1.7-3.6,2.5-6.1,2.5c-2.5,0-4.5-0.8-6.1-2.5c-1.6-1.7-2.4-3.7-2.4-6.2v-64c0-2.5,0.8-4.5,2.4-6.2
		c1.6-1.6,3.6-2.5,6.1-2.5c2.4,0,4.5,0.8,6.1,2.5c0.9,0.9,1.5,2,1.9,3.1c2.6-1.3,5.3-2.1,8.1-2.5c1.2-0.2,2.5-0.3,3.8-0.3h6.2
		c2.1,0,3.9,0.7,5.4,2c0.1,0.1,0.2,0.1,0.3,0.2c1.2,1.2,1.9,2.5,2.1,4.2C677.7,59.5,677.8,60,677.8,60.5z"/>
	<path class="st3" d="M411.8,117c1.1,1.3,1.6,2.9,1.6,5c0,2.5-1.4,4.7-4.2,6.4c-2.8,1.7-5.9,2.6-9.4,2.6c-5.8,0-10.8-1.2-14.8-3.7
		c-4-2.5-6-7.8-6-15.9V68.1h-6.5c-2.3,0-4.2-0.8-5.7-2.3c-1.5-1.5-2.3-3.4-2.3-5.7c0-2.2,0.8-4,2.3-5.4c1.5-1.5,3.4-2.2,5.7-2.2h6.5
		v-9c0-2.5,0.8-4.5,2.5-6.2c1.6-1.6,3.7-2.5,6.2-2.5c2.4,0,4.3,0.8,5.9,2.5c1.6,1.6,2.4,3.7,2.4,6.2v9h10c2.3,0,4.1,0.8,5.7,2.3
		c1.5,1.5,2.3,3.4,2.3,5.7c0,2.2-0.8,4-2.3,5.4c-1.5,1.5-3.4,2.2-5.7,2.2h-10v42.6c0,2,0.5,3.4,1.6,4.3c1,0.9,2.4,1.3,4.2,1.3
		c0.8,0,1.8-0.2,3.1-0.6c1.1-0.5,2.2-0.7,3.3-0.7C409.5,115.1,410.7,115.7,411.8,117z"/>
	<path class="st3" d="M492.5,54.9c1.6,1.6,2.4,3.7,2.4,6.2v61.2c0,2.5-0.8,4.5-2.4,6.2c-1.6,1.7-3.6,2.5-6.1,2.5
		c-2.5,0-4.5-0.8-6-2.4c-1.6-1.6-2.4-5-2.5-7.5c-2.4,2.7-5.5,5.1-9.5,7c-4,1.9-8.2,2.9-12.7,2.9c-6.5,0-12.4-1.7-17.7-5
		c-5.3-3.3-9.5-8-12.5-13.9c-3.1-5.9-4.6-12.7-4.6-20.2c0-7.5,1.5-14.3,4.5-20.3c3-6,7.1-10.7,12.4-14c5.2-3.3,11-5,17.3-5
		c4.5,0,8.8,0.8,12.7,2.5c4,1.6,7.3,3.7,10,6.3v-0.1c0-2.5,0.8-4.5,2.4-6.2c1.6-1.6,3.6-2.5,6.1-2.5
		C488.9,52.5,490.9,53.3,492.5,54.9z M472.9,108.8c3.9-4.5,5.8-10.1,5.8-16.9s-1.9-12.4-5.8-17c-3.9-4.5-8.9-6.8-15-6.8
		c-6,0-11,2.3-14.8,6.8c-3.9,4.5-5.8,10.2-5.8,17s1.9,12.4,5.7,16.9c3.8,4.5,8.8,6.7,14.9,6.7C464,115.5,469,113.2,472.9,108.8z"/>
	<path class="st3" d="M748,55c1.6,1.7,2.4,3.7,2.4,6.2v37.3c0,10.2-2.8,18.1-8.4,23.9c-5.6,5.8-13.6,8.6-24,8.6
		c-10.4,0-18.3-2.9-23.9-8.6c-5.6-5.7-8.3-13.7-8.3-23.9V61.2c0-2.4,0.8-4.5,2.4-6.2c1.6-1.6,3.6-2.5,6.1-2.5c2.5,0,4.5,0.8,6.1,2.5
		c1.6,1.7,2.4,3.7,2.4,6.2v37.3c0,5.8,1.3,10,3.8,12.8c2.5,2.8,6.4,4.2,11.5,4.2c5.2,0,9.1-1.4,11.6-4.2c2.5-2.8,3.8-7,3.8-12.8
		V61.2c0-2.4,0.8-4.5,2.4-6.2c1.6-1.6,3.6-2.5,6.1-2.5C744.3,52.5,746.4,53.4,748,55z"/>
	<path class="st3" d="M829.9,27.4c1.6,1.6,2.4,3.7,2.4,6.2v88.8c0,2.5-0.8,4.5-2.4,6.2c-1.6,1.6-3.6,2.5-6.1,2.5s-4.5-0.8-6-2.4
		c-1.6-1.6-2.4-5-2.5-7.5c-2.4,2.7-5.5,5.1-9.5,7c-4,1.9-8.2,2.9-12.7,2.9c-6.5,0-12.4-1.7-17.7-5c-5.3-3.3-9.5-8-12.5-13.9
		c-3.1-5.9-4.6-12.7-4.6-20.2c0-7.5,1.5-14.3,4.5-20.3c3-6,7.1-10.7,12.4-14c5.2-3.3,11-5,17.3-5c4.5,0,8.8,0.8,12.7,2.5
		c4,1.6,7.3,3.7,10,6.3V33.6c0-2.4,0.8-4.5,2.4-6.2c1.6-1.6,3.6-2.5,6.1-2.5S828.3,25.8,829.9,27.4z M810.3,108.8
		c3.9-4.5,5.8-10.1,5.8-16.9s-1.9-12.4-5.8-17c-3.9-4.5-8.9-6.8-15-6.8c-6,0-11,2.3-14.8,6.8c-3.9,4.5-5.8,10.2-5.8,17
		s1.9,12.4,5.7,16.9c3.8,4.5,8.8,6.7,14.9,6.7C801.4,115.5,806.4,113.2,810.3,108.8z"/>
	<path class="st3" d="M862.9,128.6c-1.6,1.6-3.6,2.5-6.1,2.5s-4.5-0.8-6.1-2.5c-1.6-1.6-2.4-3.7-2.4-6.2V61.2c0-2.4,0.8-4.5,2.4-6.2
		c1.6-1.6,3.6-2.5,6.1-2.5s4.5,0.8,6.1,2.5c1.6,1.7,2.4,3.7,2.4,6.2v61.2C865.3,124.9,864.5,126.9,862.9,128.6z"/>
	<path class="st3" d="M600.6,119.3L600.6,119.3c-0.4-0.6-1.5-1.7-5.2-4.7c-2-1.6-3.7-3-4.9-4c1.7-2.9,3-5.6,3.9-8
		c1.1-2.9,1.6-5.1,1.6-6.7c0-2-0.8-3.8-2.3-5.2c-1.5-1.4-3.2-2.1-5.2-2.1c-2.1,0-3.8,0.8-5,2.3c-1,1.3-2.1,3.2-3.2,5.9
		c-0.5,1.3-1,2.3-1.4,3.2c-0.7-0.7-1.3-1.4-2.1-2.2c-1.3-1.5-2.7-3.1-4.1-4.8c-1.1-1.3-2.3-2.7-3.5-4.2c4.2-2.6,7.4-5.2,9.7-7.8
		c2.7-3,4.1-6.6,4.1-10.7c0-3-0.8-5.9-2.5-8.7c-1.7-2.8-4.2-5-7.5-6.7c-3.3-1.7-7.1-2.5-11.6-2.5c-4.4,0-8.4,0.8-11.7,2.4
		c-3.4,1.6-6,3.8-7.7,6.6c-1.8,2.8-2.7,5.9-2.7,9.3c0,2.8,0.7,5.6,2.1,8.3c1.1,2.1,2.7,4.5,4.7,7.1c-2.2,1.2-4.2,2.4-5.9,3.7
		c-2.2,1.6-4.1,3.3-5.6,5c-1.6,1.8-2.8,3.8-3.6,6.1c-0.9,2.2-1.3,4.7-1.3,7.4c0,2.8,0.6,5.6,1.7,8.2c1.1,2.7,2.9,5.2,5.2,7.4
		c2.3,2.2,5.3,3.9,8.8,5.2c3.5,1.3,7.4,1.9,11.7,1.9c3.4,0,6.5-0.3,9.2-1c2.8-0.7,5.4-1.7,7.8-3c2.1-1.2,4.1-2.6,6-4.3
		c4.2,3.5,7,5.6,8.4,6.6c1.7,1.2,3.5,1.8,5.4,1.8c1.9,0,3.7-0.7,5.2-2.2c1.6-1.5,2.3-3.3,2.3-5.5
		C601.8,121.7,601.4,120.4,600.6,119.3z M566.7,74.4c-1.3,1.2-3.3,2.8-6,4.5c-1-1.2-1.8-2.3-2.5-3.2c-0.8-1-1.5-2.1-2-3.2
		c-0.5-0.9-0.7-1.8-0.7-2.5c0-1.5,0.6-2.8,1.8-3.9c1.3-1.2,2.8-1.7,4.7-1.7c1.9,0,3.4,0.6,4.7,1.7c1.2,1.1,1.8,2.4,1.8,4.1
		C568.5,71.8,567.9,73.2,566.7,74.4z M569.5,112.7c-1.1,0.9-2.1,1.7-3.1,2.4c-1.3,0.9-2.7,1.6-4.2,2.1c-2.9,1-6.1,1-8.8-0.1
		c-1.4-0.5-2.6-1.4-3.6-2.4c-1-1.1-1.8-2.2-2.4-3.4c-0.5-1.2-0.8-2.5-0.8-3.8c0-2.3,0.7-4.3,2.2-6c1.4-1.6,3.4-3.2,6.1-4.9
		c3,3.6,5.5,6.6,7.7,9C564.7,107.9,567,110.3,569.5,112.7z"/>
</g>
</svg>
