<?xml version="1.0" encoding="UTF-8"?>
<svg id="Ebene_1" data-name="Ebene 1" xmlns="http://www.w3.org/2000/svg" viewBox="0 0 687 183">
  <defs>
    <style>
      .cls-1 {
        fill: #fff;
        stroke-width: 0px;
      }
    </style>
  </defs>
  <path class="cls-1" d="m90.98.7c-14.96,0-29.69,3.69-42.89,10.74-13.2,7.05-24.45,17.25-32.76,29.69C7.02,53.58,1.9,67.88.44,82.77c-1.47,14.89.76,29.91,6.49,43.73,5.73,13.82,14.77,26.02,26.34,35.51,11.57,9.49,25.29,15.98,39.97,18.9,14.67,2.92,29.84,2.17,44.16-2.17,14.32-4.34,27.34-12.15,37.92-22.73l-64.33-64.33V.7Z"/>
  <path class="cls-1" d="m181.96.7c-11.95,0-23.78,2.35-34.82,6.93-11.04,4.57-21.07,11.27-29.52,19.72s-15.15,18.48-19.72,29.52c-4.57,11.04-6.93,22.87-6.93,34.82h90.98V.7Z"/>
  <path class="cls-1" d="m642.26,133.34c2.75-5.15,10.3-8.92,17.85-8.92,15.22,0,26.89,12.82,26.89,29.06s-11.67,29.18-26.89,29.18c-7.55,0-15.1-3.78-17.85-8.93v7.78h-12.7v-80.1h12.7v31.92Zm0,28.61c2.75,4.92,8.81,8.58,15.22,8.58,9.61,0,17.05-7.32,17.05-17.05s-7.44-16.93-17.05-16.93c-6.41,0-12.59,3.66-15.22,8.7v16.71Z"/>
  <path class="cls-1" d="m605.63,181.52v-7.55c-3.32,5.38-10.07,8.7-17.05,8.7-14.07,0-22.89-9.73-22.89-25.17v-31.92h12.7v29.86c0,9.04,5.26,14.53,13.27,14.53,5.61,0,11.1-2.97,13.96-7.78v-36.62h12.82v55.95h-12.82Z"/>
  <path class="cls-1" d="m540.5,101.42h13.39v80.1h-13.39v-35.13h-38.79v35.13h-13.39v-80.1h13.39v32.15h38.79v-32.15Z"/>
  <path class="cls-1" d="m401.03,101.42h12.7v31.7c3.32-5.38,10.07-8.7,17.05-8.7,14.07,0,22.88,9.73,22.88,25.17v31.92h-12.7v-29.86c0-9.04-5.26-14.53-13.27-14.53-5.61,0-11.1,2.98-13.96,7.78v36.62h-12.7v-80.1Z"/>
  <path class="cls-1" d="m367.17,182.66c-16.36,0-28.95-12.47-28.95-29.07s12.59-29.18,28.95-29.18c13.5,0,25.06,9.04,26.78,21.17h-13.04c-1.37-5.15-7.09-8.93-13.73-8.93-9.27,0-16.36,7.32-16.36,16.93s7.09,16.82,16.36,16.82c6.64,0,12.47-3.78,13.85-9.38h13.04c-1.49,12.7-13.27,21.63-26.89,21.63Z"/>
  <path class="cls-1" d="m306.66,182.66c-16.48,0-29.07-12.7-29.07-29.41s12.7-28.83,28.84-28.83c15.1,0,27.23,11.67,27.23,27.46,0,1.03-.11,3.43-.23,4.69h-43.71c1.03,9.04,7.55,15.1,16.82,15.1,7.32,0,12.7-3.32,13.85-8.58h12.59c-1.95,11.9-12.59,19.57-26.32,19.57Zm-16.36-35.36h29.86c-.69-6.98-6.64-12.01-14.3-12.01s-13.62,4.23-15.56,12.01Z"/>
  <path class="cls-1" d="m261.3,181.52h-13.39v-67.28h-24.6v-12.82h62.59v12.82h-24.6v67.28Z"/>
  <path class="cls-1" d="m587.87,83.41c-16.48,0-29.07-12.7-29.07-29.41s12.7-28.84,28.84-28.84c15.1,0,27.23,11.67,27.23,27.46,0,1.03-.11,3.43-.23,4.69h-43.71c1.03,9.04,7.55,15.1,16.82,15.1,7.32,0,12.7-3.32,13.85-8.58h12.59c-1.95,11.9-12.59,19.57-26.32,19.57Zm-16.36-35.36h29.86c-.69-6.98-6.64-12.01-14.3-12.01s-13.62,4.23-15.56,12.01Z"/>
  <path class="cls-1" d="m550.04,82.95c-12.36,0-20.6-7.55-20.6-21.74v-22.77h-10.64v-12.13h10.64v-14.99h12.82v14.99h14.65v12.13h-14.65v22.54c0,7.09,4.35,9.96,10.53,9.96,1.37,0,2.86-.11,4.12-.46v11.79c-1.95.46-4.81.69-6.87.69Z"/>
  <path class="cls-1" d="m513.11,26.31v55.95h-12.82v-7.78c-2.75,5.15-10.3,8.93-17.85,8.93-15.22,0-26.89-12.82-26.89-29.18s11.67-29.06,26.89-29.06c7.55,0,15.1,3.78,17.85,8.93v-7.78h12.82Zm-45.08,27.92c0,9.73,7.44,17.05,17.05,17.05,6.41,0,12.47-3.66,15.22-8.58v-16.71c-2.63-5.03-8.81-8.7-15.22-8.7-9.61,0-17.05,7.21-17.05,16.94Z"/>
  <path class="cls-1" d="m409.81,46.57v35.7h-12.82v-31.81c0-8.35-4.92-13.5-12.01-13.5-5.61,0-10.3,3.2-12.59,7.55v37.76h-12.82V26.31h12.82v7.21c2.75-3.78,8.35-8.35,16.93-8.35,7.67,0,13.27,2.86,16.82,9.04,3.78-4.46,10.18-9.04,18.31-9.04,13.5,0,22.89,9.04,22.89,22.89v34.21h-12.93v-31.81c0-8.35-4.69-13.5-12.24-13.5-5.04,0-10.18,3.43-12.7,7.67l.34,1.95Z"/>
  <path class="cls-1" d="m335.71,26.31h12.7v55.95h-12.7V26.31Zm-1.72-17.85c0-4.35,3.66-8.12,8.12-8.12s8.24,3.78,8.24,8.12c0,4.58-3.78,8.24-8.24,8.24s-8.12-3.66-8.12-8.24Z"/>
  <path class="cls-1" d="m324.55,2.17v80.1h-12.7V2.17h12.7Z"/>
  <path class="cls-1" d="m265.31,83.41c-22.89,0-40.28-17.85-40.28-41.31S242.42,1.02,265.31,1.02c18.42,0,34.67,11.9,37.19,28.38h-14.76c-2.63-9.04-11.67-15.33-22.43-15.33-14.99,0-26.43,12.13-26.43,28.03s11.44,28.26,26.43,28.26c10.87,0,20.14-6.64,22.54-16.36h14.88c-3.2,17.39-18.54,29.41-37.42,29.41Z"/>
</svg>